ChironSungHKVF-weight0-Master.ufo
<glyph name="cid40900" format="2">
  <advance height="1000" width="297"/>
  <unicode hex="0021"/>
  <outline>
    <contour>
      <point x="127" y="195" type="line"/>
      <point x="149" y="195" type="line"/>
      <point x="245" y="558"/>
      <point x="274" y="658"/>
      <point x="274" y="694" type="curve" smooth="yes"/>
      <point x="274" y="714"/>
      <point x="264" y="724"/>
      <point x="243" y="724" type="curve" smooth="yes"/>
      <point x="223" y="724"/>
      <point x="206" y="713"/>
      <point x="199" y="675" type="curve" smooth="yes"/>
      <point x="190" y="628"/>
      <point x="177" y="539"/>
      <point x="159" y="405" type="curve" smooth="yes"/>
    </contour>
    <contour>
      <point x="61" y="44" type="curve" smooth="yes"/>
      <point x="61" y="20"/>
      <point x="79" y="2"/>
      <point x="103" y="2" type="curve" smooth="yes"/>
      <point x="131" y="2"/>
      <point x="156" y="24"/>
      <point x="156" y="53" type="curve" smooth="yes"/>
      <point x="156" y="76"/>
      <point x="139" y="96"/>
      <point x="113" y="96" type="curve" smooth="yes"/>
      <point x="85" y="96"/>
      <point x="61" y="73"/>
    </contour>
  </outline>
</glyph>
<glyph name="cid41016" format="2">
  <advance height="1000" width="572"/>
  <unicode hex="0023"/>
  <outline>
    <contour>
      <point x="87" y="10" type="line"/>
      <point x="120" y="10" type="line"/>
      <point x="301" y="688" type="line"/>
      <point x="268" y="688" type="line"/>
    </contour>
    <contour>
      <point x="47" y="266" type="line"/>
      <point x="37" y="214" type="line"/>
      <point x="509" y="214" type="line"/>
      <point x="518" y="266" type="line"/>
    </contour>
    <contour>
      <point x="570" y="446" type="line"/>
      <point x="579" y="499" type="line"/>
      <point x="108" y="499" type="line"/>
      <point x="98" y="446" type="line"/>
    </contour>
    <contour>
      <point x="314" y="10" type="line"/>
      <point x="346" y="10" type="line"/>
      <point x="527" y="688" type="line"/>
      <point x="495" y="688" type="line"/>
    </contour>
  </outline>
</glyph>
<glyph name="cid41195" format="2">
  <advance height="1000" width="521"/>
  <unicode hex="0024"/>
  <outline>
    <contour>
      <point x="179" y="-110" type="line"/>
      <point x="208" y="-110" type="line"/>
      <point x="303" y="349" type="line"/>
      <point x="275" y="349" type="line"/>
    </contour>
    <contour>
      <point x="224" y="-4" type="curve" smooth="yes"/>
      <point x="352" y="-4"/>
      <point x="449" y="64"/>
      <point x="449" y="185" type="curve" smooth="yes"/>
      <point x="449" y="260"/>
      <point x="413" y="307"/>
      <point x="326" y="362" type="curve"/>
      <point x="287" y="384" type="line"/>
      <point x="224" y="424"/>
      <point x="183" y="457"/>
      <point x="183" y="531" type="curve" smooth="yes"/>
      <point x="183" y="618"/>
      <point x="250" y="671"/>
      <point x="341" y="671" type="curve" smooth="yes"/>
      <point x="392" y="671"/>
      <point x="434" y="661"/>
      <point x="474" y="620" type="curve"/>
      <point x="441" y="663" type="line"/>
      <point x="446" y="578" type="line" smooth="yes"/>
      <point x="448" y="546"/>
      <point x="464" y="533"/>
      <point x="482" y="533" type="curve" smooth="yes"/>
      <point x="498" y="533"/>
      <point x="510" y="541"/>
      <point x="514" y="561" type="curve"/>
      <point x="506" y="653"/>
      <point x="446" y="701"/>
      <point x="344" y="701" type="curve" smooth="yes"/>
      <point x="228" y="701"/>
      <point x="134" y="630"/>
      <point x="134" y="513" type="curve" smooth="yes"/>
      <point x="134" y="437"/>
      <point x="175" y="388"/>
      <point x="252" y="340" type="curve" smooth="yes"/>
      <point x="290" y="316" type="line" smooth="yes"/>
      <point x="363" y="271"/>
      <point x="400" y="238"/>
      <point x="400" y="170" type="curve" smooth="yes"/>
      <point x="400" y="78"/>
      <point x="328" y="24"/>
      <point x="229" y="24" type="curve" smooth="yes"/>
      <point x="165" y="24"/>
      <point x="123" y="40"/>
      <point x="82" y="78" type="curve"/>
      <point x="116" y="36" type="line"/>
      <point x="110" y="126" type="line" smooth="yes"/>
      <point x="107" y="162"/>
      <point x="93" y="171"/>
      <point x="74" y="171" type="curve" smooth="yes"/>
      <point x="57" y="171"/>
      <point x="47" y="162"/>
      <point x="42" y="145" type="curve"/>
      <point x="48" y="47"/>
      <point x="109" y="-4"/>
    </contour>
    <contour>
      <point x="274" y="349" type="line"/>
      <point x="303" y="349" type="line"/>
      <point x="395" y="794" type="line"/>
      <point x="366" y="794" type="line"/>
    </contour>
  </outline>
</glyph>
<glyph name="cid41238" format="2">
  <advance height="1000" width="847"/>
  <unicode hex="0025"/>
  <outline>
    <contour>
      <point x="187" y="290" type="curve" smooth="yes"/>
      <point x="289" y="290"/>
      <point x="371" y="425"/>
      <point x="371" y="583" type="curve" smooth="yes"/>
      <point x="371" y="676"/>
      <point x="324" y="720"/>
      <point x="262" y="720" type="curve" smooth="yes"/>
      <point x="157" y="720"/>
      <point x="77" y="582"/>
      <point x="77" y="425" type="curve" smooth="yes"/>
      <point x="77" y="334"/>
      <point x="123" y="290"/>
    </contour>
    <contour>
      <point x="189" y="311" type="curve" smooth="yes"/>
      <point x="154" y="311"/>
      <point x="126" y="339"/>
      <point x="126" y="422" type="curve" smooth="yes"/>
      <point x="126" y="565"/>
      <point x="190" y="698"/>
      <point x="259" y="698" type="curve" smooth="yes"/>
      <point x="293" y="698"/>
      <point x="322" y="671"/>
      <point x="322" y="590" type="curve" smooth="yes"/>
      <point x="322" y="450"/>
      <point x="260" y="311"/>
    </contour>
    <contour>
      <point x="190" y="-6" type="line"/>
      <point x="714" y="685" type="line"/>
      <point x="692" y="703" type="line"/>
      <point x="165" y="12" type="line"/>
    </contour>
    <contour>
      <point x="626" y="2" type="curve" smooth="yes"/>
      <point x="728" y="2"/>
      <point x="810" y="137"/>
      <point x="810" y="295" type="curve" smooth="yes"/>
      <point x="810" y="388"/>
      <point x="763" y="432"/>
      <point x="701" y="432" type="curve" smooth="yes"/>
      <point x="596" y="432"/>
      <point x="516" y="294"/>
      <point x="516" y="137" type="curve" smooth="yes"/>
      <point x="516" y="46"/>
      <point x="562" y="2"/>
    </contour>
    <contour>
      <point x="628" y="22" type="curve" smooth="yes"/>
      <point x="593" y="22"/>
      <point x="565" y="51"/>
      <point x="565" y="134" type="curve" smooth="yes"/>
      <point x="565" y="277"/>
      <point x="629" y="410"/>
      <point x="698" y="410" type="curve" smooth="yes"/>
      <point x="732" y="410"/>
      <point x="761" y="383"/>
      <point x="761" y="302" type="curve" smooth="yes"/>
      <point x="761" y="162"/>
      <point x="699" y="22"/>
    </contour>
  </outline>
</glyph>
<glyph name="cid40764" format="2">
  <advance height="1000" width="696"/>
  <unicode hex="0026"/>
  <outline>
    <contour>
      <point x="304" y="-4" type="curve" smooth="yes"/>
      <point x="445" y="-4"/>
      <point x="541" y="70"/>
      <point x="541" y="189" type="curve" smooth="yes"/>
      <point x="541" y="249"/>
      <point x="508" y="305"/>
      <point x="438" y="318" type="curve"/>
      <point x="438" y="318"/>
      <point x="438" y="306"/>
      <point x="438" y="306" type="curve"/>
      <point x="583" y="311"/>
      <point x="671" y="366"/>
      <point x="720" y="489" type="curve"/>
      <point x="720" y="489"/>
      <point x="674" y="509"/>
      <point x="674" y="509" type="curve"/>
      <point x="627" y="389"/>
      <point x="561" y="329"/>
      <point x="399" y="328" type="curve"/>
      <point x="399" y="328"/>
      <point x="393" y="296"/>
      <point x="393" y="296" type="curve"/>
      <point x="463" y="287"/>
      <point x="506" y="249"/>
      <point x="506" y="186" type="curve" smooth="yes"/>
      <point x="506" y="98"/>
      <point x="430" y="41"/>
      <point x="311" y="41" type="curve" smooth="yes"/>
      <point x="190" y="41"/>
      <point x="104" y="114"/>
      <point x="104" y="226" type="curve" smooth="yes"/>
      <point x="104" y="310"/>
      <point x="148" y="396"/>
      <point x="256" y="425" type="curve"/>
      <point x="256" y="425"/>
      <point x="238" y="429"/>
      <point x="238" y="429" type="curve"/>
      <point x="268" y="398"/>
      <point x="297" y="383"/>
      <point x="329" y="383" type="curve" smooth="yes"/>
      <point x="353" y="383"/>
      <point x="365" y="396"/>
      <point x="365" y="414" type="curve" smooth="yes"/>
      <point x="365" y="437"/>
      <point x="331" y="452"/>
      <point x="286" y="452" type="curve" smooth="yes"/>
      <point x="279" y="452"/>
      <point x="270" y="452"/>
      <point x="257" y="450" type="curve"/>
      <point x="257" y="450"/>
      <point x="278" y="443"/>
      <point x="278" y="443" type="curve"/>
      <point x="253" y="477"/>
      <point x="241" y="508"/>
      <point x="241" y="546" type="curve" smooth="yes"/>
      <point x="241" y="632"/>
      <point x="297" y="698"/>
      <point x="405" y="698" type="curve" smooth="yes"/>
      <point x="431" y="698"/>
      <point x="458" y="694"/>
      <point x="479" y="684" type="curve"/>
      <point x="479" y="684"/>
      <point x="434" y="711"/>
      <point x="434" y="711" type="curve"/>
      <point x="434" y="711"/>
      <point x="464" y="654"/>
      <point x="464" y="654" type="curve"/>
      <point x="476" y="630"/>
      <point x="489" y="620"/>
      <point x="506" y="620" type="curve" smooth="yes"/>
      <point x="524" y="620"/>
      <point x="532" y="630"/>
      <point x="536" y="645" type="curve"/>
      <point x="520" y="695"/>
      <point x="474" y="724"/>
      <point x="405" y="724" type="curve" smooth="yes"/>
      <point x="269" y="724"/>
      <point x="199" y="635"/>
      <point x="199" y="541" type="curve" smooth="yes"/>
      <point x="199" y="506"/>
      <point x="209" y="473"/>
      <point x="232" y="437" type="curve"/>
      <point x="232" y="437"/>
      <point x="235" y="447"/>
      <point x="235" y="447" type="curve"/>
      <point x="121" y="421"/>
      <point x="53" y="321"/>
      <point x="53" y="217" type="curve" smooth="yes"/>
      <point x="53" y="85"/>
      <point x="146" y="-4"/>
    </contour>
  </outline>
</glyph>
<glyph name="cid40908" format="2">
  <advance height="1000" width="220"/>
  <unicode hex="0027"/>
  <outline>
    <contour>
      <point x="207" y="782" type="curve" smooth="yes"/>
      <point x="186" y="782"/>
      <point x="174" y="770"/>
      <point x="167" y="739" type="curve"/>
      <point x="161" y="703"/>
      <point x="156" y="627"/>
      <point x="152" y="576" type="curve" smooth="yes"/>
      <point x="142" y="479" type="line"/>
      <point x="165" y="479" type="line"/>
      <point x="206" y="633"/>
      <point x="233" y="722"/>
      <point x="233" y="748" type="curve" smooth="yes"/>
      <point x="233" y="768"/>
      <point x="225" y="782"/>
    </contour>
  </outline>
</glyph>
<glyph name="cid40948" format="2">
  <advance height="1000" width="358"/>
  <unicode hex="0028"/>
  <outline>
    <contour>
      <point x="216" y="-206" type="curve"/>
      <point x="238" y="-192" type="line"/>
      <point x="161" y="-66"/>
      <point x="132" y="45"/>
      <point x="132" y="182" type="curve" smooth="yes"/>
      <point x="132" y="400"/>
      <point x="217" y="579"/>
      <point x="423" y="760" type="curve"/>
      <point x="407" y="780" type="line"/>
      <point x="177" y="603"/>
      <point x="79" y="397"/>
      <point x="79" y="183" type="curve" smooth="yes"/>
      <point x="79" y="42"/>
      <point x="123" y="-88"/>
    </contour>
  </outline>
</glyph>
<glyph name="cid40950" format="2">
  <advance height="1000" width="358"/>
  <unicode hex="0029"/>
  <outline>
    <contour>
      <point x="150" y="780" type="curve"/>
      <point x="150" y="780"/>
      <point x="128" y="765"/>
      <point x="128" y="765" type="curve"/>
      <point x="205" y="639"/>
      <point x="234" y="528"/>
      <point x="234" y="392" type="curve" smooth="yes"/>
      <point x="234" y="173"/>
      <point x="149" y="-6"/>
      <point x="-57" y="-187" type="curve"/>
      <point x="-57" y="-187"/>
      <point x="-41" y="-206"/>
      <point x="-41" y="-206" type="curve"/>
      <point x="189" y="-30"/>
      <point x="287" y="176"/>
      <point x="287" y="391" type="curve" smooth="yes"/>
      <point x="287" y="531"/>
      <point x="243" y="661"/>
    </contour>
  </outline>
</glyph>
<glyph name="cid40994" format="2">
  <advance height="1000" width="480"/>
  <unicode hex="002A"/>
  <outline>
    <contour>
      <point x="250" y="765" type="curve" smooth="yes"/>
      <point x="250" y="744"/>
      <point x="265" y="698"/>
      <point x="305" y="572" type="curve"/>
      <point x="305" y="572"/>
      <point x="318" y="573"/>
      <point x="318" y="573" type="curve"/>
      <point x="310" y="704"/>
      <point x="306" y="747"/>
      <point x="303" y="767" type="curve"/>
      <point x="298" y="787"/>
      <point x="289" y="793"/>
      <point x="276" y="793" type="curve" smooth="yes"/>
      <point x="258" y="793"/>
      <point x="250" y="781"/>
    </contour>
    <contour>
      <point x="99" y="607" type="curve" smooth="yes"/>
      <point x="99" y="575"/>
      <point x="137" y="574"/>
      <point x="317" y="574" type="curve"/>
      <point x="317" y="574"/>
      <point x="320" y="587"/>
      <point x="320" y="587" type="curve"/>
      <point x="183" y="622"/>
      <point x="144" y="632"/>
      <point x="125" y="632" type="curve" smooth="yes"/>
      <point x="106" y="632"/>
      <point x="99" y="619"/>
    </contour>
    <contour>
      <point x="203" y="409" type="curve" smooth="yes"/>
      <point x="203" y="393"/>
      <point x="214" y="386"/>
      <point x="227" y="386" type="curve" smooth="yes"/>
      <point x="255" y="386"/>
      <point x="268" y="435"/>
      <point x="320" y="588" type="curve"/>
      <point x="320" y="588"/>
      <point x="308" y="593"/>
      <point x="308" y="593" type="curve"/>
      <point x="228" y="464"/>
      <point x="203" y="432"/>
    </contour>
    <contour>
      <point x="298" y="584" type="curve"/>
      <point x="400" y="459"/>
      <point x="426" y="424"/>
      <point x="451" y="426" type="curve" smooth="yes"/>
      <point x="464" y="427"/>
      <point x="474" y="438"/>
      <point x="472" y="452" type="curve"/>
      <point x="470" y="475"/>
      <point x="433" y="499"/>
      <point x="308" y="593" type="curve"/>
      <point x="308" y="593"/>
      <point x="298" y="584"/>
    </contour>
    <contour>
      <point x="477" y="696" type="curve" smooth="yes"/>
      <point x="454" y="696"/>
      <point x="419" y="667"/>
      <point x="298" y="583" type="curve"/>
      <point x="298" y="583"/>
      <point x="305" y="572"/>
      <point x="305" y="572" type="curve"/>
      <point x="465" y="635"/>
      <point x="501" y="644"/>
      <point x="501" y="671" type="curve" smooth="yes"/>
      <point x="501" y="689"/>
      <point x="490" y="696"/>
    </contour>
  </outline>
</glyph>
<glyph name="cid41253" format="2">
  <advance height="1000" width="545"/>
  <unicode hex="002B"/>
  <outline>
    <contour>
      <point x="269" y="112" type="curve"/>
      <point x="269" y="112"/>
      <point x="309" y="112"/>
      <point x="309" y="112" type="curve"/>
      <point x="309" y="112"/>
      <point x="309" y="596"/>
      <point x="309" y="596" type="curve"/>
      <point x="309" y="596"/>
      <point x="269" y="596"/>
      <point x="269" y="596" type="curve"/>
      <point x="269" y="596"/>
      <point x="269" y="112"/>
    </contour>
    <contour>
      <point x="518" y="339" type="curve"/>
      <point x="518" y="339"/>
      <point x="518" y="374"/>
      <point x="518" y="374" type="curve"/>
      <point x="518" y="374"/>
      <point x="60" y="374"/>
      <point x="60" y="374" type="curve"/>
      <point x="60" y="374"/>
      <point x="60" y="339"/>
      <point x="60" y="339" type="curve"/>
      <point x="60" y="339"/>
      <point x="518" y="339"/>
    </contour>
  </outline>
</glyph>
<glyph name="cid40895" format="2">
  <advance height="1000" width="300"/>
  <unicode hex="002C"/>
  <outline>
    <contour>
      <point x="6" y="-153" type="line"/>
      <point x="99" y="-117"/>
      <point x="158" y="-43"/>
      <point x="158" y="54" type="curve" smooth="yes"/>
      <point x="158" y="64"/>
      <point x="156" y="71"/>
      <point x="154" y="79" type="curve"/>
      <point x="144" y="91"/>
      <point x="131" y="96"/>
      <point x="113" y="96" type="curve" smooth="yes"/>
      <point x="87" y="96"/>
      <point x="67" y="76"/>
      <point x="67" y="48" type="curve" smooth="yes"/>
      <point x="67" y="28"/>
      <point x="74" y="16"/>
      <point x="97" y="3" type="curve"/>
      <point x="126" y="-16" type="line"/>
      <point x="120" y="4" type="line"/>
      <point x="101" y="-63"/>
      <point x="66" y="-95"/>
      <point x="-4" y="-129" type="curve"/>
    </contour>
  </outline>
</glyph>
<glyph name="cid40893" format="2">
  <advance height="1000" width="300"/>
  <unicode hex="002E"/>
  <outline>
    <contour>
      <point x="108" y="2" type="curve" smooth="yes"/>
      <point x="136" y="2"/>
      <point x="160" y="24"/>
      <point x="160" y="54" type="curve" smooth="yes"/>
      <point x="160" y="77"/>
      <point x="144" y="96"/>
      <point x="118" y="96" type="curve" smooth="yes"/>
      <point x="89" y="96"/>
      <point x="64" y="74"/>
      <point x="64" y="44" type="curve" smooth="yes"/>
      <point x="64" y="21"/>
      <point x="82" y="2"/>
    </contour>
  </outline>
</glyph>
<glyph name="cid40988" format="2">
  <advance height="1000" width="333"/>
  <unicode hex="002F"/>
  <outline>
    <contour>
      <point x="-87" y="-156" type="curve"/>
      <point x="-87" y="-156"/>
      <point x="-44" y="-156"/>
      <point x="-44" y="-156" type="curve"/>
      <point x="-44" y="-156"/>
      <point x="413" y="748"/>
      <point x="413" y="748" type="curve"/>
      <point x="413" y="748"/>
      <point x="369" y="748"/>
      <point x="369" y="748" type="curve"/>
      <point x="369" y="748"/>
      <point x="-87" y="-156"/>
    </contour>
  </outline>
</glyph>
<glyph name="cid40776" format="2">
  <advance height="1000" width="521"/>
  <unicode hex="0031"/>
  <outline>
    <contour>
      <point x="50" y="10" type="line"/>
      <point x="408" y="10" type="line"/>
      <point x="414" y="36" type="line"/>
      <point x="251" y="46" type="line"/>
      <point x="217" y="46" type="line"/>
      <point x="56" y="36" type="line"/>
    </contour>
    <contour>
      <point x="200" y="10" type="line"/>
      <point x="252" y="10" type="line"/>
      <point x="265" y="82"/>
      <point x="281" y="160"/>
      <point x="295" y="237" type="curve" smooth="yes"/>
      <point x="353" y="519" type="line"/>
      <point x="391" y="687" type="line"/>
      <point x="381" y="697" type="line"/>
      <point x="182" y="643" type="line"/>
      <point x="176" y="616" type="line"/>
      <point x="349" y="642" type="line"/>
      <point x="333" y="662" type="line"/>
    </contour>
  </outline>
</glyph>
<glyph name="cid40779" format="2">
  <advance height="1000" width="521"/>
  <unicode hex="0032"/>
  <outline>
    <contour>
      <point x="31" y="10" type="line"/>
      <point x="427" y="10" type="line"/>
      <point x="438" y="62" type="line"/>
      <point x="81" y="62" type="line"/>
      <point x="81" y="73" type="line"/>
      <point x="73" y="47" type="line"/>
      <point x="216" y="178" type="line" smooth="yes"/>
      <point x="422" y="364"/>
      <point x="504" y="433"/>
      <point x="504" y="547" type="curve" smooth="yes"/>
      <point x="504" y="636"/>
      <point x="443" y="701"/>
      <point x="330" y="701" type="curve" smooth="yes"/>
      <point x="225" y="701"/>
      <point x="147" y="644"/>
      <point x="129" y="525" type="curve"/>
      <point x="133" y="510"/>
      <point x="145" y="500"/>
      <point x="160" y="500" type="curve" smooth="yes"/>
      <point x="181" y="500"/>
      <point x="194" y="513"/>
      <point x="199" y="553" type="curve" smooth="yes"/>
      <point x="207" y="648" type="line"/>
      <point x="180" y="593" type="line"/>
      <point x="208" y="649"/>
      <point x="261" y="671"/>
      <point x="316" y="671" type="curve" smooth="yes"/>
      <point x="404" y="671"/>
      <point x="451" y="623"/>
      <point x="451" y="545" type="curve" smooth="yes"/>
      <point x="451" y="452"/>
      <point x="399" y="391"/>
      <point x="191" y="196" type="curve" smooth="yes"/>
      <point x="38" y="52" type="line"/>
    </contour>
  </outline>
</glyph>
<glyph name="cid40780" format="2">
  <advance height="1000" width="521"/>
  <unicode hex="0033"/>
  <outline>
    <contour>
      <point x="233" y="-4" type="curve" smooth="yes"/>
      <point x="356" y="-4"/>
      <point x="463" y="68"/>
      <point x="463" y="198" type="curve" smooth="yes"/>
      <point x="463" y="289"/>
      <point x="405" y="353"/>
      <point x="292" y="359" type="curve"/>
      <point x="292" y="351" type="line"/>
      <point x="412" y="363"/>
      <point x="500" y="445"/>
      <point x="500" y="547" type="curve" smooth="yes"/>
      <point x="500" y="632"/>
      <point x="445" y="701"/>
      <point x="333" y="701" type="curve" smooth="yes"/>
      <point x="231" y="701"/>
      <point x="162" y="651"/>
      <point x="138" y="552" type="curve"/>
      <point x="140" y="534"/>
      <point x="154" y="523"/>
      <point x="168" y="523" type="curve" smooth="yes"/>
      <point x="189" y="523"/>
      <point x="201" y="537"/>
      <point x="205" y="564" type="curve" smooth="yes"/>
      <point x="219" y="656" type="line"/>
      <point x="193" y="614" type="line"/>
      <point x="227" y="653"/>
      <point x="275" y="671"/>
      <point x="324" y="671" type="curve" smooth="yes"/>
      <point x="405" y="671"/>
      <point x="447" y="622"/>
      <point x="447" y="545" type="curve" smooth="yes"/>
      <point x="447" y="437"/>
      <point x="360" y="371"/>
      <point x="265" y="371" type="curve" smooth="yes"/>
      <point x="226" y="371" type="line"/>
      <point x="219" y="341" type="line"/>
      <point x="258" y="341" type="line" smooth="yes"/>
      <point x="356" y="341"/>
      <point x="409" y="289"/>
      <point x="409" y="200" type="curve" smooth="yes"/>
      <point x="409" y="89"/>
      <point x="335" y="25"/>
      <point x="236" y="25" type="curve" smooth="yes"/>
      <point x="182" y="25"/>
      <point x="133" y="41"/>
      <point x="99" y="88" type="curve"/>
      <point x="116" y="53" type="line"/>
      <point x="118" y="149" type="line" smooth="yes"/>
      <point x="118" y="176"/>
      <point x="108" y="191"/>
      <point x="87" y="191" type="curve" smooth="yes"/>
      <point x="73" y="191"/>
      <point x="62" y="185"/>
      <point x="56" y="169" type="curve"/>
      <point x="54" y="44"/>
      <point x="133" y="-4"/>
    </contour>
  </outline>
</glyph>
<glyph name="cid40781" format="2">
  <advance height="1000" width="521"/>
  <unicode hex="0034"/>
  <outline>
    <contour>
      <point x="292" y="-9" type="line"/>
      <point x="340" y="-9" type="line"/>
      <point x="484" y="691" type="line"/>
      <point x="449" y="691" type="line"/>
      <point x="34" y="235" type="line"/>
      <point x="27" y="198" type="line"/>
      <point x="502" y="198" type="line"/>
      <point x="511" y="242" type="line"/>
      <point x="70" y="242" type="line"/>
      <point x="70" y="258" type="line"/>
      <point x="59" y="222" type="line"/>
      <point x="254" y="436" type="line"/>
      <point x="448" y="650" type="line"/>
      <point x="412" y="633" type="line"/>
      <point x="423" y="633" type="line"/>
      <point x="341" y="228" type="line"/>
      <point x="338" y="215" type="line"/>
    </contour>
  </outline>
</glyph>
<glyph name="cid40785" format="2">
  <advance height="1000" width="521"/>
  <unicode hex="0035"/>
  <outline>
    <contour>
      <point x="224" y="-4" type="curve" smooth="yes"/>
      <point x="353" y="-4"/>
      <point x="466" y="73"/>
      <point x="466" y="234" type="curve" smooth="yes"/>
      <point x="466" y="344"/>
      <point x="398" y="417"/>
      <point x="283" y="417" type="curve" smooth="yes"/>
      <point x="235" y="417"/>
      <point x="191" y="406"/>
      <point x="158" y="391" type="curve"/>
      <point x="158" y="391"/>
      <point x="172" y="379"/>
      <point x="172" y="379" type="curve"/>
      <point x="172" y="379"/>
      <point x="243" y="662"/>
      <point x="243" y="662" type="curve"/>
      <point x="243" y="662"/>
      <point x="224" y="633"/>
      <point x="224" y="633" type="curve"/>
      <point x="224" y="633"/>
      <point x="520" y="633"/>
      <point x="520" y="633" type="curve"/>
      <point x="520" y="633"/>
      <point x="531" y="686"/>
      <point x="531" y="686" type="curve"/>
      <point x="531" y="686"/>
      <point x="219" y="686"/>
      <point x="219" y="686" type="curve"/>
      <point x="219" y="686"/>
      <point x="139" y="369"/>
      <point x="139" y="369" type="curve"/>
      <point x="139" y="369"/>
      <point x="159" y="364"/>
      <point x="159" y="364" type="curve"/>
      <point x="189" y="379"/>
      <point x="226" y="388"/>
      <point x="270" y="388" type="curve" smooth="yes"/>
      <point x="354" y="388"/>
      <point x="412" y="332"/>
      <point x="412" y="228" type="curve" smooth="yes"/>
      <point x="412" y="96"/>
      <point x="332" y="25"/>
      <point x="224" y="25" type="curve" smooth="yes"/>
      <point x="175" y="25"/>
      <point x="138" y="38"/>
      <point x="109" y="78" type="curve"/>
      <point x="109" y="78"/>
      <point x="122" y="48"/>
      <point x="122" y="48" type="curve"/>
      <point x="122" y="48"/>
      <point x="122" y="138"/>
      <point x="122" y="138" type="curve"/>
      <point x="120" y="171"/>
      <point x="111" y="185"/>
      <point x="89" y="185" type="curve" smooth="yes"/>
      <point x="76" y="185"/>
      <point x="63" y="178"/>
      <point x="58" y="162" type="curve"/>
      <point x="57" y="50"/>
      <point x="124" y="-4"/>
    </contour>
  </outline>
</glyph>
<glyph name="cid40786" format="2">
  <advance height="1000" width="521"/>
  <unicode hex="0036"/>
  <outline>
    <contour>
      <point x="258" y="-4" type="curve" smooth="yes"/>
      <point x="367" y="-4"/>
      <point x="476" y="88"/>
      <point x="476" y="235" type="curve" smooth="yes"/>
      <point x="476" y="340"/>
      <point x="417" y="411"/>
      <point x="316" y="411" type="curve" smooth="yes"/>
      <point x="243" y="411"/>
      <point x="175" y="378"/>
      <point x="116" y="316" type="curve"/>
      <point x="116" y="316"/>
      <point x="111" y="316"/>
      <point x="111" y="316" type="curve"/>
      <point x="111" y="316"/>
      <point x="123" y="298"/>
      <point x="123" y="298" type="curve"/>
      <point x="176" y="350"/>
      <point x="238" y="374"/>
      <point x="293" y="374" type="curve" smooth="yes"/>
      <point x="378" y="374"/>
      <point x="422" y="324"/>
      <point x="422" y="227" type="curve" smooth="yes"/>
      <point x="422" y="104"/>
      <point x="349" y="25"/>
      <point x="265" y="25" type="curve" smooth="yes"/>
      <point x="174" y="25"/>
      <point x="125" y="100"/>
      <point x="125" y="227" type="curve" smooth="yes"/>
      <point x="125" y="460"/>
      <point x="287" y="650"/>
      <point x="544" y="677" type="curve"/>
      <point x="544" y="677"/>
      <point x="543" y="700"/>
      <point x="543" y="700" type="curve"/>
      <point x="264" y="686"/>
      <point x="71" y="474"/>
      <point x="71" y="225" type="curve" smooth="yes"/>
      <point x="71" y="84"/>
      <point x="141" y="-4"/>
    </contour>
  </outline>
</glyph>
<glyph name="cid40790" format="2">
  <advance height="1000" width="521"/>
  <unicode hex="0037"/>
  <outline>
    <contour>
      <point x="93" y="10" type="curve"/>
      <point x="93" y="10"/>
      <point x="145" y="10"/>
      <point x="145" y="10" type="curve"/>
      <point x="145" y="10"/>
      <point x="527" y="652"/>
      <point x="527" y="652" type="curve"/>
      <point x="527" y="652"/>
      <point x="534" y="686"/>
      <point x="534" y="686" type="curve"/>
      <point x="534" y="686"/>
      <point x="136" y="686"/>
      <point x="136" y="686" type="curve"/>
      <point x="136" y="686"/>
      <point x="126" y="635"/>
      <point x="126" y="635" type="curve"/>
      <point x="126" y="635"/>
      <point x="496" y="635"/>
      <point x="496" y="635" type="curve"/>
      <point x="496" y="635"/>
      <point x="496" y="656"/>
      <point x="496" y="656" type="curve"/>
      <point x="496" y="656"/>
      <point x="86" y="18"/>
      <point x="86" y="18" type="curve"/>
      <point x="86" y="18"/>
      <point x="93" y="10"/>
    </contour>
  </outline>
</glyph>
<glyph name="cid40791" format="2">
  <advance height="1000" width="521"/>
  <unicode hex="0038"/>
  <outline>
    <contour>
      <point x="235" y="-2" type="curve" smooth="yes"/>
      <point x="361" y="-2"/>
      <point x="451" y="71"/>
      <point x="451" y="178" type="curve" smooth="yes"/>
      <point x="451" y="258"/>
      <point x="407" y="307"/>
      <point x="307" y="370" type="curve" smooth="yes"/>
      <point x="218" y="426"/>
      <point x="185" y="464"/>
      <point x="185" y="528" type="curve" smooth="yes"/>
      <point x="185" y="616"/>
      <point x="251" y="674"/>
      <point x="332" y="674" type="curve" smooth="yes"/>
      <point x="407" y="674"/>
      <point x="449" y="625"/>
      <point x="449" y="553" type="curve" smooth="yes"/>
      <point x="449" y="475"/>
      <point x="405" y="421"/>
      <point x="289" y="369" type="curve"/>
      <point x="289" y="369"/>
      <point x="302" y="347"/>
      <point x="302" y="347" type="curve"/>
      <point x="302" y="347"/>
      <point x="302" y="352"/>
      <point x="302" y="352" type="curve"/>
      <point x="439" y="407"/>
      <point x="497" y="468"/>
      <point x="497" y="556" type="curve" smooth="yes"/>
      <point x="497" y="640"/>
      <point x="433" y="701"/>
      <point x="335" y="701" type="curve" smooth="yes"/>
      <point x="226" y="701"/>
      <point x="136" y="625"/>
      <point x="136" y="518" type="curve" smooth="yes"/>
      <point x="136" y="450"/>
      <point x="174" y="399"/>
      <point x="262" y="340" type="curve" smooth="yes"/>
      <point x="366" y="271"/>
      <point x="400" y="235"/>
      <point x="400" y="166" type="curve" smooth="yes"/>
      <point x="400" y="81"/>
      <point x="337" y="24"/>
      <point x="240" y="24" type="curve" smooth="yes"/>
      <point x="155" y="24"/>
      <point x="106" y="70"/>
      <point x="106" y="148" type="curve" smooth="yes"/>
      <point x="106" y="230"/>
      <point x="162" y="293"/>
      <point x="276" y="341" type="curve"/>
      <point x="276" y="341"/>
      <point x="263" y="364"/>
      <point x="263" y="364" type="curve"/>
      <point x="263" y="364"/>
      <point x="263" y="356"/>
      <point x="263" y="356" type="curve"/>
      <point x="134" y="310"/>
      <point x="59" y="236"/>
      <point x="59" y="141" type="curve" smooth="yes"/>
      <point x="59" y="52"/>
      <point x="126" y="-2"/>
    </contour>
  </outline>
</glyph>
<glyph name="cid40792" format="2">
  <advance height="1000" width="521"/>
  <unicode hex="0039"/>
  <outline>
    <contour>
      <point x="55" y="21" type="curve"/>
      <point x="55" y="21"/>
      <point x="61" y="-5"/>
      <point x="61" y="-5" type="curve"/>
      <point x="347" y="63"/>
      <point x="508" y="239"/>
      <point x="508" y="478" type="curve" smooth="yes"/>
      <point x="508" y="614"/>
      <point x="443" y="700"/>
      <point x="329" y="700" type="curve" smooth="yes"/>
      <point x="205" y="700"/>
      <point x="106" y="596"/>
      <point x="106" y="467" type="curve" smooth="yes"/>
      <point x="106" y="364"/>
      <point x="173" y="291"/>
      <point x="279" y="291" type="curve" smooth="yes"/>
      <point x="341" y="291"/>
      <point x="399" y="318"/>
      <point x="462" y="370" type="curve"/>
      <point x="462" y="370"/>
      <point x="468" y="370"/>
      <point x="468" y="370" type="curve"/>
      <point x="468" y="370"/>
      <point x="456" y="389"/>
      <point x="456" y="389" type="curve"/>
      <point x="402" y="347"/>
      <point x="350" y="324"/>
      <point x="298" y="324" type="curve" smooth="yes"/>
      <point x="210" y="324"/>
      <point x="158" y="382"/>
      <point x="158" y="475" type="curve" smooth="yes"/>
      <point x="158" y="584"/>
      <point x="232" y="671"/>
      <point x="322" y="671" type="curve" smooth="yes"/>
      <point x="410" y="671"/>
      <point x="454" y="600"/>
      <point x="454" y="477" type="curve" smooth="yes"/>
      <point x="454" y="247"/>
      <point x="319" y="94"/>
    </contour>
  </outline>
</glyph>
<glyph name="cid40896" format="2">
  <advance height="1000" width="300"/>
  <unicode hex="003A"/>
  <outline>
    <contour>
      <point x="108" y="2" type="curve" smooth="yes"/>
      <point x="136" y="2"/>
      <point x="160" y="24"/>
      <point x="160" y="54" type="curve" smooth="yes"/>
      <point x="160" y="77"/>
      <point x="144" y="96"/>
      <point x="118" y="96" type="curve" smooth="yes"/>
      <point x="89" y="96"/>
      <point x="64" y="74"/>
      <point x="64" y="44" type="curve" smooth="yes"/>
      <point x="64" y="21"/>
      <point x="82" y="2"/>
    </contour>
    <contour>
      <point x="174" y="373" type="curve" smooth="yes"/>
      <point x="202" y="373"/>
      <point x="226" y="395"/>
      <point x="226" y="425" type="curve" smooth="yes"/>
      <point x="226" y="448"/>
      <point x="209" y="468"/>
      <point x="183" y="468" type="curve" smooth="yes"/>
      <point x="155" y="468"/>
      <point x="130" y="446"/>
      <point x="130" y="416" type="curve" smooth="yes"/>
      <point x="130" y="393"/>
      <point x="148" y="373"/>
    </contour>
  </outline>
</glyph>
<glyph name="cid41300" format="2">
  <advance height="1000" width="545"/>
  <unicode hex="003C"/>
  <outline>
    <contour>
      <point x="82" y="342" type="line"/>
      <point x="460" y="115" type="line"/>
      <point x="478" y="147" type="line"/>
      <point x="113" y="364" type="line"/>
      <point x="113" y="349" type="line"/>
      <point x="478" y="565" type="line"/>
      <point x="460" y="597" type="line"/>
      <point x="82" y="371" type="line"/>
    </contour>
  </outline>
</glyph>
<glyph name="cid41284" format="2">
  <advance height="1000" width="545"/>
  <unicode hex="003D"/>
  <outline>
    <contour>
      <point x="61" y="235" type="curve"/>
      <point x="61" y="235"/>
      <point x="519" y="235"/>
      <point x="519" y="235" type="curve"/>
      <point x="519" y="235"/>
      <point x="519" y="277"/>
      <point x="519" y="277" type="curve"/>
      <point x="519" y="277"/>
      <point x="61" y="277"/>
      <point x="61" y="277" type="curve"/>
      <point x="61" y="277"/>
      <point x="61" y="235"/>
    </contour>
    <contour>
      <point x="61" y="443" type="curve"/>
      <point x="61" y="443"/>
      <point x="519" y="443"/>
      <point x="519" y="443" type="curve"/>
      <point x="519" y="443"/>
      <point x="519" y="485"/>
      <point x="519" y="485" type="curve"/>
      <point x="519" y="485"/>
      <point x="61" y="485"/>
      <point x="61" y="485" type="curve"/>
      <point x="61" y="485"/>
      <point x="61" y="443"/>
    </contour>
  </outline>
</glyph>
<glyph name="cid41302" format="2">
  <advance height="1000" width="545"/>
  <unicode hex="003E"/>
  <outline>
    <contour>
      <point x="500" y="371" type="curve"/>
      <point x="500" y="371"/>
      <point x="123" y="598"/>
      <point x="123" y="598" type="curve"/>
      <point x="123" y="598"/>
      <point x="104" y="565"/>
      <point x="104" y="565" type="curve"/>
      <point x="104" y="565"/>
      <point x="469" y="349"/>
      <point x="469" y="349" type="curve"/>
      <point x="469" y="349"/>
      <point x="469" y="364"/>
      <point x="469" y="364" type="curve"/>
      <point x="469" y="364"/>
      <point x="104" y="147"/>
      <point x="104" y="147" type="curve"/>
      <point x="104" y="147"/>
      <point x="123" y="116"/>
      <point x="123" y="116" type="curve"/>
      <point x="123" y="116"/>
      <point x="500" y="342"/>
      <point x="500" y="342" type="curve"/>
      <point x="500" y="342"/>
      <point x="500" y="371"/>
    </contour>
  </outline>
</glyph>
<glyph name="cid40905" format="2">
  <advance height="1000" width="426"/>
  <unicode hex="003F"/>
  <outline>
    <contour>
      <point x="107" y="190" type="curve"/>
      <point x="107" y="190"/>
      <point x="132" y="187"/>
      <point x="132" y="187" type="curve"/>
      <point x="141" y="277"/>
      <point x="152" y="301"/>
      <point x="180" y="329" type="curve" smooth="yes"/>
      <point x="198" y="347"/>
      <point x="225" y="368"/>
      <point x="298" y="412" type="curve" smooth="yes"/>
      <point x="415" y="484"/>
      <point x="454" y="524"/>
      <point x="454" y="602" type="curve" smooth="yes"/>
      <point x="454" y="680"/>
      <point x="392" y="724"/>
      <point x="300" y="724" type="curve" smooth="yes"/>
      <point x="206" y="724"/>
      <point x="150" y="677"/>
      <point x="135" y="624" type="curve"/>
      <point x="135" y="606"/>
      <point x="148" y="593"/>
      <point x="164" y="593" type="curve" smooth="yes"/>
      <point x="184" y="593"/>
      <point x="193" y="602"/>
      <point x="203" y="624" type="curve"/>
      <point x="203" y="624"/>
      <point x="239" y="702"/>
      <point x="239" y="702" type="curve"/>
      <point x="239" y="702"/>
      <point x="194" y="672"/>
      <point x="194" y="672" type="curve"/>
      <point x="220" y="689"/>
      <point x="253" y="696"/>
      <point x="293" y="696" type="curve" smooth="yes"/>
      <point x="364" y="696"/>
      <point x="405" y="660"/>
      <point x="405" y="602" type="curve" smooth="yes"/>
      <point x="405" y="551"/>
      <point x="375" y="511"/>
      <point x="279" y="452" type="curve" smooth="yes"/>
      <point x="201" y="404"/>
      <point x="173" y="381"/>
      <point x="154" y="362" type="curve" smooth="yes"/>
      <point x="124" y="329"/>
      <point x="111" y="294"/>
    </contour>
    <contour>
      <point x="60" y="42" type="curve" smooth="yes"/>
      <point x="60" y="18"/>
      <point x="78" y="-1"/>
      <point x="105" y="-1" type="curve" smooth="yes"/>
      <point x="132" y="-1"/>
      <point x="155" y="21"/>
      <point x="155" y="48" type="curve" smooth="yes"/>
      <point x="155" y="73"/>
      <point x="137" y="93"/>
      <point x="110" y="93" type="curve" smooth="yes"/>
      <point x="83" y="93"/>
      <point x="60" y="71"/>
    </contour>
  </outline>
</glyph>
<glyph name="cid41013" format="2">
  <advance height="1000" width="880"/>
  <unicode hex="0040"/>
  <outline>
    <contour>
      <point x="356" y="61" type="curve" smooth="yes"/>
      <point x="425" y="61"/>
      <point x="494" y="134"/>
      <point x="557" y="225" type="curve"/>
      <point x="563" y="225" type="line"/>
      <point x="551" y="237" type="line"/>
      <point x="476" y="147"/>
      <point x="426" y="103"/>
      <point x="376" y="103" type="curve" smooth="yes"/>
      <point x="338" y="103"/>
      <point x="313" y="131"/>
      <point x="313" y="195" type="curve" smooth="yes"/>
      <point x="313" y="329"/>
      <point x="416" y="474"/>
      <point x="520" y="474" type="curve" smooth="yes"/>
      <point x="550" y="474"/>
      <point x="577" y="459"/>
      <point x="597" y="436" type="curve"/>
      <point x="616" y="458" type="line"/>
      <point x="597" y="492"/>
      <point x="571" y="512"/>
      <point x="537" y="512" type="curve" smooth="yes"/>
      <point x="412" y="512"/>
      <point x="264" y="327"/>
      <point x="264" y="174" type="curve" smooth="yes"/>
      <point x="264" y="91"/>
      <point x="309" y="61"/>
    </contour>
    <contour>
      <point x="586" y="61" type="curve" smooth="yes"/>
      <point x="688" y="61"/>
      <point x="852" y="166"/>
      <point x="852" y="386" type="curve" smooth="yes"/>
      <point x="852" y="558"/>
      <point x="747" y="698"/>
      <point x="537" y="698" type="curve" smooth="yes"/>
      <point x="276" y="698"/>
      <point x="52" y="486"/>
      <point x="52" y="185" type="curve" smooth="yes"/>
      <point x="52" y="-20"/>
      <point x="182" y="-151"/>
      <point x="389" y="-151" type="curve" smooth="yes"/>
      <point x="458" y="-151"/>
      <point x="527" y="-137"/>
      <point x="588" y="-106" type="curve"/>
      <point x="580" y="-86" type="line"/>
      <point x="525" y="-109"/>
      <point x="472" y="-120"/>
      <point x="401" y="-120" type="curve" smooth="yes"/>
      <point x="211" y="-120"/>
      <point x="95" y="-4"/>
      <point x="95" y="192" type="curve" smooth="yes"/>
      <point x="95" y="470"/>
      <point x="294" y="670"/>
      <point x="534" y="670" type="curve" smooth="yes"/>
      <point x="709" y="670"/>
      <point x="812" y="553"/>
      <point x="812" y="388" type="curve" smooth="yes"/>
      <point x="812" y="187"/>
      <point x="680" y="95"/>
      <point x="602" y="95" type="curve" smooth="yes"/>
      <point x="566" y="95"/>
      <point x="551" y="116"/>
      <point x="565" y="175" type="curve" smooth="yes"/>
      <point x="636" y="510" type="line"/>
      <point x="626" y="516" type="line"/>
      <point x="582" y="475" type="line"/>
      <point x="519" y="177" type="line" smooth="yes"/>
      <point x="505" y="113"/>
      <point x="520" y="61"/>
    </contour>
  </outline>
</glyph>
<glyph name="cid40007" format="2">
  <advance height="1000" width="603"/>
  <unicode hex="0042"/>
  <outline>
    <contour>
      <point x="4" y="10" type="line"/>
      <point x="132" y="10" type="line"/>
      <point x="138" y="48" type="line"/>
      <point x="128" y="48" type="line"/>
      <point x="10" y="38" type="line"/>
    </contour>
    <contour>
      <point x="101" y="10" type="line"/>
      <point x="162" y="10" type="line"/>
      <point x="179" y="118"/>
      <point x="199" y="226"/>
      <point x="218" y="333" type="curve" smooth="yes"/>
      <point x="289" y="710" type="line"/>
      <point x="228" y="710" type="line"/>
      <point x="210" y="603"/>
      <point x="192" y="495"/>
      <point x="172" y="386" type="curve" smooth="yes"/>
    </contour>
    <contour>
      <point x="121" y="682" type="line"/>
      <point x="242" y="671" type="line"/>
      <point x="255" y="671" type="line"/>
      <point x="262" y="710" type="line"/>
      <point x="126" y="710" type="line"/>
    </contour>
    <contour>
      <point x="126" y="10" type="line"/>
      <point x="271" y="10" type="line" smooth="yes"/>
      <point x="447" y="10"/>
      <point x="549" y="90"/>
      <point x="549" y="217" type="curve" smooth="yes"/>
      <point x="549" y="308"/>
      <point x="474" y="380"/>
      <point x="323" y="381" type="curve"/>
      <point x="317" y="369" type="line"/>
      <point x="474" y="376"/>
      <point x="565" y="456"/>
      <point x="565" y="566" type="curve" smooth="yes"/>
      <point x="565" y="650"/>
      <point x="499" y="710"/>
      <point x="356" y="710" type="curve" smooth="yes"/>
      <point x="256" y="710" type="line"/>
      <point x="251" y="678" type="line"/>
      <point x="342" y="678" type="line" smooth="yes"/>
      <point x="462" y="678"/>
      <point x="508" y="632"/>
      <point x="508" y="557" type="curve" smooth="yes"/>
      <point x="508" y="455"/>
      <point x="435" y="391"/>
      <point x="289" y="391" type="curve" smooth="yes"/>
      <point x="197" y="391" type="line"/>
      <point x="191" y="359" type="line"/>
      <point x="292" y="359" type="line" smooth="yes"/>
      <point x="420" y="359"/>
      <point x="489" y="308"/>
      <point x="489" y="218" type="curve" smooth="yes"/>
      <point x="489" y="108"/>
      <point x="412" y="42"/>
      <point x="268" y="42" type="curve" smooth="yes"/>
      <point x="132" y="42" type="line"/>
    </contour>
  </outline>
</glyph>
<glyph name="cid40009" format="2">
  <advance height="1000" width="614"/>
  <unicode hex="0043"/>
  <outline>
    <contour>
      <point x="340" y="-5" type="curve" smooth="yes"/>
      <point x="414" y="-5"/>
      <point x="471" y="11"/>
      <point x="535" y="44" type="curve"/>
      <point x="565" y="196" type="line"/>
      <point x="526" y="196" type="line"/>
      <point x="475" y="41" type="line"/>
      <point x="515" y="73" type="line"/>
      <point x="463" y="42"/>
      <point x="409" y="29"/>
      <point x="355" y="29" type="curve" smooth="yes"/>
      <point x="217" y="29"/>
      <point x="118" y="122"/>
      <point x="118" y="295" type="curve" smooth="yes"/>
      <point x="118" y="511"/>
      <point x="249" y="691"/>
      <point x="436" y="691" type="curve" smooth="yes"/>
      <point x="499" y="691"/>
      <point x="548" y="677"/>
      <point x="593" y="643" type="curve"/>
      <point x="566" y="676" type="line"/>
      <point x="564" y="523" type="line"/>
      <point x="600" y="523" type="line"/>
      <point x="623" y="670" type="line"/>
      <point x="565" y="709"/>
      <point x="509" y="724"/>
      <point x="442" y="724" type="curve" smooth="yes"/>
      <point x="225" y="724"/>
      <point x="57" y="536"/>
      <point x="57" y="295" type="curve" smooth="yes"/>
      <point x="57" y="112"/>
      <point x="165" y="-5"/>
    </contour>
  </outline>
</glyph>
<glyph name="cid40015" format="2">
  <advance height="1000" width="562"/>
  <unicode hex="0046"/>
  <outline>
    <contour>
      <point x="4" y="10" type="curve"/>
      <point x="4" y="10"/>
      <point x="270" y="10"/>
      <point x="270" y="10" type="curve"/>
      <point x="270" y="10"/>
      <point x="276" y="38"/>
      <point x="276" y="38" type="curve"/>
      <point x="276" y="38"/>
      <point x="149" y="48"/>
      <point x="149" y="48" type="curve"/>
      <point x="149" y="48"/>
      <point x="130" y="48"/>
      <point x="130" y="48" type="curve"/>
      <point x="130" y="48"/>
      <point x="10" y="38"/>
      <point x="10" y="38" type="curve"/>
      <point x="10" y="38"/>
      <point x="4" y="10"/>
    </contour>
    <contour>
      <point x="101" y="10" type="curve"/>
      <point x="101" y="10"/>
      <point x="162" y="10"/>
      <point x="162" y="10" type="curve"/>
      <point x="179" y="118"/>
      <point x="199" y="226"/>
      <point x="218" y="333" type="curve"/>
      <point x="218" y="333"/>
      <point x="289" y="710"/>
      <point x="289" y="710" type="curve"/>
      <point x="289" y="710"/>
      <point x="228" y="710"/>
      <point x="228" y="710" type="curve"/>
      <point x="210" y="603"/>
      <point x="192" y="495"/>
      <point x="172" y="386" type="curve"/>
      <point x="172" y="386"/>
      <point x="101" y="10"/>
    </contour>
    <contour>
      <point x="121" y="682" type="curve"/>
      <point x="121" y="682"/>
      <point x="242" y="671"/>
      <point x="242" y="671" type="curve"/>
      <point x="242" y="671"/>
      <point x="255" y="671"/>
      <point x="255" y="671" type="curve"/>
      <point x="255" y="671"/>
      <point x="262" y="710"/>
      <point x="262" y="710" type="curve"/>
      <point x="262" y="710"/>
      <point x="126" y="710"/>
      <point x="126" y="710" type="curve"/>
      <point x="126" y="710"/>
      <point x="121" y="682"/>
    </contour>
    <contour>
      <point x="193" y="350" type="curve"/>
      <point x="193" y="350"/>
      <point x="418" y="350"/>
      <point x="418" y="350" type="curve"/>
      <point x="418" y="350"/>
      <point x="424" y="382"/>
      <point x="424" y="382" type="curve"/>
      <point x="424" y="382"/>
      <point x="200" y="382"/>
      <point x="200" y="382" type="curve"/>
      <point x="200" y="382"/>
      <point x="193" y="350"/>
    </contour>
    <contour>
      <point x="253" y="676" type="curve"/>
      <point x="253" y="676"/>
      <point x="575" y="676"/>
      <point x="575" y="676" type="curve"/>
      <point x="575" y="676"/>
      <point x="551" y="708"/>
      <point x="551" y="708" type="curve"/>
      <point x="551" y="708"/>
      <point x="549" y="536"/>
      <point x="549" y="536" type="curve"/>
      <point x="549" y="536"/>
      <point x="582" y="536"/>
      <point x="582" y="536" type="curve"/>
      <point x="582" y="536"/>
      <point x="606" y="710"/>
      <point x="606" y="710" type="curve"/>
      <point x="606" y="710"/>
      <point x="259" y="710"/>
      <point x="259" y="710" type="curve"/>
      <point x="259" y="710"/>
      <point x="253" y="676"/>
    </contour>
    <contour>
      <point x="395" y="245" type="curve"/>
      <point x="395" y="245"/>
      <point x="423" y="245"/>
      <point x="423" y="245" type="curve"/>
      <point x="423" y="245"/>
      <point x="467" y="483"/>
      <point x="467" y="483" type="curve"/>
      <point x="467" y="483"/>
      <point x="439" y="483"/>
      <point x="439" y="483" type="curve"/>
      <point x="439" y="483"/>
      <point x="404" y="377"/>
      <point x="404" y="377" type="curve"/>
      <point x="404" y="377"/>
      <point x="400" y="357"/>
      <point x="400" y="357" type="curve"/>
      <point x="400" y="357"/>
      <point x="395" y="245"/>
    </contour>
  </outline>
</glyph>
<glyph name="cid40021" format="2">
  <advance height="1000" width="350"/>
  <unicode hex="0049"/>
  <outline>
    <contour>
      <point x="4" y="10" type="line"/>
      <point x="264" y="10" type="line"/>
      <point x="270" y="38" type="line"/>
      <point x="148" y="48" type="line"/>
      <point x="130" y="48" type="line"/>
      <point x="10" y="38" type="line"/>
    </contour>
    <contour>
      <point x="101" y="10" type="line"/>
      <point x="162" y="10" type="line"/>
      <point x="179" y="118"/>
      <point x="199" y="226"/>
      <point x="218" y="333" type="curve" smooth="yes"/>
      <point x="289" y="710" type="line"/>
      <point x="228" y="710" type="line"/>
      <point x="210" y="603"/>
      <point x="192" y="494"/>
      <point x="172" y="386" type="curve" smooth="yes"/>
    </contour>
    <contour>
      <point x="121" y="682" type="line"/>
      <point x="242" y="671" type="line"/>
      <point x="261" y="671" type="line"/>
      <point x="381" y="682" type="line"/>
      <point x="386" y="710" type="line"/>
      <point x="126" y="710" type="line"/>
    </contour>
  </outline>
</glyph>
<glyph name="cid40025" format="2">
  <advance height="1000" width="674"/>
  <unicode hex="004B"/>
  <outline>
    <contour>
      <point x="4" y="10" type="curve"/>
      <point x="4" y="10"/>
      <point x="263" y="10"/>
      <point x="263" y="10" type="curve"/>
      <point x="263" y="10"/>
      <point x="269" y="38"/>
      <point x="269" y="38" type="curve"/>
      <point x="269" y="38"/>
      <point x="148" y="48"/>
      <point x="148" y="48" type="curve"/>
      <point x="148" y="48"/>
      <point x="131" y="48"/>
      <point x="131" y="48" type="curve"/>
      <point x="131" y="48"/>
      <point x="9" y="38"/>
      <point x="9" y="38" type="curve"/>
      <point x="9" y="38"/>
      <point x="4" y="10"/>
    </contour>
    <contour>
      <point x="101" y="10" type="curve"/>
      <point x="101" y="10"/>
      <point x="162" y="10"/>
      <point x="162" y="10" type="curve"/>
      <point x="179" y="118"/>
      <point x="199" y="226"/>
      <point x="218" y="333" type="curve"/>
      <point x="218" y="333"/>
      <point x="289" y="710"/>
      <point x="289" y="710" type="curve"/>
      <point x="289" y="710"/>
      <point x="228" y="710"/>
      <point x="228" y="710" type="curve"/>
      <point x="210" y="603"/>
      <point x="192" y="495"/>
      <point x="172" y="386" type="curve"/>
      <point x="172" y="386"/>
      <point x="101" y="10"/>
    </contour>
    <contour>
      <point x="121" y="682" type="curve"/>
      <point x="121" y="682"/>
      <point x="242" y="671"/>
      <point x="242" y="671" type="curve"/>
      <point x="242" y="671"/>
      <point x="260" y="671"/>
      <point x="260" y="671" type="curve"/>
      <point x="260" y="671"/>
      <point x="381" y="682"/>
      <point x="381" y="682" type="curve"/>
      <point x="381" y="682"/>
      <point x="386" y="710"/>
      <point x="386" y="710" type="curve"/>
      <point x="386" y="710"/>
      <point x="126" y="710"/>
      <point x="126" y="710" type="curve"/>
      <point x="126" y="710"/>
      <point x="121" y="682"/>
    </contour>
    <contour>
      <point x="171" y="244" type="curve"/>
      <point x="171" y="244"/>
      <point x="666" y="710"/>
      <point x="666" y="710" type="curve"/>
      <point x="666" y="710"/>
      <point x="623" y="710"/>
      <point x="623" y="710" type="curve"/>
      <point x="623" y="710"/>
      <point x="196" y="306"/>
      <point x="196" y="306" type="curve"/>
      <point x="196" y="306"/>
      <point x="179" y="291"/>
      <point x="179" y="291" type="curve"/>
      <point x="179" y="291"/>
      <point x="171" y="291"/>
      <point x="171" y="291" type="curve"/>
      <point x="171" y="291"/>
      <point x="171" y="244"/>
    </contour>
    <contour>
      <point x="513" y="10" type="curve"/>
      <point x="513" y="10"/>
      <point x="575" y="10"/>
      <point x="575" y="10" type="curve"/>
      <point x="575" y="10"/>
      <point x="356" y="436"/>
      <point x="356" y="436" type="curve"/>
      <point x="356" y="436"/>
      <point x="314" y="396"/>
      <point x="314" y="396" type="curve"/>
      <point x="314" y="396"/>
      <point x="513" y="10"/>
    </contour>
    <contour>
      <point x="400" y="10" type="curve"/>
      <point x="400" y="10"/>
      <point x="641" y="10"/>
      <point x="641" y="10" type="curve"/>
      <point x="641" y="10"/>
      <point x="645" y="38"/>
      <point x="645" y="38" type="curve"/>
      <point x="645" y="38"/>
      <point x="539" y="48"/>
      <point x="539" y="48" type="curve"/>
      <point x="539" y="48"/>
      <point x="521" y="48"/>
      <point x="521" y="48" type="curve"/>
      <point x="521" y="48"/>
      <point x="405" y="38"/>
      <point x="405" y="38" type="curve"/>
      <point x="405" y="38"/>
      <point x="400" y="10"/>
    </contour>
    <contour>
      <point x="489" y="682" type="curve"/>
      <point x="489" y="682"/>
      <point x="598" y="671"/>
      <point x="598" y="671" type="curve"/>
      <point x="598" y="671"/>
      <point x="616" y="671"/>
      <point x="616" y="671" type="curve"/>
      <point x="616" y="671"/>
      <point x="718" y="682"/>
      <point x="718" y="682" type="curve"/>
      <point x="718" y="682"/>
      <point x="723" y="710"/>
      <point x="723" y="710" type="curve"/>
      <point x="723" y="710"/>
      <point x="495" y="710"/>
      <point x="495" y="710" type="curve"/>
      <point x="495" y="710"/>
      <point x="489" y="682"/>
    </contour>
  </outline>
</glyph>
<glyph name="cid40027" format="2">
  <advance height="1000" width="567"/>
  <unicode hex="004C"/>
  <outline>
    <contour>
      <point x="4" y="10" type="curve"/>
      <point x="4" y="10"/>
      <point x="132" y="10"/>
      <point x="132" y="10" type="curve"/>
      <point x="132" y="10"/>
      <point x="138" y="48"/>
      <point x="138" y="48" type="curve"/>
      <point x="138" y="48"/>
      <point x="128" y="48"/>
      <point x="128" y="48" type="curve"/>
      <point x="128" y="48"/>
      <point x="10" y="38"/>
      <point x="10" y="38" type="curve"/>
      <point x="10" y="38"/>
      <point x="4" y="10"/>
    </contour>
    <contour>
      <point x="101" y="10" type="curve"/>
      <point x="101" y="10"/>
      <point x="162" y="10"/>
      <point x="162" y="10" type="curve"/>
      <point x="179" y="118"/>
      <point x="199" y="226"/>
      <point x="218" y="333" type="curve"/>
      <point x="218" y="333"/>
      <point x="289" y="710"/>
      <point x="289" y="710" type="curve"/>
      <point x="289" y="710"/>
      <point x="228" y="710"/>
      <point x="228" y="710" type="curve"/>
      <point x="210" y="603"/>
      <point x="192" y="495"/>
      <point x="172" y="386" type="curve"/>
      <point x="172" y="386"/>
      <point x="101" y="10"/>
    </contour>
    <contour>
      <point x="121" y="682" type="curve"/>
      <point x="121" y="682"/>
      <point x="242" y="671"/>
      <point x="242" y="671" type="curve"/>
      <point x="242" y="671"/>
      <point x="265" y="671"/>
      <point x="265" y="671" type="curve"/>
      <point x="265" y="671"/>
      <point x="385" y="682"/>
      <point x="385" y="682" type="curve"/>
      <point x="385" y="682"/>
      <point x="390" y="710"/>
      <point x="390" y="710" type="curve"/>
      <point x="390" y="710"/>
      <point x="126" y="710"/>
      <point x="126" y="710" type="curve"/>
      <point x="126" y="710"/>
      <point x="121" y="682"/>
    </contour>
    <contour>
      <point x="129" y="10" type="curve"/>
      <point x="129" y="10"/>
      <point x="496" y="10"/>
      <point x="496" y="10" type="curve"/>
      <point x="496" y="10"/>
      <point x="537" y="193"/>
      <point x="537" y="193" type="curve"/>
      <point x="537" y="193"/>
      <point x="500" y="193"/>
      <point x="500" y="193" type="curve"/>
      <point x="500" y="193"/>
      <point x="438" y="12"/>
      <point x="438" y="12" type="curve"/>
      <point x="438" y="12"/>
      <point x="477" y="43"/>
      <point x="477" y="43" type="curve"/>
      <point x="477" y="43"/>
      <point x="135" y="43"/>
      <point x="135" y="43" type="curve"/>
      <point x="135" y="43"/>
      <point x="129" y="10"/>
    </contour>
  </outline>
</glyph>
<glyph name="cid40041" format="2">
  <advance height="1000" width="567"/>
  <unicode hex="0050"/>
  <outline>
    <contour>
      <point x="4" y="10" type="line"/>
      <point x="270" y="10" type="line"/>
      <point x="276" y="38" type="line"/>
      <point x="149" y="48" type="line"/>
      <point x="130" y="48" type="line"/>
      <point x="10" y="38" type="line"/>
    </contour>
    <contour>
      <point x="101" y="10" type="line"/>
      <point x="162" y="10" type="line"/>
      <point x="179" y="118"/>
      <point x="199" y="226"/>
      <point x="218" y="334" type="curve" smooth="yes"/>
      <point x="289" y="710" type="line"/>
      <point x="228" y="710" type="line"/>
      <point x="210" y="603"/>
      <point x="192" y="495"/>
      <point x="172" y="386" type="curve" smooth="yes"/>
    </contour>
    <contour>
      <point x="121" y="682" type="line"/>
      <point x="242" y="671" type="line"/>
      <point x="256" y="671" type="line"/>
      <point x="263" y="710" type="line"/>
      <point x="126" y="710" type="line"/>
    </contour>
    <contour>
      <point x="178" y="297" type="line"/>
      <point x="295" y="297" type="line" smooth="yes"/>
      <point x="477" y="297"/>
      <point x="578" y="397"/>
      <point x="578" y="529" type="curve" smooth="yes"/>
      <point x="578" y="641"/>
      <point x="505" y="710"/>
      <point x="354" y="710" type="curve" smooth="yes"/>
      <point x="257" y="710" type="line"/>
      <point x="251" y="678" type="line"/>
      <point x="344" y="678" type="line" smooth="yes"/>
      <point x="463" y="678"/>
      <point x="517" y="625"/>
      <point x="517" y="525" type="curve" smooth="yes"/>
      <point x="517" y="412"/>
      <point x="445" y="328"/>
      <point x="290" y="328" type="curve" smooth="yes"/>
      <point x="184" y="328" type="line"/>
    </contour>
  </outline>
</glyph>
<glyph name="cid40044" format="2">
  <advance height="1000" width="649"/>
  <unicode hex="0052"/>
  <outline>
    <contour>
      <point x="4" y="10" type="curve"/>
      <point x="4" y="10"/>
      <point x="268" y="10"/>
      <point x="268" y="10" type="curve"/>
      <point x="268" y="10"/>
      <point x="275" y="38"/>
      <point x="275" y="38" type="curve"/>
      <point x="275" y="38"/>
      <point x="148" y="48"/>
      <point x="148" y="48" type="curve"/>
      <point x="148" y="48"/>
      <point x="130" y="48"/>
      <point x="130" y="48" type="curve"/>
      <point x="130" y="48"/>
      <point x="10" y="38"/>
      <point x="10" y="38" type="curve"/>
      <point x="10" y="38"/>
      <point x="4" y="10"/>
    </contour>
    <contour>
      <point x="101" y="10" type="curve"/>
      <point x="101" y="10"/>
      <point x="162" y="10"/>
      <point x="162" y="10" type="curve"/>
      <point x="179" y="118"/>
      <point x="199" y="227"/>
      <point x="218" y="337" type="curve"/>
      <point x="218" y="337"/>
      <point x="289" y="710"/>
      <point x="289" y="710" type="curve"/>
      <point x="289" y="710"/>
      <point x="228" y="710"/>
      <point x="228" y="710" type="curve"/>
      <point x="210" y="603"/>
      <point x="192" y="494"/>
      <point x="172" y="386" type="curve"/>
      <point x="172" y="386"/>
      <point x="101" y="10"/>
    </contour>
    <contour>
      <point x="121" y="682" type="curve"/>
      <point x="121" y="682"/>
      <point x="242" y="671"/>
      <point x="242" y="671" type="curve"/>
      <point x="242" y="671"/>
      <point x="255" y="671"/>
      <point x="255" y="671" type="curve"/>
      <point x="255" y="671"/>
      <point x="261" y="710"/>
      <point x="261" y="710" type="curve"/>
      <point x="261" y="710"/>
      <point x="126" y="710"/>
      <point x="126" y="710" type="curve"/>
      <point x="126" y="710"/>
      <point x="121" y="682"/>
    </contour>
    <contour>
      <point x="548" y="3" type="curve" smooth="yes"/>
      <point x="581" y="3"/>
      <point x="603" y="7"/>
      <point x="623" y="10" type="curve"/>
      <point x="623" y="10"/>
      <point x="628" y="37"/>
      <point x="628" y="37" type="curve"/>
      <point x="628" y="37"/>
      <point x="491" y="50"/>
      <point x="491" y="50" type="curve"/>
      <point x="491" y="50"/>
      <point x="532" y="32"/>
      <point x="532" y="32" type="curve"/>
      <point x="532" y="32"/>
      <point x="454" y="229"/>
      <point x="454" y="229" type="curve"/>
      <point x="423" y="311"/>
      <point x="400" y="340"/>
      <point x="335" y="349" type="curve"/>
      <point x="335" y="349"/>
      <point x="343" y="338"/>
      <point x="343" y="338" type="curve"/>
      <point x="494" y="346"/>
      <point x="581" y="436"/>
      <point x="581" y="547" type="curve" smooth="yes"/>
      <point x="581" y="652"/>
      <point x="506" y="710"/>
      <point x="372" y="710" type="curve"/>
      <point x="372" y="710"/>
      <point x="259" y="710"/>
      <point x="259" y="710" type="curve"/>
      <point x="259" y="710"/>
      <point x="253" y="678"/>
      <point x="253" y="678" type="curve"/>
      <point x="253" y="678"/>
      <point x="362" y="678"/>
      <point x="362" y="678" type="curve"/>
      <point x="474" y="678"/>
      <point x="522" y="629"/>
      <point x="522" y="546" type="curve" smooth="yes"/>
      <point x="522" y="444"/>
      <point x="449" y="367"/>
      <point x="326" y="367" type="curve"/>
      <point x="326" y="367"/>
      <point x="196" y="367"/>
      <point x="196" y="367" type="curve"/>
      <point x="196" y="367"/>
      <point x="189" y="336"/>
      <point x="189" y="336" type="curve"/>
      <point x="189" y="336"/>
      <point x="279" y="336"/>
      <point x="279" y="336" type="curve"/>
      <point x="346" y="336"/>
      <point x="365" y="318"/>
      <point x="397" y="232" type="curve"/>
      <point x="397" y="232"/>
      <point x="463" y="58"/>
      <point x="463" y="58" type="curve"/>
      <point x="477" y="15"/>
      <point x="498" y="3"/>
    </contour>
  </outline>
</glyph>
<glyph name="cid40047" format="2">
  <advance height="1000" width="607"/>
  <unicode hex="0054"/>
  <outline>
    <contour>
      <point x="78" y="530" type="curve"/>
      <point x="78" y="530"/>
      <point x="112" y="530"/>
      <point x="112" y="530" type="curve"/>
      <point x="112" y="530"/>
      <point x="175" y="708"/>
      <point x="175" y="708" type="curve"/>
      <point x="175" y="708"/>
      <point x="139" y="676"/>
      <point x="139" y="676" type="curve"/>
      <point x="139" y="676"/>
      <point x="627" y="676"/>
      <point x="627" y="676" type="curve"/>
      <point x="627" y="676"/>
      <point x="603" y="708"/>
      <point x="603" y="708" type="curve"/>
      <point x="603" y="708"/>
      <point x="601" y="530"/>
      <point x="601" y="530" type="curve"/>
      <point x="601" y="530"/>
      <point x="634" y="530"/>
      <point x="634" y="530" type="curve"/>
      <point x="634" y="530"/>
      <point x="659" y="710"/>
      <point x="659" y="710" type="curve"/>
      <point x="659" y="710"/>
      <point x="119" y="710"/>
      <point x="119" y="710" type="curve"/>
      <point x="119" y="710"/>
      <point x="78" y="530"/>
    </contour>
    <contour>
      <point x="127" y="10" type="curve"/>
      <point x="127" y="10"/>
      <point x="402" y="10"/>
      <point x="402" y="10" type="curve"/>
      <point x="402" y="10"/>
      <point x="408" y="38"/>
      <point x="408" y="38" type="curve"/>
      <point x="408" y="38"/>
      <point x="278" y="48"/>
      <point x="278" y="48" type="curve"/>
      <point x="278" y="48"/>
      <point x="260" y="48"/>
      <point x="260" y="48" type="curve"/>
      <point x="260" y="48"/>
      <point x="132" y="38"/>
      <point x="132" y="38" type="curve"/>
      <point x="132" y="38"/>
      <point x="127" y="10"/>
    </contour>
    <contour>
      <point x="231" y="10" type="curve"/>
      <point x="231" y="10"/>
      <point x="292" y="10"/>
      <point x="292" y="10" type="curve"/>
      <point x="309" y="118"/>
      <point x="328" y="226"/>
      <point x="347" y="333" type="curve"/>
      <point x="347" y="333"/>
      <point x="418" y="710"/>
      <point x="418" y="710" type="curve"/>
      <point x="418" y="710"/>
      <point x="357" y="710"/>
      <point x="357" y="710" type="curve"/>
      <point x="340" y="603"/>
      <point x="321" y="495"/>
      <point x="302" y="386" type="curve"/>
      <point x="302" y="386"/>
      <point x="231" y="10"/>
    </contour>
  </outline>
</glyph>
<glyph name="cid40050" format="2">
  <advance height="1000" width="630"/>
  <unicode hex="0056"/>
  <outline>
    <contour>
      <point x="66" y="682" type="line"/>
      <point x="177" y="671" type="line"/>
      <point x="194" y="671" type="line"/>
      <point x="319" y="682" type="line"/>
      <point x="324" y="710" type="line"/>
      <point x="71" y="710" type="line"/>
    </contour>
    <contour>
      <point x="256" y="1" type="line"/>
      <point x="284" y="1" type="line"/>
      <point x="655" y="710" type="line"/>
      <point x="617" y="710" type="line"/>
      <point x="288" y="76" type="line"/>
      <point x="281" y="61" type="line"/>
      <point x="300" y="61" type="line"/>
      <point x="207" y="710" type="line"/>
      <point x="147" y="710" type="line"/>
    </contour>
    <contour>
      <point x="499" y="682" type="line"/>
      <point x="608" y="671" type="line"/>
      <point x="626" y="671" type="line"/>
      <point x="726" y="682" type="line"/>
      <point x="731" y="710" type="line"/>
      <point x="503" y="710" type="line"/>
    </contour>
  </outline>
</glyph>
<glyph name="cid40056" format="2">
  <advance height="1000" width="912"/>
  <unicode hex="0057"/>
  <outline>
    <contour>
      <point x="176" y="671" type="line"/>
      <point x="193" y="671" type="line"/>
      <point x="313" y="682" type="line"/>
      <point x="318" y="710" type="line"/>
      <point x="70" y="710" type="line"/>
      <point x="64" y="682" type="line"/>
    </contour>
    <contour>
      <point x="205" y="1" type="line"/>
      <point x="234" y="1" type="line"/>
      <point x="525" y="625" type="line"/>
      <point x="531" y="638" type="line"/>
      <point x="513" y="638" type="line"/>
      <point x="589" y="1" type="line"/>
      <point x="617" y="1" type="line"/>
      <point x="930" y="710" type="line"/>
      <point x="892" y="710" type="line"/>
      <point x="621" y="84" type="line"/>
      <point x="615" y="69" type="line"/>
      <point x="631" y="69" type="line"/>
      <point x="560" y="710" type="line"/>
      <point x="530" y="710" type="line"/>
      <point x="240" y="86" type="line"/>
      <point x="233" y="70" type="line"/>
      <point x="251" y="70" type="line"/>
      <point x="208" y="710" type="line"/>
      <point x="148" y="710" type="line"/>
    </contour>
    <contour>
      <point x="528" y="671" type="line"/>
      <point x="545" y="671" type="line"/>
      <point x="662" y="682" type="line"/>
      <point x="668" y="710" type="line"/>
      <point x="422" y="710" type="line"/>
      <point x="417" y="682" type="line"/>
    </contour>
    <contour>
      <point x="885" y="671" type="line"/>
      <point x="901" y="671" type="line"/>
      <point x="1007" y="682" type="line"/>
      <point x="1012" y="710" type="line"/>
      <point x="784" y="710" type="line"/>
      <point x="779" y="682" type="line"/>
    </contour>
  </outline>
</glyph>
<glyph name="cid40060" format="2">
  <advance height="1000" width="556"/>
  <unicode hex="005A"/>
  <outline>
    <contour>
      <point x="-7" y="10" type="line"/>
      <point x="486" y="10" type="line"/>
      <point x="526" y="189" type="line"/>
      <point x="490" y="189" type="line"/>
      <point x="431" y="25" type="line"/>
      <point x="459" y="43" type="line"/>
      <point x="258" y="43" type="line"/>
      <point x="62" y="43" type="line"/>
      <point x="63" y="54" type="line"/>
      <point x="52" y="26" type="line"/>
      <point x="587" y="684" type="line"/>
      <point x="592" y="710" type="line"/>
      <point x="125" y="710" type="line"/>
      <point x="86" y="532" type="line"/>
      <point x="122" y="532" type="line"/>
      <point x="180" y="696" type="line"/>
      <point x="150" y="677" type="line"/>
      <point x="344" y="677" type="line"/>
      <point x="521" y="677" type="line"/>
      <point x="519" y="665" type="line"/>
      <point x="531" y="694" type="line"/>
      <point x="-3" y="36" type="line"/>
    </contour>
  </outline>
</glyph>
<glyph name="cid40952" format="2">
  <advance height="1000" width="315"/>
  <unicode hex="005B"/>
  <outline>
    <contour>
      <point x="30" y="-155" type="line"/>
      <point x="82" y="-155" type="line"/>
      <point x="99" y="-50"/>
      <point x="121" y="65"/>
      <point x="141" y="174" type="curve" smooth="yes"/>
      <point x="251" y="754" type="line"/>
      <point x="199" y="754" type="line"/>
      <point x="182" y="649"/>
      <point x="160" y="534"/>
      <point x="139" y="425" type="curve" smooth="yes"/>
    </contour>
    <contour>
      <point x="57" y="-155" type="line"/>
      <point x="198" y="-155" type="line"/>
      <point x="203" y="-127" type="line"/>
      <point x="78" y="-116" type="line"/>
      <point x="64" y="-116" type="line"/>
    </contour>
    <contour>
      <point x="222" y="714" type="line"/>
      <point x="234" y="714" type="line"/>
      <point x="364" y="726" type="line"/>
      <point x="369" y="754" type="line"/>
      <point x="229" y="754" type="line"/>
    </contour>
  </outline>
</glyph>
<glyph name="cid40991" format="2">
  <advance height="1000" width="308"/>
  <unicode hex="005C"/>
  <outline>
    <contour>
      <point x="237" y="-156" type="curve"/>
      <point x="237" y="-156"/>
      <point x="144" y="748"/>
      <point x="144" y="748" type="curve"/>
      <point x="144" y="748"/>
      <point x="104" y="748"/>
      <point x="104" y="748" type="curve"/>
      <point x="104" y="748"/>
      <point x="198" y="-156"/>
      <point x="198" y="-156" type="curve"/>
      <point x="198" y="-156"/>
      <point x="237" y="-156"/>
    </contour>
  </outline>
</glyph>
<glyph name="cid40954" format="2">
  <advance height="1000" width="315"/>
  <unicode hex="005D"/>
  <outline>
    <contour>
      <point x="298" y="754" type="curve"/>
      <point x="298" y="754"/>
      <point x="246" y="754"/>
      <point x="246" y="754" type="curve"/>
      <point x="230" y="649"/>
      <point x="208" y="533"/>
      <point x="187" y="424" type="curve"/>
      <point x="187" y="424"/>
      <point x="78" y="-155"/>
      <point x="78" y="-155" type="curve"/>
      <point x="78" y="-155"/>
      <point x="130" y="-155"/>
      <point x="130" y="-155" type="curve"/>
      <point x="147" y="-50"/>
      <point x="168" y="64"/>
      <point x="189" y="173" type="curve"/>
      <point x="189" y="173"/>
      <point x="298" y="754"/>
    </contour>
    <contour>
      <point x="271" y="754" type="curve"/>
      <point x="271" y="754"/>
      <point x="131" y="754"/>
      <point x="131" y="754" type="curve"/>
      <point x="131" y="754"/>
      <point x="126" y="726"/>
      <point x="126" y="726" type="curve"/>
      <point x="126" y="726"/>
      <point x="251" y="714"/>
      <point x="251" y="714" type="curve"/>
      <point x="251" y="714"/>
      <point x="264" y="714"/>
      <point x="264" y="714" type="curve"/>
      <point x="264" y="714"/>
      <point x="271" y="754"/>
    </contour>
    <contour>
      <point x="107" y="-116" type="curve"/>
      <point x="107" y="-116"/>
      <point x="95" y="-116"/>
      <point x="95" y="-116" type="curve"/>
      <point x="95" y="-116"/>
      <point x="-35" y="-127"/>
      <point x="-35" y="-127" type="curve"/>
      <point x="-35" y="-127"/>
      <point x="-41" y="-155"/>
      <point x="-41" y="-155" type="curve"/>
      <point x="-41" y="-155"/>
      <point x="100" y="-155"/>
      <point x="100" y="-155" type="curve"/>
      <point x="100" y="-155"/>
      <point x="107" y="-116"/>
    </contour>
  </outline>
</glyph>
<glyph name="cid41316" format="2">
  <advance height="1000" width="544"/>
  <unicode hex="005E"/>
  <outline>
    <contour>
      <point x="103" y="252" type="curve"/>
      <point x="103" y="252"/>
      <point x="134" y="230"/>
      <point x="134" y="230" type="curve"/>
      <point x="134" y="230"/>
      <point x="298" y="496"/>
      <point x="298" y="496" type="curve"/>
      <point x="298" y="496"/>
      <point x="269" y="496"/>
      <point x="269" y="496" type="curve"/>
      <point x="269" y="496"/>
      <point x="439" y="230"/>
      <point x="439" y="230" type="curve"/>
      <point x="439" y="230"/>
      <point x="470" y="252"/>
      <point x="470" y="252" type="curve"/>
      <point x="470" y="252"/>
      <point x="304" y="518"/>
      <point x="304" y="518" type="curve"/>
      <point x="304" y="518"/>
      <point x="265" y="518"/>
      <point x="265" y="518" type="curve"/>
      <point x="265" y="518"/>
      <point x="103" y="252"/>
    </contour>
  </outline>
</glyph>
<glyph name="cid40947" format="2">
  <advance height="1000" width="523"/>
  <unicode hex="005F"/>
  <outline>
    <contour>
      <point x="-70" y="-32" type="line"/>
      <point x="475" y="-32" type="line"/>
      <point x="475" y="12" type="line"/>
      <point x="-70" y="12" type="line"/>
    </contour>
  </outline>
</glyph>
<glyph name="cid41459" format="2">
  <advance height="1000" width="416"/>
  <unicode hex="0060"/>
  <outline>
    <contour>
      <point x="361" y="577" type="line"/>
      <point x="339" y="632"/>
      <point x="313" y="693"/>
      <point x="292" y="742" type="curve" smooth="yes"/>
      <point x="279" y="774"/>
      <point x="269" y="785"/>
      <point x="251" y="785" type="curve" smooth="yes"/>
      <point x="235" y="785"/>
      <point x="223" y="774"/>
      <point x="223" y="759" type="curve" smooth="yes"/>
      <point x="223" y="745"/>
      <point x="230" y="736"/>
      <point x="244" y="714" type="curve" smooth="yes"/>
      <point x="275" y="669"/>
      <point x="310" y="616"/>
      <point x="343" y="567" type="curve"/>
    </contour>
  </outline>
</glyph>
<glyph name="cid40064" format="2">
  <advance height="1000" width="506"/>
  <unicode hex="0062"/>
  <outline>
    <contour>
      <point x="162" y="-4" type="curve" smooth="yes"/>
      <point x="318" y="-4"/>
      <point x="482" y="209"/>
      <point x="482" y="383" type="curve" smooth="yes"/>
      <point x="482" y="477"/>
      <point x="438" y="510"/>
      <point x="386" y="510" type="curve" smooth="yes"/>
      <point x="307" y="510"/>
      <point x="204" y="428"/>
      <point x="138" y="317" type="curve"/>
      <point x="138" y="317"/>
      <point x="134" y="317"/>
      <point x="134" y="317" type="curve"/>
      <point x="134" y="317"/>
      <point x="146" y="312"/>
      <point x="146" y="312" type="curve"/>
      <point x="228" y="406"/>
      <point x="300" y="464"/>
      <point x="361" y="464" type="curve" smooth="yes"/>
      <point x="404" y="464"/>
      <point x="428" y="432"/>
      <point x="428" y="360" type="curve" smooth="yes"/>
      <point x="428" y="269"/>
      <point x="386" y="165"/>
      <point x="322" y="102" type="curve" smooth="yes"/>
      <point x="277" y="58"/>
      <point x="230" y="39"/>
      <point x="187" y="39" type="curve" smooth="yes"/>
      <point x="141" y="39"/>
      <point x="123" y="66"/>
      <point x="123" y="107" type="curve" smooth="yes"/>
      <point x="123" y="148"/>
      <point x="130" y="176"/>
      <point x="144" y="241" type="curve"/>
      <point x="144" y="241"/>
      <point x="165" y="343"/>
      <point x="165" y="343" type="curve"/>
      <point x="165" y="343"/>
      <point x="168" y="355"/>
      <point x="168" y="355" type="curve"/>
      <point x="168" y="355"/>
      <point x="256" y="775"/>
      <point x="256" y="775" type="curve"/>
      <point x="256" y="775"/>
      <point x="245" y="784"/>
      <point x="245" y="784" type="curve"/>
      <point x="245" y="784"/>
      <point x="86" y="753"/>
      <point x="86" y="753" type="curve"/>
      <point x="86" y="753"/>
      <point x="82" y="732"/>
      <point x="82" y="732" type="curve"/>
      <point x="82" y="732"/>
      <point x="207" y="726"/>
      <point x="207" y="726" type="curve"/>
      <point x="207" y="726"/>
      <point x="199" y="739"/>
      <point x="199" y="739" type="curve"/>
      <point x="199" y="739"/>
      <point x="94" y="234"/>
      <point x="94" y="234" type="curve"/>
      <point x="83" y="181"/>
      <point x="71" y="134"/>
      <point x="71" y="91" type="curve" smooth="yes"/>
      <point x="71" y="33"/>
      <point x="105" y="-4"/>
    </contour>
  </outline>
</glyph>
<glyph name="cid40065" format="2">
  <advance height="1000" width="417"/>
  <unicode hex="0063"/>
  <outline>
    <contour>
      <point x="203" y="-4" type="curve" smooth="yes"/>
      <point x="275" y="-4"/>
      <point x="338" y="44"/>
      <point x="381" y="114" type="curve"/>
      <point x="364" y="126" type="line"/>
      <point x="329" y="81"/>
      <point x="282" y="42"/>
      <point x="225" y="42" type="curve" smooth="yes"/>
      <point x="152" y="42"/>
      <point x="103" y="91"/>
      <point x="103" y="190" type="curve" smooth="yes"/>
      <point x="103" y="333"/>
      <point x="201" y="480"/>
      <point x="321" y="487" type="curve"/>
      <point x="332" y="487" type="line"/>
      <point x="332" y="495" type="line"/>
      <point x="295" y="495" type="line"/>
      <point x="342" y="445" type="line" smooth="yes"/>
      <point x="359" y="427"/>
      <point x="371" y="417"/>
      <point x="388" y="417" type="curve" smooth="yes"/>
      <point x="401" y="417"/>
      <point x="416" y="426"/>
      <point x="418" y="444" type="curve"/>
      <point x="408" y="478"/>
      <point x="369" y="510"/>
      <point x="315" y="510" type="curve" smooth="yes"/>
      <point x="182" y="510"/>
      <point x="52" y="353"/>
      <point x="52" y="181" type="curve" smooth="yes"/>
      <point x="52" y="55"/>
      <point x="120" y="-4"/>
    </contour>
  </outline>
</glyph>
<glyph name="cid40067" format="2">
  <advance height="1000" width="548"/>
  <unicode hex="0064"/>
  <outline>
    <contour>
      <point x="140" y="-4" type="curve" smooth="yes"/>
      <point x="218" y="-4"/>
      <point x="312" y="83"/>
      <point x="382" y="186" type="curve"/>
      <point x="382" y="186"/>
      <point x="388" y="186"/>
      <point x="388" y="186" type="curve"/>
      <point x="388" y="186"/>
      <point x="375" y="199"/>
      <point x="375" y="199" type="curve"/>
      <point x="287" y="96"/>
      <point x="226" y="42"/>
      <point x="166" y="42" type="curve" smooth="yes"/>
      <point x="125" y="42"/>
      <point x="99" y="74"/>
      <point x="99" y="146" type="curve" smooth="yes"/>
      <point x="99" y="232"/>
      <point x="134" y="325"/>
      <point x="189" y="389" type="curve" smooth="yes"/>
      <point x="231" y="435"/>
      <point x="284" y="467"/>
      <point x="339" y="467" type="curve" smooth="yes"/>
      <point x="369" y="467"/>
      <point x="398" y="454"/>
      <point x="424" y="426" type="curve"/>
      <point x="424" y="426"/>
      <point x="447" y="461"/>
      <point x="447" y="461" type="curve"/>
      <point x="420" y="495"/>
      <point x="393" y="510"/>
      <point x="358" y="510" type="curve" smooth="yes"/>
      <point x="212" y="510"/>
      <point x="46" y="298"/>
      <point x="46" y="124" type="curve" smooth="yes"/>
      <point x="46" y="31"/>
      <point x="87" y="-4"/>
    </contour>
    <contour>
      <point x="386" y="-4" type="curve" smooth="yes"/>
      <point x="447" y="-4"/>
      <point x="499" y="53"/>
      <point x="540" y="112" type="curve"/>
      <point x="540" y="112"/>
      <point x="524" y="125"/>
      <point x="524" y="125" type="curve"/>
      <point x="485" y="76"/>
      <point x="444" y="43"/>
      <point x="414" y="43" type="curve" smooth="yes"/>
      <point x="398" y="43"/>
      <point x="388" y="52"/>
      <point x="388" y="68" type="curve" smooth="yes"/>
      <point x="388" y="83"/>
      <point x="391" y="106"/>
      <point x="396" y="128" type="curve"/>
      <point x="396" y="128"/>
      <point x="527" y="775"/>
      <point x="527" y="775" type="curve"/>
      <point x="527" y="775"/>
      <point x="516" y="784"/>
      <point x="516" y="784" type="curve"/>
      <point x="516" y="784"/>
      <point x="359" y="753"/>
      <point x="359" y="753" type="curve"/>
      <point x="359" y="753"/>
      <point x="356" y="732"/>
      <point x="356" y="732" type="curve"/>
      <point x="356" y="732"/>
      <point x="480" y="726"/>
      <point x="480" y="726" type="curve"/>
      <point x="480" y="726"/>
      <point x="471" y="741"/>
      <point x="471" y="741" type="curve"/>
      <point x="471" y="741"/>
      <point x="418" y="477"/>
      <point x="418" y="477" type="curve"/>
      <point x="418" y="477"/>
      <point x="412" y="458"/>
      <point x="412" y="458" type="curve"/>
      <point x="412" y="458"/>
      <point x="346" y="131"/>
      <point x="346" y="131" type="curve"/>
      <point x="346" y="131"/>
      <point x="343" y="117"/>
      <point x="343" y="117" type="curve"/>
      <point x="337" y="82"/>
      <point x="335" y="64"/>
      <point x="335" y="45" type="curve" smooth="yes"/>
      <point x="335" y="13"/>
      <point x="357" y="-4"/>
    </contour>
  </outline>
</glyph>
<glyph name="cid40070" format="2">
  <advance height="1000" width="306"/>
  <unicode hex="0066"/>
  <outline>
    <contour>
      <point x="-69" y="-254" type="curve" smooth="yes"/>
      <point x="-29" y="-254"/>
      <point x="6" y="-239"/>
      <point x="45" y="-199" type="curve" smooth="yes"/>
      <point x="101" y="-143"/>
      <point x="122" y="-63"/>
      <point x="141" y="48" type="curve" smooth="yes"/>
      <point x="170" y="206"/>
      <point x="194" y="369"/>
      <point x="218" y="524" type="curve" smooth="yes"/>
      <point x="249" y="714"/>
      <point x="314" y="769"/>
      <point x="400" y="776" type="curve"/>
      <point x="400" y="783" type="line"/>
      <point x="370" y="783" type="line"/>
      <point x="370" y="778" type="line"/>
      <point x="407" y="737" type="line" smooth="yes"/>
      <point x="430" y="711"/>
      <point x="440" y="702"/>
      <point x="460" y="702" type="curve" smooth="yes"/>
      <point x="473" y="702"/>
      <point x="487" y="710"/>
      <point x="490" y="728" type="curve"/>
      <point x="482" y="761"/>
      <point x="439" y="794"/>
      <point x="384" y="794" type="curve" smooth="yes"/>
      <point x="304" y="794"/>
      <point x="201" y="735"/>
      <point x="168" y="523" type="curve" smooth="yes"/>
      <point x="146" y="362"/>
      <point x="122" y="207"/>
      <point x="95" y="48" type="curve" smooth="yes"/>
      <point x="77" y="-59"/>
      <point x="60" y="-124"/>
      <point x="24" y="-173" type="curve" smooth="yes"/>
      <point x="-1" y="-206"/>
      <point x="-26" y="-223"/>
      <point x="-60" y="-230" type="curve"/>
      <point x="-60" y="-233" type="line"/>
      <point x="-37" y="-233" type="line"/>
      <point x="-37" y="-230" type="line"/>
      <point x="-68" y="-201" type="line"/>
      <point x="-85" y="-183"/>
      <point x="-101" y="-170"/>
      <point x="-123" y="-170" type="curve" smooth="yes"/>
      <point x="-139" y="-170"/>
      <point x="-154" y="-181"/>
      <point x="-156" y="-199" type="curve"/>
      <point x="-148" y="-230"/>
      <point x="-110" y="-254"/>
    </contour>
    <contour>
      <point x="45" y="467" type="line"/>
      <point x="183" y="467" type="line"/>
      <point x="352" y="462" type="line"/>
      <point x="359" y="499" type="line"/>
      <point x="188" y="499" type="line"/>
      <point x="188" y="501" type="line"/>
      <point x="50" y="492" type="line"/>
    </contour>
  </outline>
</glyph>
<glyph name="cid40074" format="2">
  <advance height="1000" width="549"/>
  <unicode hex="0068"/>
  <outline>
    <contour>
      <point x="60" y="4" type="line"/>
      <point x="106" y="10" type="line"/>
      <point x="118" y="83"/>
      <point x="131" y="154"/>
      <point x="146" y="224" type="curve" smooth="yes"/>
      <point x="176" y="369" type="line"/>
      <point x="178" y="380" type="line"/>
      <point x="259" y="775" type="line"/>
      <point x="249" y="784" type="line"/>
      <point x="89" y="753" type="line"/>
      <point x="86" y="732" type="line"/>
      <point x="211" y="726" type="line"/>
      <point x="199" y="745" type="line"/>
      <point x="187" y="676"/>
      <point x="175" y="606"/>
      <point x="160" y="536" type="curve" smooth="yes"/>
      <point x="53" y="10" type="line"/>
    </contour>
    <contour>
      <point x="379" y="-4" type="curve" smooth="yes"/>
      <point x="441" y="-4"/>
      <point x="495" y="52"/>
      <point x="536" y="112" type="curve"/>
      <point x="520" y="125" type="line"/>
      <point x="479" y="76"/>
      <point x="439" y="43"/>
      <point x="410" y="43" type="curve" smooth="yes"/>
      <point x="394" y="43"/>
      <point x="385" y="51"/>
      <point x="385" y="67" type="curve" smooth="yes"/>
      <point x="385" y="82"/>
      <point x="391" y="105"/>
      <point x="396" y="129" type="curve" smooth="yes"/>
      <point x="446" y="342" type="line" smooth="yes"/>
      <point x="454" y="378"/>
      <point x="463" y="409"/>
      <point x="463" y="442" type="curve" smooth="yes"/>
      <point x="463" y="484"/>
      <point x="441" y="510"/>
      <point x="396" y="510" type="curve" smooth="yes"/>
      <point x="334" y="510"/>
      <point x="237" y="450"/>
      <point x="161" y="371" type="curve"/>
      <point x="158" y="371" type="line"/>
      <point x="158" y="345" type="line"/>
      <point x="256" y="430"/>
      <point x="319" y="464"/>
      <point x="368" y="464" type="curve" smooth="yes"/>
      <point x="394" y="464"/>
      <point x="409" y="451"/>
      <point x="409" y="419" type="curve" smooth="yes"/>
      <point x="409" y="394"/>
      <point x="400" y="359"/>
      <point x="393" y="326" type="curve" smooth="yes"/>
      <point x="344" y="117" type="line" smooth="yes"/>
      <point x="336" y="82"/>
      <point x="331" y="64"/>
      <point x="331" y="40" type="curve" smooth="yes"/>
      <point x="331" y="14"/>
      <point x="350" y="-4"/>
    </contour>
  </outline>
</glyph>
<glyph name="cid40078" format="2">
  <advance height="1000" width="471"/>
  <unicode hex="006B"/>
  <outline>
    <contour>
      <point x="51" y="10" type="curve"/>
      <point x="51" y="10"/>
      <point x="58" y="4"/>
      <point x="58" y="4" type="curve"/>
      <point x="58" y="4"/>
      <point x="104" y="10"/>
      <point x="104" y="10" type="curve"/>
      <point x="116" y="83"/>
      <point x="129" y="154"/>
      <point x="144" y="224" type="curve"/>
      <point x="144" y="224"/>
      <point x="255" y="775"/>
      <point x="255" y="775" type="curve"/>
      <point x="255" y="775"/>
      <point x="245" y="784"/>
      <point x="245" y="784" type="curve"/>
      <point x="245" y="784"/>
      <point x="87" y="753"/>
      <point x="87" y="753" type="curve"/>
      <point x="87" y="753"/>
      <point x="84" y="732"/>
      <point x="84" y="732" type="curve"/>
      <point x="84" y="732"/>
      <point x="209" y="726"/>
      <point x="209" y="726" type="curve"/>
      <point x="209" y="726"/>
      <point x="197" y="745"/>
      <point x="197" y="745" type="curve"/>
      <point x="185" y="676"/>
      <point x="172" y="606"/>
      <point x="158" y="536" type="curve"/>
      <point x="158" y="536"/>
      <point x="51" y="10"/>
    </contour>
    <contour>
      <point x="465" y="11" type="curve"/>
      <point x="465" y="11"/>
      <point x="468" y="32"/>
      <point x="468" y="32" type="curve"/>
      <point x="468" y="32"/>
      <point x="418" y="34"/>
      <point x="418" y="34" type="curve"/>
      <point x="384" y="35"/>
      <point x="363" y="46"/>
      <point x="344" y="88" type="curve"/>
      <point x="344" y="88"/>
      <point x="305" y="169"/>
      <point x="305" y="169" type="curve"/>
      <point x="276" y="230"/>
      <point x="246" y="261"/>
      <point x="188" y="274" type="curve"/>
      <point x="188" y="274"/>
      <point x="159" y="280"/>
      <point x="159" y="280" type="curve"/>
      <point x="159" y="280"/>
      <point x="158" y="272"/>
      <point x="158" y="272" type="curve"/>
      <point x="158" y="272"/>
      <point x="439" y="442"/>
      <point x="439" y="442" type="curve"/>
      <point x="464" y="456"/>
      <point x="472" y="466"/>
      <point x="472" y="479" type="curve" smooth="yes"/>
      <point x="472" y="493"/>
      <point x="461" y="506"/>
      <point x="446" y="507" type="curve"/>
      <point x="446" y="507"/>
      <point x="151" y="287"/>
      <point x="151" y="287" type="curve"/>
      <point x="151" y="287"/>
      <point x="144" y="281"/>
      <point x="144" y="281" type="curve"/>
      <point x="144" y="281"/>
      <point x="137" y="281"/>
      <point x="137" y="281" type="curve"/>
      <point x="137" y="281"/>
      <point x="137" y="266"/>
      <point x="137" y="266" type="curve"/>
      <point x="137" y="266"/>
      <point x="166" y="258"/>
      <point x="166" y="258" type="curve"/>
      <point x="213" y="245"/>
      <point x="230" y="222"/>
      <point x="256" y="165" type="curve"/>
      <point x="256" y="165"/>
      <point x="297" y="73"/>
      <point x="297" y="73" type="curve"/>
      <point x="322" y="16"/>
      <point x="354" y="0"/>
      <point x="399" y="0" type="curve" smooth="yes"/>
      <point x="419" y="0"/>
      <point x="439" y="3"/>
    </contour>
  </outline>
</glyph>
<glyph name="cid40080" format="2">
  <advance height="1000" width="274"/>
  <unicode hex="006C"/>
  <outline>
    <contour>
      <point x="112" y="-4" type="curve" smooth="yes"/>
      <point x="176" y="-4"/>
      <point x="224" y="52"/>
      <point x="266" y="112" type="curve"/>
      <point x="266" y="112"/>
      <point x="251" y="125"/>
      <point x="251" y="125" type="curve"/>
      <point x="209" y="74"/>
      <point x="170" y="43"/>
      <point x="141" y="43" type="curve" smooth="yes"/>
      <point x="126" y="43"/>
      <point x="114" y="52"/>
      <point x="114" y="69" type="curve" smooth="yes"/>
      <point x="114" y="83"/>
      <point x="119" y="106"/>
      <point x="124" y="130" type="curve"/>
      <point x="124" y="130"/>
      <point x="255" y="775"/>
      <point x="255" y="775" type="curve"/>
      <point x="255" y="775"/>
      <point x="245" y="784"/>
      <point x="245" y="784" type="curve"/>
      <point x="245" y="784"/>
      <point x="85" y="753"/>
      <point x="85" y="753" type="curve"/>
      <point x="85" y="753"/>
      <point x="82" y="732"/>
      <point x="82" y="732" type="curve"/>
      <point x="82" y="732"/>
      <point x="208" y="726"/>
      <point x="208" y="726" type="curve"/>
      <point x="208" y="726"/>
      <point x="194" y="745"/>
      <point x="194" y="745" type="curve"/>
      <point x="184" y="676"/>
      <point x="171" y="606"/>
      <point x="157" y="536" type="curve"/>
      <point x="157" y="536"/>
      <point x="72" y="117"/>
      <point x="72" y="117" type="curve"/>
      <point x="66" y="84"/>
      <point x="62" y="66"/>
      <point x="62" y="48" type="curve" smooth="yes"/>
      <point x="62" y="15"/>
      <point x="84" y="-4"/>
    </contour>
  </outline>
</glyph>
<glyph name="cid40086" format="2">
  <advance height="1000" width="532"/>
  <unicode hex="0070"/>
  <outline>
    <contour>
      <point x="-70" y="-246" type="curve"/>
      <point x="-70" y="-246"/>
      <point x="177" y="-246"/>
      <point x="177" y="-246" type="curve"/>
      <point x="177" y="-246"/>
      <point x="182" y="-221"/>
      <point x="182" y="-221" type="curve"/>
      <point x="182" y="-221"/>
      <point x="63" y="-208"/>
      <point x="63" y="-208" type="curve"/>
      <point x="63" y="-208"/>
      <point x="46" y="-208"/>
      <point x="46" y="-208" type="curve"/>
      <point x="46" y="-208"/>
      <point x="-66" y="-221"/>
      <point x="-66" y="-221" type="curve"/>
      <point x="-66" y="-221"/>
      <point x="-70" y="-246"/>
    </contour>
    <contour>
      <point x="20" y="-246" type="curve"/>
      <point x="20" y="-246"/>
      <point x="73" y="-246"/>
      <point x="73" y="-246" type="curve"/>
      <point x="86" y="-172"/>
      <point x="101" y="-96"/>
      <point x="128" y="31" type="curve"/>
      <point x="128" y="31"/>
      <point x="131" y="44"/>
      <point x="131" y="44" type="curve"/>
      <point x="131" y="44"/>
      <point x="196" y="346"/>
      <point x="196" y="346" type="curve"/>
      <point x="196" y="346"/>
      <point x="196" y="350"/>
      <point x="196" y="350" type="curve"/>
      <point x="196" y="350"/>
      <point x="229" y="500"/>
      <point x="229" y="500" type="curve"/>
      <point x="229" y="500"/>
      <point x="216" y="509"/>
      <point x="216" y="509" type="curve"/>
      <point x="216" y="509"/>
      <point x="58" y="477"/>
      <point x="58" y="477" type="curve"/>
      <point x="58" y="477"/>
      <point x="55" y="456"/>
      <point x="55" y="456" type="curve"/>
      <point x="55" y="456"/>
      <point x="180" y="451"/>
      <point x="180" y="451" type="curve"/>
      <point x="180" y="451"/>
      <point x="170" y="461"/>
      <point x="170" y="461" type="curve"/>
      <point x="170" y="461"/>
      <point x="20" y="-246"/>
    </contour>
    <contour>
      <point x="198" y="-4" type="curve" smooth="yes"/>
      <point x="345" y="-4"/>
      <point x="508" y="209"/>
      <point x="508" y="383" type="curve" smooth="yes"/>
      <point x="508" y="477"/>
      <point x="466" y="510"/>
      <point x="413" y="510" type="curve" smooth="yes"/>
      <point x="335" y="510"/>
      <point x="230" y="428"/>
      <point x="164" y="317" type="curve"/>
      <point x="164" y="317"/>
      <point x="160" y="317"/>
      <point x="160" y="317" type="curve"/>
      <point x="160" y="317"/>
      <point x="173" y="312"/>
      <point x="173" y="312" type="curve"/>
      <point x="255" y="406"/>
      <point x="328" y="464"/>
      <point x="388" y="464" type="curve" smooth="yes"/>
      <point x="431" y="464"/>
      <point x="456" y="432"/>
      <point x="456" y="360" type="curve" smooth="yes"/>
      <point x="456" y="281"/>
      <point x="423" y="190"/>
      <point x="371" y="126" type="curve" smooth="yes"/>
      <point x="330" y="76"/>
      <point x="276" y="41"/>
      <point x="219" y="41" type="curve" smooth="yes"/>
      <point x="184" y="41"/>
      <point x="151" y="55"/>
      <point x="121" y="85" type="curve"/>
      <point x="121" y="85"/>
      <point x="98" y="45"/>
      <point x="98" y="45" type="curve"/>
      <point x="126" y="11"/>
      <point x="160" y="-4"/>
    </contour>
  </outline>
</glyph>
<glyph name="cid40088" format="2">
  <advance height="1000" width="506"/>
  <unicode hex="0071"/>
  <outline>
    <contour>
      <point x="140" y="-4" type="curve" smooth="yes"/>
      <point x="218" y="-4"/>
      <point x="318" y="83"/>
      <point x="387" y="186" type="curve"/>
      <point x="387" y="186"/>
      <point x="394" y="186"/>
      <point x="394" y="186" type="curve"/>
      <point x="394" y="186"/>
      <point x="381" y="199"/>
      <point x="381" y="199" type="curve"/>
      <point x="292" y="96"/>
      <point x="226" y="42"/>
      <point x="166" y="42" type="curve" smooth="yes"/>
      <point x="122" y="42"/>
      <point x="98" y="78"/>
      <point x="98" y="145" type="curve" smooth="yes"/>
      <point x="98" y="236"/>
      <point x="140" y="337"/>
      <point x="203" y="400" type="curve" smooth="yes"/>
      <point x="243" y="441"/>
      <point x="292" y="467"/>
      <point x="342" y="467" type="curve" smooth="yes"/>
      <point x="371" y="467"/>
      <point x="401" y="455"/>
      <point x="431" y="428" type="curve"/>
      <point x="431" y="428"/>
      <point x="453" y="461"/>
      <point x="453" y="461" type="curve"/>
      <point x="425" y="495"/>
      <point x="398" y="510"/>
      <point x="362" y="510" type="curve" smooth="yes"/>
      <point x="214" y="510"/>
      <point x="46" y="298"/>
      <point x="46" y="124" type="curve" smooth="yes"/>
      <point x="46" y="31"/>
      <point x="87" y="-4"/>
    </contour>
    <contour>
      <point x="167" y="-246" type="curve"/>
      <point x="167" y="-246"/>
      <point x="415" y="-246"/>
      <point x="415" y="-246" type="curve"/>
      <point x="415" y="-246"/>
      <point x="420" y="-221"/>
      <point x="420" y="-221" type="curve"/>
      <point x="420" y="-221"/>
      <point x="308" y="-208"/>
      <point x="308" y="-208" type="curve"/>
      <point x="308" y="-208"/>
      <point x="290" y="-208"/>
      <point x="290" y="-208" type="curve"/>
      <point x="290" y="-208"/>
      <point x="172" y="-221"/>
      <point x="172" y="-221" type="curve"/>
      <point x="172" y="-221"/>
      <point x="167" y="-246"/>
    </contour>
    <contour>
      <point x="266" y="-246" type="curve"/>
      <point x="266" y="-246"/>
      <point x="317" y="-246"/>
      <point x="317" y="-246" type="curve"/>
      <point x="331" y="-177"/>
      <point x="343" y="-110"/>
      <point x="358" y="-41" type="curve"/>
      <point x="358" y="-41"/>
      <point x="473" y="503"/>
      <point x="473" y="503" type="curve"/>
      <point x="473" y="503"/>
      <point x="461" y="510"/>
      <point x="461" y="510" type="curve"/>
      <point x="461" y="510"/>
      <point x="419" y="469"/>
      <point x="419" y="469" type="curve"/>
      <point x="419" y="469"/>
      <point x="416" y="466"/>
      <point x="416" y="466" type="curve"/>
      <point x="416" y="466"/>
      <point x="350" y="156"/>
      <point x="350" y="156" type="curve"/>
      <point x="350" y="156"/>
      <point x="348" y="145"/>
      <point x="348" y="145" type="curve"/>
      <point x="348" y="145"/>
      <point x="266" y="-246"/>
    </contour>
  </outline>
</glyph>
<glyph name="cid40097" format="2">
  <advance height="1000" width="748"/>
  <unicode hex="0077"/>
  <outline>
    <contour>
      <point x="178" y="7" type="curve"/>
      <point x="178" y="7"/>
      <point x="183" y="3"/>
      <point x="183" y="3" type="curve"/>
      <point x="183" y="3"/>
      <point x="204" y="5"/>
      <point x="204" y="5" type="curve"/>
      <point x="301" y="130"/>
      <point x="389" y="287"/>
      <point x="438" y="397" type="curve"/>
      <point x="438" y="397"/>
      <point x="442" y="408"/>
      <point x="442" y="408" type="curve"/>
      <point x="442" y="408"/>
      <point x="428" y="407"/>
      <point x="428" y="407" type="curve"/>
      <point x="436" y="272"/>
      <point x="441" y="158"/>
      <point x="448" y="7" type="curve"/>
      <point x="448" y="7"/>
      <point x="453" y="3"/>
      <point x="453" y="3" type="curve"/>
      <point x="453" y="3"/>
      <point x="473" y="5"/>
      <point x="473" y="5" type="curve"/>
      <point x="577" y="117"/>
      <point x="653" y="226"/>
      <point x="702" y="328" type="curve" smooth="yes"/>
      <point x="739" y="401"/>
      <point x="748" y="441"/>
      <point x="748" y="470" type="curve" smooth="yes"/>
      <point x="748" y="485"/>
      <point x="747" y="494"/>
      <point x="743" y="501" type="curve"/>
      <point x="738" y="506"/>
      <point x="730" y="510"/>
      <point x="719" y="510" type="curve" smooth="yes"/>
      <point x="697" y="510"/>
      <point x="677" y="494"/>
      <point x="677" y="458" type="curve" smooth="yes"/>
      <point x="677" y="447"/>
      <point x="679" y="427"/>
      <point x="683" y="406" type="curve"/>
      <point x="683" y="406"/>
      <point x="695" y="348"/>
      <point x="695" y="348" type="curve"/>
      <point x="695" y="348"/>
      <point x="700" y="406"/>
      <point x="700" y="406" type="curve"/>
      <point x="692" y="380"/>
      <point x="684" y="362"/>
      <point x="675" y="341" type="curve"/>
      <point x="622" y="235"/>
      <point x="567" y="158"/>
      <point x="488" y="62" type="curve"/>
      <point x="488" y="62"/>
      <point x="484" y="56"/>
      <point x="484" y="56" type="curve"/>
      <point x="484" y="56"/>
      <point x="494" y="53"/>
      <point x="494" y="53" type="curve"/>
      <point x="489" y="203"/>
      <point x="483" y="329"/>
      <point x="474" y="497" type="curve"/>
      <point x="474" y="497"/>
      <point x="447" y="497"/>
      <point x="447" y="497" type="curve"/>
      <point x="383" y="337"/>
      <point x="303" y="193"/>
      <point x="215" y="64" type="curve"/>
      <point x="215" y="64"/>
      <point x="210" y="56"/>
      <point x="210" y="56" type="curve"/>
      <point x="210" y="56"/>
      <point x="223" y="54"/>
      <point x="223" y="54" type="curve"/>
      <point x="223" y="196"/>
      <point x="218" y="326"/>
      <point x="205" y="429" type="curve" smooth="yes"/>
      <point x="197" y="488"/>
      <point x="178" y="510"/>
      <point x="139" y="510" type="curve" smooth="yes"/>
      <point x="96" y="510"/>
      <point x="59" y="475"/>
      <point x="24" y="396" type="curve"/>
      <point x="24" y="396"/>
      <point x="42" y="385"/>
      <point x="42" y="385" type="curve"/>
      <point x="76" y="447"/>
      <point x="98" y="463"/>
      <point x="120" y="463" type="curve" smooth="yes"/>
      <point x="137" y="463"/>
      <point x="149" y="453"/>
      <point x="156" y="406" type="curve" smooth="yes"/>
      <point x="171" y="298"/>
      <point x="176" y="181"/>
    </contour>
  </outline>
</glyph>
<glyph name="cid40102" format="2">
  <advance height="1000" width="483"/>
  <unicode hex="0079"/>
  <outline>
    <contour>
      <point x="-33" y="-246" type="curve" smooth="yes"/>
      <point x="10" y="-246"/>
      <point x="66" y="-208"/>
      <point x="116" y="-155" type="curve"/>
      <point x="171" y="-103"/>
      <point x="211" y="-44"/>
      <point x="249" y="15" type="curve" smooth="yes"/>
      <point x="303" y="98"/>
      <point x="343" y="177"/>
      <point x="402" y="289" type="curve" smooth="yes"/>
      <point x="436" y="351"/>
      <point x="452" y="386"/>
      <point x="471" y="426" type="curve" smooth="yes"/>
      <point x="484" y="454"/>
      <point x="489" y="470"/>
      <point x="489" y="486" type="curve" smooth="yes"/>
      <point x="489" y="502"/>
      <point x="479" y="513"/>
      <point x="463" y="513" type="curve" smooth="yes"/>
      <point x="439" y="513"/>
      <point x="428" y="493"/>
      <point x="399" y="393" type="curve" smooth="yes"/>
      <point x="371" y="293"/>
      <point x="311" y="169"/>
      <point x="228" y="26" type="curve" smooth="yes"/>
      <point x="190" y="-35"/>
      <point x="148" y="-91"/>
      <point x="101" y="-136" type="curve" smooth="yes"/>
      <point x="64" y="-172"/>
      <point x="29" y="-197"/>
      <point x="-9" y="-215" type="curve"/>
      <point x="-9" y="-220" type="line"/>
      <point x="26" y="-220" type="line"/>
      <point x="26" y="-214" type="line"/>
      <point x="1" y="-194" type="line" smooth="yes"/>
      <point x="-22" y="-174"/>
      <point x="-41" y="-164"/>
      <point x="-61" y="-164" type="curve" smooth="yes"/>
      <point x="-82" y="-164"/>
      <point x="-99" y="-175"/>
      <point x="-104" y="-197" type="curve"/>
      <point x="-99" y="-226"/>
      <point x="-72" y="-246"/>
    </contour>
    <contour>
      <point x="197" y="-27" type="curve"/>
      <point x="245" y="22" type="line"/>
      <point x="236" y="22" type="line"/>
      <point x="232" y="157"/>
      <point x="223" y="282"/>
      <point x="208" y="402" type="curve" smooth="yes"/>
      <point x="198" y="488"/>
      <point x="179" y="510"/>
      <point x="141" y="510" type="curve" smooth="yes"/>
      <point x="100" y="510"/>
      <point x="61" y="478"/>
      <point x="24" y="396" type="curve"/>
      <point x="42" y="385" type="line"/>
      <point x="78" y="449"/>
      <point x="99" y="463"/>
      <point x="120" y="463" type="curve" smooth="yes"/>
      <point x="139" y="463"/>
      <point x="148" y="450"/>
      <point x="158" y="366" type="curve" smooth="yes"/>
      <point x="175" y="242"/>
      <point x="188" y="133"/>
    </contour>
  </outline>
</glyph>
<glyph name="cid40955" format="2">
  <advance height="1000" width="370"/>
  <unicode hex="007B"/>
  <outline>
    <contour>
      <point x="47" y="286" type="curve"/>
      <point x="123" y="277"/>
      <point x="157" y="250"/>
      <point x="157" y="207" type="curve" smooth="yes"/>
      <point x="157" y="145"/>
      <point x="79" y="36"/>
      <point x="79" y="-63" type="curve" smooth="yes"/>
      <point x="79" y="-122"/>
      <point x="118" y="-155"/>
      <point x="208" y="-155" type="curve"/>
      <point x="208" y="-155"/>
      <point x="255" y="-155"/>
      <point x="255" y="-155" type="curve"/>
      <point x="255" y="-155"/>
      <point x="261" y="-127"/>
      <point x="261" y="-127" type="curve"/>
      <point x="261" y="-127"/>
      <point x="222" y="-125"/>
      <point x="222" y="-125" type="curve"/>
      <point x="154" y="-120"/>
      <point x="128" y="-99"/>
      <point x="128" y="-56" type="curve" smooth="yes"/>
      <point x="128" y="29"/>
      <point x="191" y="148"/>
      <point x="191" y="212" type="curve" smooth="yes"/>
      <point x="191" y="264"/>
      <point x="157" y="299"/>
      <point x="75" y="303" type="curve"/>
      <point x="75" y="303"/>
      <point x="73" y="295"/>
      <point x="73" y="295" type="curve"/>
      <point x="185" y="301"/>
      <point x="239" y="363"/>
      <point x="239" y="446" type="curve" smooth="yes"/>
      <point x="239" y="479"/>
      <point x="233" y="528"/>
      <point x="233" y="570" type="curve" smooth="yes"/>
      <point x="233" y="672"/>
      <point x="261" y="717"/>
      <point x="381" y="724" type="curve"/>
      <point x="381" y="724"/>
      <point x="412" y="726"/>
      <point x="412" y="726" type="curve"/>
      <point x="412" y="726"/>
      <point x="418" y="754"/>
      <point x="418" y="754" type="curve"/>
      <point x="418" y="754"/>
      <point x="380" y="754"/>
      <point x="380" y="754" type="curve"/>
      <point x="238" y="754"/>
      <point x="185" y="688"/>
      <point x="185" y="579" type="curve" smooth="yes"/>
      <point x="185" y="527"/>
      <point x="201" y="475"/>
      <point x="201" y="437" type="curve" smooth="yes"/>
      <point x="201" y="368"/>
      <point x="155" y="324"/>
      <point x="53" y="313" type="curve"/>
      <point x="53" y="313"/>
      <point x="47" y="286"/>
    </contour>
  </outline>
</glyph>
<glyph name="cid40990" format="2">
  <advance height="1000" width="296"/>
  <unicode hex="007C"/>
  <outline>
    <contour>
      <point x="133" y="-250" type="curve"/>
      <point x="133" y="-250"/>
      <point x="175" y="-250"/>
      <point x="175" y="-250" type="curve"/>
      <point x="175" y="-250"/>
      <point x="175" y="790"/>
      <point x="175" y="790" type="curve"/>
      <point x="175" y="790"/>
      <point x="133" y="790"/>
      <point x="133" y="790" type="curve"/>
      <point x="133" y="790"/>
      <point x="133" y="-250"/>
    </contour>
  </outline>
</glyph>
<glyph name="cid40957" format="2">
  <advance height="1000" width="370"/>
  <unicode hex="007D"/>
  <outline>
    <contour>
      <point x="337" y="313" type="curve"/>
      <point x="261" y="321"/>
      <point x="227" y="348"/>
      <point x="227" y="392" type="curve" smooth="yes"/>
      <point x="227" y="453"/>
      <point x="305" y="562"/>
      <point x="305" y="661" type="curve" smooth="yes"/>
      <point x="305" y="720"/>
      <point x="266" y="754"/>
      <point x="176" y="754" type="curve"/>
      <point x="176" y="754"/>
      <point x="129" y="754"/>
      <point x="129" y="754" type="curve"/>
      <point x="129" y="754"/>
      <point x="123" y="726"/>
      <point x="123" y="726" type="curve"/>
      <point x="123" y="726"/>
      <point x="162" y="723"/>
      <point x="162" y="723" type="curve"/>
      <point x="230" y="718"/>
      <point x="256" y="697"/>
      <point x="256" y="654" type="curve" smooth="yes"/>
      <point x="256" y="570"/>
      <point x="192" y="450"/>
      <point x="192" y="386" type="curve" smooth="yes"/>
      <point x="192" y="334"/>
      <point x="227" y="299"/>
      <point x="309" y="295" type="curve"/>
      <point x="309" y="295"/>
      <point x="311" y="303"/>
      <point x="311" y="303" type="curve"/>
      <point x="199" y="297"/>
      <point x="145" y="236"/>
      <point x="145" y="152" type="curve" smooth="yes"/>
      <point x="145" y="119"/>
      <point x="151" y="70"/>
      <point x="151" y="29" type="curve" smooth="yes"/>
      <point x="151" y="-74"/>
      <point x="123" y="-119"/>
      <point x="3" y="-126" type="curve"/>
      <point x="3" y="-126"/>
      <point x="-28" y="-127"/>
      <point x="-28" y="-127" type="curve"/>
      <point x="-28" y="-127"/>
      <point x="-34" y="-155"/>
      <point x="-34" y="-155" type="curve"/>
      <point x="-34" y="-155"/>
      <point x="4" y="-155"/>
      <point x="4" y="-155" type="curve"/>
      <point x="146" y="-155"/>
      <point x="199" y="-90"/>
      <point x="199" y="19" type="curve" smooth="yes"/>
      <point x="199" y="71"/>
      <point x="183" y="123"/>
      <point x="183" y="161" type="curve" smooth="yes"/>
      <point x="183" y="230"/>
      <point x="229" y="274"/>
      <point x="331" y="286" type="curve"/>
      <point x="331" y="286"/>
      <point x="337" y="313"/>
    </contour>
  </outline>
</glyph>
<glyph name="cid41321" format="2">
  <advance height="1000" width="545"/>
  <unicode hex="007E"/>
  <outline>
    <contour>
      <point x="298" y="379" type="curve" smooth="yes"/>
      <point x="265" y="411"/>
      <point x="233" y="434"/>
      <point x="190" y="434" type="curve" smooth="yes"/>
      <point x="126" y="434"/>
      <point x="87" y="389"/>
      <point x="81" y="314" type="curve"/>
      <point x="113" y="307" type="line"/>
      <point x="122" y="374"/>
      <point x="151" y="398"/>
      <point x="188" y="398" type="curve" smooth="yes"/>
      <point x="220" y="398"/>
      <point x="242" y="383"/>
      <point x="271" y="354" type="curve" smooth="yes"/>
      <point x="306" y="321"/>
      <point x="337" y="301"/>
      <point x="380" y="301" type="curve" smooth="yes"/>
      <point x="444" y="301"/>
      <point x="483" y="348"/>
      <point x="489" y="422" type="curve"/>
      <point x="457" y="427" type="line"/>
      <point x="448" y="362"/>
      <point x="420" y="338"/>
      <point x="383" y="338" type="curve" smooth="yes"/>
      <point x="352" y="338"/>
      <point x="328" y="351"/>
    </contour>
  </outline>
</glyph>
<glyph name="cid40901" format="2">
  <advance height="1000" width="297"/>
  <unicode hex="00A1"/>
  <outline>
    <contour>
      <point x="164" y="316" type="curve"/>
      <point x="164" y="316"/>
      <point x="142" y="316"/>
      <point x="142" y="316" type="curve"/>
      <point x="46" y="-47"/>
      <point x="18" y="-147"/>
      <point x="18" y="-183" type="curve" smooth="yes"/>
      <point x="18" y="-203"/>
      <point x="27" y="-214"/>
      <point x="48" y="-214" type="curve" smooth="yes"/>
      <point x="69" y="-214"/>
      <point x="85" y="-202"/>
      <point x="93" y="-164" type="curve" smooth="yes"/>
      <point x="101" y="-117"/>
      <point x="114" y="-28"/>
      <point x="132" y="106" type="curve"/>
      <point x="132" y="106"/>
      <point x="164" y="316"/>
    </contour>
    <contour>
      <point x="230" y="467" type="curve" smooth="yes"/>
      <point x="230" y="490"/>
      <point x="212" y="509"/>
      <point x="188" y="509" type="curve" smooth="yes"/>
      <point x="160" y="509"/>
      <point x="135" y="487"/>
      <point x="135" y="458" type="curve" smooth="yes"/>
      <point x="135" y="435"/>
      <point x="152" y="415"/>
      <point x="178" y="415" type="curve" smooth="yes"/>
      <point x="206" y="415"/>
      <point x="230" y="437"/>
    </contour>
  </outline>
</glyph>
<glyph name="cid41197" format="2">
  <advance height="1000" width="521"/>
  <unicode hex="00A2"/>
  <outline>
    <contour>
      <point x="95" y="265" type="curve" smooth="yes"/>
      <point x="95" y="137"/>
      <point x="163" y="77"/>
      <point x="250" y="77" type="curve" smooth="yes"/>
      <point x="321" y="77"/>
      <point x="386" y="121"/>
      <point x="430" y="191" type="curve"/>
      <point x="430" y="191"/>
      <point x="413" y="203"/>
      <point x="413" y="203" type="curve"/>
      <point x="376" y="157"/>
      <point x="330" y="122"/>
      <point x="267" y="122" type="curve" smooth="yes"/>
      <point x="193" y="122"/>
      <point x="146" y="174"/>
      <point x="146" y="273" type="curve" smooth="yes"/>
      <point x="146" y="418"/>
      <point x="233" y="560"/>
      <point x="343" y="560" type="curve" smooth="yes"/>
      <point x="380" y="560"/>
      <point x="409" y="550"/>
      <point x="437" y="530" type="curve"/>
      <point x="437" y="530"/>
      <point x="411" y="559"/>
      <point x="411" y="559" type="curve"/>
      <point x="411" y="559"/>
      <point x="423" y="471"/>
      <point x="423" y="471" type="curve"/>
      <point x="426" y="445"/>
      <point x="436" y="429"/>
      <point x="458" y="429" type="curve" smooth="yes"/>
      <point x="474" y="429"/>
      <point x="486" y="438"/>
      <point x="488" y="462" type="curve"/>
      <point x="482" y="548"/>
      <point x="425" y="590"/>
      <point x="347" y="590" type="curve" smooth="yes"/>
      <point x="215" y="590"/>
      <point x="95" y="436"/>
    </contour>
    <contour>
      <point x="232" y="-40" type="curve"/>
      <point x="232" y="-40"/>
      <point x="383" y="701"/>
      <point x="383" y="701" type="curve"/>
      <point x="383" y="701"/>
      <point x="354" y="701"/>
      <point x="354" y="701" type="curve"/>
      <point x="354" y="701"/>
      <point x="204" y="-40"/>
      <point x="204" y="-40" type="curve"/>
      <point x="204" y="-40"/>
      <point x="232" y="-40"/>
    </contour>
  </outline>
</glyph>
<glyph name="cid41194" format="2">
  <advance height="1000" width="521"/>
  <unicode hex="00A4"/>
  <outline>
    <contour>
      <point x="399" y="459" type="line"/>
      <point x="447" y="494" type="line"/>
      <point x="486" y="519"/>
      <point x="504" y="534"/>
      <point x="504" y="552" type="curve" smooth="yes"/>
      <point x="504" y="566"/>
      <point x="493" y="579"/>
      <point x="478" y="579" type="curve" smooth="yes"/>
      <point x="461" y="579"/>
      <point x="444" y="558"/>
      <point x="419" y="520" type="curve" smooth="yes"/>
      <point x="387" y="473" type="line"/>
    </contour>
    <contour>
      <point x="155" y="356" type="curve" smooth="yes"/>
      <point x="155" y="433"/>
      <point x="213" y="488"/>
      <point x="284" y="488" type="curve" smooth="yes"/>
      <point x="356" y="488"/>
      <point x="413" y="433"/>
      <point x="413" y="356" type="curve" smooth="yes"/>
      <point x="413" y="280"/>
      <point x="356" y="224"/>
      <point x="284" y="224" type="curve" smooth="yes"/>
      <point x="214" y="224"/>
      <point x="155" y="278"/>
    </contour>
    <contour>
      <point x="118" y="356" type="curve" smooth="yes"/>
      <point x="118" y="258"/>
      <point x="194" y="191"/>
      <point x="284" y="191" type="curve" smooth="yes"/>
      <point x="373" y="191"/>
      <point x="450" y="258"/>
      <point x="450" y="356" type="curve" smooth="yes"/>
      <point x="450" y="455"/>
      <point x="373" y="521"/>
      <point x="284" y="521" type="curve" smooth="yes"/>
      <point x="194" y="521"/>
      <point x="118" y="455"/>
    </contour>
    <contour>
      <point x="182" y="473" type="line"/>
      <point x="149" y="520" type="line" smooth="yes"/>
      <point x="124" y="559"/>
      <point x="108" y="580"/>
      <point x="90" y="580" type="curve" smooth="yes"/>
      <point x="76" y="580"/>
      <point x="64" y="566"/>
      <point x="64" y="553" type="curve" smooth="yes"/>
      <point x="64" y="535"/>
      <point x="83" y="519"/>
      <point x="122" y="494" type="curve"/>
      <point x="168" y="460" type="line"/>
    </contour>
    <contour>
      <point x="168" y="252" type="line"/>
      <point x="121" y="219" type="line" smooth="yes"/>
      <point x="83" y="193"/>
      <point x="63" y="177"/>
      <point x="63" y="160" type="curve" smooth="yes"/>
      <point x="63" y="145"/>
      <point x="75" y="133"/>
      <point x="90" y="133" type="curve" smooth="yes"/>
      <point x="107" y="133"/>
      <point x="124" y="154"/>
      <point x="149" y="192" type="curve" smooth="yes"/>
      <point x="182" y="240" type="line"/>
    </contour>
    <contour>
      <point x="386" y="239" type="line"/>
      <point x="419" y="192" type="line" smooth="yes"/>
      <point x="444" y="154"/>
      <point x="460" y="133"/>
      <point x="478" y="133" type="curve" smooth="yes"/>
      <point x="493" y="133"/>
      <point x="504" y="145"/>
      <point x="504" y="159" type="curve" smooth="yes"/>
      <point x="504" y="177"/>
      <point x="485" y="193"/>
      <point x="447" y="219" type="curve" smooth="yes"/>
      <point x="399" y="252" type="line"/>
    </contour>
  </outline>
</glyph>
<glyph name="cid41200" format="2">
  <advance height="1000" width="521"/>
  <unicode hex="00A5"/>
  <outline>
    <contour>
      <point x="44" y="164" type="curve"/>
      <point x="44" y="164"/>
      <point x="434" y="164"/>
      <point x="434" y="164" type="curve"/>
      <point x="434" y="164"/>
      <point x="441" y="197"/>
      <point x="441" y="197" type="curve"/>
      <point x="441" y="197"/>
      <point x="52" y="197"/>
      <point x="52" y="197" type="curve"/>
      <point x="52" y="197"/>
      <point x="44" y="164"/>
    </contour>
    <contour>
      <point x="73" y="10" type="curve"/>
      <point x="73" y="10"/>
      <point x="343" y="10"/>
      <point x="343" y="10" type="curve"/>
      <point x="343" y="10"/>
      <point x="349" y="37"/>
      <point x="349" y="37" type="curve"/>
      <point x="349" y="37"/>
      <point x="226" y="47"/>
      <point x="226" y="47" type="curve"/>
      <point x="226" y="47"/>
      <point x="207" y="47"/>
      <point x="207" y="47" type="curve"/>
      <point x="207" y="47"/>
      <point x="79" y="37"/>
      <point x="79" y="37" type="curve"/>
      <point x="79" y="37"/>
      <point x="73" y="10"/>
    </contour>
    <contour>
      <point x="70" y="288" type="curve"/>
      <point x="70" y="288"/>
      <point x="460" y="288"/>
      <point x="460" y="288" type="curve"/>
      <point x="460" y="288"/>
      <point x="466" y="321"/>
      <point x="466" y="321" type="curve"/>
      <point x="466" y="321"/>
      <point x="77" y="321"/>
      <point x="77" y="321" type="curve"/>
      <point x="77" y="321"/>
      <point x="70" y="288"/>
    </contour>
    <contour>
      <point x="184" y="10" type="curve"/>
      <point x="184" y="10"/>
      <point x="237" y="10"/>
      <point x="237" y="10" type="curve"/>
      <point x="254" y="100"/>
      <point x="263" y="151"/>
      <point x="296" y="317" type="curve"/>
      <point x="296" y="317"/>
      <point x="245" y="317"/>
      <point x="245" y="317" type="curve"/>
      <point x="245" y="317"/>
      <point x="184" y="10"/>
    </contour>
    <contour>
      <point x="171" y="649" type="curve"/>
      <point x="171" y="649"/>
      <point x="185" y="649"/>
      <point x="185" y="649" type="curve"/>
      <point x="185" y="649"/>
      <point x="297" y="660"/>
      <point x="297" y="660" type="curve"/>
      <point x="297" y="660"/>
      <point x="304" y="687"/>
      <point x="304" y="687" type="curve"/>
      <point x="304" y="687"/>
      <point x="85" y="687"/>
      <point x="85" y="687" type="curve"/>
      <point x="85" y="687"/>
      <point x="79" y="660"/>
      <point x="79" y="660" type="curve"/>
      <point x="79" y="660"/>
      <point x="171" y="649"/>
    </contour>
    <contour>
      <point x="252" y="259" type="curve"/>
      <point x="252" y="259"/>
      <point x="274" y="261"/>
      <point x="274" y="261" type="curve"/>
      <point x="274" y="261"/>
      <point x="546" y="687"/>
      <point x="546" y="687" type="curve"/>
      <point x="546" y="687"/>
      <point x="509" y="687"/>
      <point x="509" y="687" type="curve"/>
      <point x="509" y="687"/>
      <point x="280" y="323"/>
      <point x="280" y="323" type="curve"/>
      <point x="280" y="323"/>
      <point x="276" y="317"/>
      <point x="276" y="317" type="curve"/>
      <point x="276" y="317"/>
      <point x="285" y="319"/>
      <point x="285" y="319" type="curve"/>
      <point x="285" y="319"/>
      <point x="193" y="687"/>
      <point x="193" y="687" type="curve"/>
      <point x="193" y="687"/>
      <point x="139" y="687"/>
      <point x="139" y="687" type="curve"/>
      <point x="139" y="687"/>
      <point x="252" y="259"/>
    </contour>
    <contour>
      <point x="501" y="649" type="curve"/>
      <point x="501" y="649"/>
      <point x="513" y="649"/>
      <point x="513" y="649" type="curve"/>
      <point x="513" y="649"/>
      <point x="593" y="660"/>
      <point x="593" y="660" type="curve"/>
      <point x="593" y="660"/>
      <point x="599" y="687"/>
      <point x="599" y="687" type="curve"/>
      <point x="599" y="687"/>
      <point x="407" y="687"/>
      <point x="407" y="687" type="curve"/>
      <point x="407" y="687"/>
      <point x="400" y="660"/>
      <point x="400" y="660" type="curve"/>
      <point x="400" y="660"/>
      <point x="501" y="649"/>
    </contour>
  </outline>
</glyph>
<glyph name="cid40992" format="2">
  <advance height="1000" width="296"/>
  <unicode hex="00A6"/>
  <outline>
    <contour>
      <point x="134" y="-250" type="curve"/>
      <point x="134" y="-250"/>
      <point x="176" y="-250"/>
      <point x="176" y="-250" type="curve"/>
      <point x="176" y="-250"/>
      <point x="176" y="218"/>
      <point x="176" y="218" type="curve"/>
      <point x="176" y="218"/>
      <point x="134" y="218"/>
      <point x="134" y="218" type="curve"/>
      <point x="134" y="218"/>
      <point x="134" y="-250"/>
    </contour>
    <contour>
      <point x="176" y="343" type="curve"/>
      <point x="176" y="343"/>
      <point x="176" y="790"/>
      <point x="176" y="790" type="curve"/>
      <point x="176" y="790"/>
      <point x="134" y="790"/>
      <point x="134" y="790" type="curve"/>
      <point x="134" y="790"/>
      <point x="134" y="343"/>
      <point x="134" y="343" type="curve"/>
      <point x="134" y="343"/>
      <point x="176" y="343"/>
    </contour>
  </outline>
</glyph>
<glyph name="cid40999" format="2">
  <advance height="1000" width="480"/>
  <unicode hex="00A7"/>
  <outline>
    <contour>
      <point x="171" y="-104" type="curve" smooth="yes"/>
      <point x="267" y="-104"/>
      <point x="334" y="-48"/>
      <point x="334" y="34" type="curve" smooth="yes"/>
      <point x="334" y="92"/>
      <point x="309" y="124"/>
      <point x="250" y="167" type="curve" smooth="yes"/>
      <point x="202" y="202" type="line" smooth="yes"/>
      <point x="148" y="243"/>
      <point x="125" y="270"/>
      <point x="125" y="319" type="curve" smooth="yes"/>
      <point x="125" y="391"/>
      <point x="179" y="448"/>
      <point x="302" y="453" type="curve"/>
      <point x="291" y="482" type="line"/>
      <point x="291" y="473" type="line"/>
      <point x="157" y="470"/>
      <point x="81" y="401"/>
      <point x="81" y="310" type="curve" smooth="yes"/>
      <point x="81" y="247"/>
      <point x="114" y="209"/>
      <point x="170" y="168" type="curve" smooth="yes"/>
      <point x="211" y="137" type="line" smooth="yes"/>
      <point x="267" y="96"/>
      <point x="287" y="67"/>
      <point x="287" y="25" type="curve" smooth="yes"/>
      <point x="287" y="-34"/>
      <point x="240" y="-77"/>
      <point x="164" y="-77" type="curve" smooth="yes"/>
      <point x="135" y="-77"/>
      <point x="119" y="-72"/>
      <point x="97" y="-61" type="curve"/>
      <point x="126" y="-88" type="line"/>
      <point x="104" y="-17" type="line" smooth="yes"/>
      <point x="98" y="3"/>
      <point x="86" y="13"/>
      <point x="68" y="13" type="curve" smooth="yes"/>
      <point x="54" y="13"/>
      <point x="43" y="4"/>
      <point x="38" y="-11" type="curve"/>
      <point x="53" y="-71"/>
      <point x="96" y="-104"/>
    </contour>
    <contour>
      <point x="348" y="724" type="curve" smooth="yes"/>
      <point x="257" y="724"/>
      <point x="198" y="667"/>
      <point x="198" y="588" type="curve" smooth="yes"/>
      <point x="198" y="528"/>
      <point x="235" y="492"/>
      <point x="281" y="458" type="curve" smooth="yes"/>
      <point x="333" y="421" type="line" smooth="yes"/>
      <point x="387" y="381"/>
      <point x="406" y="348"/>
      <point x="406" y="303" type="curve" smooth="yes"/>
      <point x="406" y="235"/>
      <point x="343" y="181"/>
      <point x="223" y="175" type="curve"/>
      <point x="236" y="145" type="line"/>
      <point x="236" y="155" type="line"/>
      <point x="369" y="159"/>
      <point x="450" y="221"/>
      <point x="450" y="316" type="curve" smooth="yes"/>
      <point x="450" y="374"/>
      <point x="425" y="411"/>
      <point x="364" y="455" type="curve" smooth="yes"/>
      <point x="321" y="486" type="line" smooth="yes"/>
      <point x="267" y="526"/>
      <point x="243" y="549"/>
      <point x="243" y="599" type="curve" smooth="yes"/>
      <point x="243" y="655"/>
      <point x="282" y="698"/>
      <point x="357" y="698" type="curve" smooth="yes"/>
      <point x="379" y="698"/>
      <point x="396" y="692"/>
      <point x="411" y="685" type="curve"/>
      <point x="382" y="712" type="line"/>
      <point x="407" y="652" type="line" smooth="yes"/>
      <point x="416" y="628"/>
      <point x="428" y="618"/>
      <point x="445" y="618" type="curve" smooth="yes"/>
      <point x="460" y="618"/>
      <point x="471" y="627"/>
      <point x="474" y="641" type="curve"/>
      <point x="461" y="694"/>
      <point x="415" y="724"/>
    </contour>
  </outline>
</glyph>
<glyph name="cid41470" format="2">
  <advance height="1000" width="416"/>
  <unicode hex="00A8"/>
  <outline>
    <contour>
      <point x="213" y="670" type="curve" smooth="yes"/>
      <point x="236" y="670"/>
      <point x="258" y="690"/>
      <point x="258" y="718" type="curve" smooth="yes"/>
      <point x="258" y="739"/>
      <point x="241" y="754"/>
      <point x="222" y="754" type="curve" smooth="yes"/>
      <point x="199" y="754"/>
      <point x="176" y="735"/>
      <point x="176" y="708" type="curve" smooth="yes"/>
      <point x="176" y="684"/>
      <point x="192" y="670"/>
    </contour>
    <contour>
      <point x="401" y="670" type="curve" smooth="yes"/>
      <point x="424" y="670"/>
      <point x="446" y="690"/>
      <point x="446" y="718" type="curve" smooth="yes"/>
      <point x="446" y="739"/>
      <point x="431" y="754"/>
      <point x="410" y="754" type="curve" smooth="yes"/>
      <point x="388" y="754"/>
      <point x="365" y="735"/>
      <point x="365" y="708" type="curve" smooth="yes"/>
      <point x="365" y="684"/>
      <point x="382" y="670"/>
    </contour>
  </outline>
</glyph>
<glyph name="cid41002" format="2">
  <advance height="1000" width="805"/>
  <unicode hex="00A9"/>
  <outline>
    <contour>
      <point x="397" y="-5" type="curve" smooth="yes"/>
      <point x="606" y="-5"/>
      <point x="796" y="148"/>
      <point x="796" y="406" type="curve" smooth="yes"/>
      <point x="796" y="606"/>
      <point x="655" y="724"/>
      <point x="468" y="724" type="curve" smooth="yes"/>
      <point x="257" y="724"/>
      <point x="68" y="572"/>
      <point x="68" y="314" type="curve" smooth="yes"/>
      <point x="68" y="113"/>
      <point x="208" y="-5"/>
    </contour>
    <contour>
      <point x="395" y="25" type="curve" smooth="yes"/>
      <point x="227" y="25"/>
      <point x="104" y="133"/>
      <point x="104" y="318" type="curve" smooth="yes"/>
      <point x="104" y="553"/>
      <point x="277" y="694"/>
      <point x="469" y="694" type="curve" smooth="yes"/>
      <point x="636" y="694"/>
      <point x="759" y="586"/>
      <point x="759" y="403" type="curve" smooth="yes"/>
      <point x="759" y="166"/>
      <point x="588" y="25"/>
    </contour>
    <contour>
      <point x="421" y="146" type="curve" smooth="yes"/>
      <point x="464" y="146"/>
      <point x="495" y="157"/>
      <point x="534" y="175" type="curve"/>
      <point x="534" y="175"/>
      <point x="550" y="270"/>
      <point x="550" y="270" type="curve"/>
      <point x="550" y="270"/>
      <point x="524" y="270"/>
      <point x="524" y="270" type="curve"/>
      <point x="524" y="270"/>
      <point x="492" y="174"/>
      <point x="492" y="174" type="curve"/>
      <point x="492" y="174"/>
      <point x="519" y="197"/>
      <point x="519" y="197" type="curve"/>
      <point x="489" y="180"/>
      <point x="460" y="172"/>
      <point x="427" y="172" type="curve" smooth="yes"/>
      <point x="353" y="172"/>
      <point x="291" y="234"/>
      <point x="291" y="340" type="curve" smooth="yes"/>
      <point x="291" y="457"/>
      <point x="362" y="554"/>
      <point x="471" y="554" type="curve" smooth="yes"/>
      <point x="514" y="554"/>
      <point x="544" y="546"/>
      <point x="571" y="525" type="curve"/>
      <point x="571" y="525"/>
      <point x="551" y="549"/>
      <point x="551" y="549" type="curve"/>
      <point x="551" y="549"/>
      <point x="551" y="451"/>
      <point x="551" y="451" type="curve"/>
      <point x="551" y="451"/>
      <point x="577" y="451"/>
      <point x="577" y="451" type="curve"/>
      <point x="577" y="451"/>
      <point x="591" y="547"/>
      <point x="591" y="547" type="curve"/>
      <point x="554" y="571"/>
      <point x="518" y="579"/>
      <point x="473" y="579" type="curve" smooth="yes"/>
      <point x="340" y="579"/>
      <point x="243" y="473"/>
      <point x="243" y="337" type="curve" smooth="yes"/>
      <point x="243" y="224"/>
      <point x="314" y="146"/>
    </contour>
  </outline>
</glyph>
<glyph name="cid41143" format="2">
  <advance height="1000" width="371"/>
  <unicode hex="00AA"/>
  <outline>
    <contour>
      <point x="178" y="446" type="curve" smooth="yes"/>
      <point x="231" y="446"/>
      <point x="285" y="499"/>
      <point x="332" y="563" type="curve"/>
      <point x="336" y="563" type="line"/>
      <point x="328" y="575" type="line"/>
      <point x="272" y="515"/>
      <point x="237" y="483"/>
      <point x="200" y="483" type="curve" smooth="yes"/>
      <point x="172" y="483"/>
      <point x="152" y="503"/>
      <point x="152" y="550" type="curve" smooth="yes"/>
      <point x="152" y="646"/>
      <point x="226" y="750"/>
      <point x="304" y="750" type="curve" smooth="yes"/>
      <point x="328" y="750"/>
      <point x="348" y="740"/>
      <point x="364" y="724" type="curve"/>
      <point x="383" y="743" type="line"/>
      <point x="367" y="768"/>
      <point x="346" y="783"/>
      <point x="319" y="783" type="curve" smooth="yes"/>
      <point x="223" y="783"/>
      <point x="108" y="646"/>
      <point x="108" y="532" type="curve" smooth="yes"/>
      <point x="108" y="469"/>
      <point x="142" y="446"/>
    </contour>
    <contour>
      <point x="334" y="446" type="curve" smooth="yes"/>
      <point x="378" y="446"/>
      <point x="415" y="483"/>
      <point x="442" y="524" type="curve"/>
      <point x="428" y="533" type="line"/>
      <point x="404" y="503"/>
      <point x="378" y="482"/>
      <point x="358" y="482" type="curve" smooth="yes"/>
      <point x="347" y="482"/>
      <point x="340" y="486"/>
      <point x="340" y="496" type="curve" smooth="yes"/>
      <point x="340" y="506"/>
      <point x="342" y="520"/>
      <point x="346" y="534" type="curve"/>
      <point x="399" y="780" type="line"/>
      <point x="391" y="786" type="line"/>
      <point x="355" y="755" type="line"/>
      <point x="352" y="752" type="line"/>
      <point x="308" y="551" type="line"/>
      <point x="306" y="540" type="line" smooth="yes"/>
      <point x="301" y="515"/>
      <point x="298" y="501"/>
      <point x="298" y="484" type="curve" smooth="yes"/>
      <point x="298" y="459"/>
      <point x="313" y="446"/>
    </contour>
  </outline>
</glyph>
<glyph name="cid40928" format="2">
  <advance height="1000" width="551"/>
  <unicode hex="00AB"/>
  <outline>
    <contour>
      <point x="245" y="59" type="curve"/>
      <point x="245" y="59"/>
      <point x="265" y="79"/>
      <point x="265" y="79" type="curve"/>
      <point x="265" y="79"/>
      <point x="103" y="284"/>
      <point x="103" y="284" type="curve"/>
      <point x="103" y="284"/>
      <point x="98" y="254"/>
      <point x="98" y="254" type="curve"/>
      <point x="98" y="254"/>
      <point x="324" y="458"/>
      <point x="324" y="458" type="curve"/>
      <point x="324" y="458"/>
      <point x="309" y="480"/>
      <point x="309" y="480" type="curve"/>
      <point x="309" y="480"/>
      <point x="63" y="286"/>
      <point x="63" y="286" type="curve"/>
      <point x="63" y="286"/>
      <point x="57" y="253"/>
      <point x="57" y="253" type="curve"/>
      <point x="57" y="253"/>
      <point x="245" y="59"/>
    </contour>
    <contour>
      <point x="453" y="59" type="curve"/>
      <point x="453" y="59"/>
      <point x="473" y="79"/>
      <point x="473" y="79" type="curve"/>
      <point x="473" y="79"/>
      <point x="311" y="284"/>
      <point x="311" y="284" type="curve"/>
      <point x="311" y="284"/>
      <point x="306" y="254"/>
      <point x="306" y="254" type="curve"/>
      <point x="306" y="254"/>
      <point x="532" y="458"/>
      <point x="532" y="458" type="curve"/>
      <point x="532" y="458"/>
      <point x="517" y="480"/>
      <point x="517" y="480" type="curve"/>
      <point x="517" y="480"/>
      <point x="271" y="286"/>
      <point x="271" y="286" type="curve"/>
      <point x="271" y="286"/>
      <point x="265" y="253"/>
      <point x="265" y="253" type="curve"/>
      <point x="265" y="253"/>
      <point x="453" y="59"/>
    </contour>
  </outline>
</glyph>
<glyph name="cid41325" format="2">
  <advance height="1000" width="545"/>
  <unicode hex="00AC"/>
  <outline>
    <contour>
      <point x="51" y="376" type="curve"/>
      <point x="51" y="376"/>
      <point x="479" y="376"/>
      <point x="479" y="376" type="curve"/>
      <point x="479" y="376"/>
      <point x="469" y="389"/>
      <point x="469" y="389" type="curve"/>
      <point x="469" y="389"/>
      <point x="469" y="189"/>
      <point x="469" y="189" type="curve"/>
      <point x="469" y="189"/>
      <point x="508" y="189"/>
      <point x="508" y="189" type="curve"/>
      <point x="508" y="189"/>
      <point x="508" y="412"/>
      <point x="508" y="412" type="curve"/>
      <point x="508" y="412"/>
      <point x="51" y="412"/>
      <point x="51" y="412" type="curve"/>
      <point x="51" y="412"/>
      <point x="51" y="376"/>
    </contour>
  </outline>
</glyph>
<glyph name="cid41008" format="2">
  <advance height="1000" width="478"/>
  <unicode hex="00AE"/>
  <outline>
    <contour>
      <point x="201" y="446" type="line"/>
      <point x="288" y="446" type="line"/>
      <point x="291" y="458" type="line"/>
      <point x="252" y="462" type="line"/>
      <point x="243" y="462" type="line"/>
      <point x="204" y="458" type="line"/>
    </contour>
    <contour>
      <point x="228" y="446" type="line"/>
      <point x="262" y="446" type="line"/>
      <point x="303" y="656" type="line"/>
      <point x="268" y="656" type="line"/>
    </contour>
    <contour>
      <point x="278" y="639" type="line"/>
      <point x="284" y="641" type="line"/>
      <point x="287" y="656" type="line"/>
      <point x="241" y="656" type="line"/>
      <point x="239" y="643" type="line"/>
    </contour>
    <contour>
      <point x="284" y="365" type="curve" smooth="yes"/>
      <point x="194" y="365"/>
      <point x="129" y="424"/>
      <point x="129" y="522" type="curve" smooth="yes"/>
      <point x="129" y="648"/>
      <point x="223" y="727"/>
      <point x="326" y="727" type="curve" smooth="yes"/>
      <point x="415" y="727"/>
      <point x="479" y="667"/>
      <point x="479" y="568" type="curve" smooth="yes"/>
      <point x="479" y="442"/>
      <point x="387" y="365"/>
    </contour>
    <contour>
      <point x="284" y="341" type="curve" smooth="yes"/>
      <point x="400" y="341"/>
      <point x="509" y="427"/>
      <point x="509" y="572" type="curve" smooth="yes"/>
      <point x="509" y="683"/>
      <point x="431" y="750"/>
      <point x="326" y="750" type="curve" smooth="yes"/>
      <point x="208" y="750"/>
      <point x="100" y="663"/>
      <point x="100" y="520" type="curve" smooth="yes"/>
      <point x="100" y="406"/>
      <point x="178" y="341"/>
    </contour>
    <contour>
      <point x="371" y="444" type="curve" smooth="yes"/>
      <point x="382" y="444"/>
      <point x="389" y="444"/>
      <point x="399" y="446" type="curve"/>
      <point x="402" y="458" type="line"/>
      <point x="362" y="462" type="line"/>
      <point x="378" y="452" type="line"/>
      <point x="357" y="509" type="line" smooth="yes"/>
      <point x="348" y="535"/>
      <point x="338" y="547"/>
      <point x="310" y="548" type="curve"/>
      <point x="307" y="544" type="line"/>
      <point x="359" y="546"/>
      <point x="390" y="567"/>
      <point x="390" y="604" type="curve" smooth="yes"/>
      <point x="390" y="637"/>
      <point x="365" y="656"/>
      <point x="323" y="656" type="curve" smooth="yes"/>
      <point x="288" y="656" type="line"/>
      <point x="286" y="642" type="line"/>
      <point x="321" y="642" type="line" smooth="yes"/>
      <point x="348" y="642"/>
      <point x="359" y="628"/>
      <point x="359" y="605" type="curve" smooth="yes"/>
      <point x="359" y="576"/>
      <point x="339" y="554"/>
      <point x="304" y="554" type="curve" smooth="yes"/>
      <point x="268" y="554" type="line"/>
      <point x="266" y="540" type="line"/>
      <point x="293" y="540" type="line" smooth="yes"/>
      <point x="311" y="540"/>
      <point x="317" y="532"/>
      <point x="323" y="510" type="curve"/>
      <point x="338" y="466" type="line" smooth="yes"/>
      <point x="343" y="449"/>
      <point x="349" y="444"/>
    </contour>
  </outline>
</glyph>
<glyph name="cid41474" format="2">
  <advance height="1000" width="416"/>
  <unicode hex="00AF"/>
  <outline>
    <contour>
      <point x="186" y="642" type="line"/>
      <point x="411" y="642" type="line"/>
      <point x="419" y="685" type="line"/>
      <point x="194" y="685" type="line"/>
    </contour>
  </outline>
</glyph>
<glyph name="cid41193" format="2">
  <advance height="1000" width="331"/>
  <unicode hex="00B0"/>
  <outline>
    <contour>
      <point x="242" y="501" type="curve" smooth="yes"/>
      <point x="191" y="501"/>
      <point x="151" y="541"/>
      <point x="151" y="599" type="curve" smooth="yes"/>
      <point x="151" y="656"/>
      <point x="191" y="695"/>
      <point x="242" y="695" type="curve" smooth="yes"/>
      <point x="293" y="695"/>
      <point x="333" y="656"/>
      <point x="333" y="599" type="curve" smooth="yes"/>
      <point x="333" y="541"/>
      <point x="293" y="501"/>
    </contour>
    <contour>
      <point x="242" y="472" type="curve" smooth="yes"/>
      <point x="309" y="472"/>
      <point x="367" y="522"/>
      <point x="367" y="599" type="curve" smooth="yes"/>
      <point x="367" y="675"/>
      <point x="309" y="724"/>
      <point x="242" y="724" type="curve" smooth="yes"/>
      <point x="175" y="724"/>
      <point x="118" y="675"/>
      <point x="118" y="599" type="curve" smooth="yes"/>
      <point x="118" y="522"/>
      <point x="175" y="472"/>
    </contour>
  </outline>
</glyph>
<glyph name="cid41314" format="2">
  <advance height="1000" width="545"/>
  <unicode hex="00B1"/>
  <outline>
    <contour>
      <point x="253" y="121" type="curve"/>
      <point x="253" y="121"/>
      <point x="291" y="121"/>
      <point x="291" y="121" type="curve"/>
      <point x="291" y="121"/>
      <point x="291" y="586"/>
      <point x="291" y="586" type="curve"/>
      <point x="291" y="586"/>
      <point x="253" y="586"/>
      <point x="253" y="586" type="curve"/>
      <point x="253" y="586"/>
      <point x="253" y="121"/>
    </contour>
    <contour>
      <point x="501" y="339" type="curve"/>
      <point x="501" y="339"/>
      <point x="501" y="375"/>
      <point x="501" y="375" type="curve"/>
      <point x="501" y="375"/>
      <point x="44" y="375"/>
      <point x="44" y="375" type="curve"/>
      <point x="44" y="375"/>
      <point x="44" y="339"/>
      <point x="44" y="339" type="curve"/>
      <point x="44" y="339"/>
      <point x="501" y="339"/>
    </contour>
    <contour>
      <point x="501" y="10" type="curve"/>
      <point x="501" y="10"/>
      <point x="501" y="46"/>
      <point x="501" y="46" type="curve"/>
      <point x="501" y="46"/>
      <point x="44" y="46"/>
      <point x="44" y="46" type="curve"/>
      <point x="44" y="46"/>
      <point x="44" y="10"/>
      <point x="44" y="10" type="curve"/>
      <point x="44" y="10"/>
      <point x="501" y="10"/>
    </contour>
  </outline>
</glyph>
<glyph name="cid41022" format="2">
  <advance height="1000" width="346"/>
  <unicode hex="00B2"/>
  <outline>
    <contour>
      <point x="95" y="455" type="curve"/>
      <point x="95" y="455"/>
      <point x="348" y="455"/>
      <point x="348" y="455" type="curve"/>
      <point x="348" y="455"/>
      <point x="358" y="499"/>
      <point x="358" y="499" type="curve"/>
      <point x="358" y="499"/>
      <point x="131" y="499"/>
      <point x="131" y="499" type="curve"/>
      <point x="131" y="499"/>
      <point x="133" y="492"/>
      <point x="133" y="492" type="curve"/>
      <point x="345" y="671"/>
      <point x="396" y="715"/>
      <point x="396" y="783" type="curve" smooth="yes"/>
      <point x="396" y="838"/>
      <point x="358" y="877"/>
      <point x="284" y="877" type="curve" smooth="yes"/>
      <point x="215" y="877"/>
      <point x="163" y="844"/>
      <point x="150" y="769" type="curve"/>
      <point x="153" y="756"/>
      <point x="162" y="747"/>
      <point x="174" y="747" type="curve" smooth="yes"/>
      <point x="191" y="747"/>
      <point x="202" y="757"/>
      <point x="204" y="788" type="curve"/>
      <point x="204" y="788"/>
      <point x="209" y="849"/>
      <point x="209" y="849" type="curve"/>
      <point x="209" y="849"/>
      <point x="188" y="814"/>
      <point x="188" y="814" type="curve"/>
      <point x="207" y="842"/>
      <point x="238" y="854"/>
      <point x="269" y="854" type="curve" smooth="yes"/>
      <point x="318" y="854"/>
      <point x="347" y="827"/>
      <point x="347" y="780" type="curve" smooth="yes"/>
      <point x="347" y="724"/>
      <point x="314" y="682"/>
      <point x="100" y="488" type="curve"/>
      <point x="100" y="488"/>
      <point x="95" y="455"/>
    </contour>
  </outline>
</glyph>
<glyph name="cid41024" format="2">
  <advance height="1000" width="346"/>
  <unicode hex="00B3"/>
  <outline>
    <contour>
      <point x="220" y="446" type="curve" smooth="yes"/>
      <point x="307" y="446"/>
      <point x="371" y="493"/>
      <point x="371" y="568" type="curve" smooth="yes"/>
      <point x="371" y="626"/>
      <point x="333" y="664"/>
      <point x="258" y="669" type="curve"/>
      <point x="258" y="669"/>
      <point x="257" y="663"/>
      <point x="257" y="663" type="curve"/>
      <point x="339" y="671"/>
      <point x="393" y="721"/>
      <point x="393" y="783" type="curve" smooth="yes"/>
      <point x="393" y="835"/>
      <point x="357" y="877"/>
      <point x="283" y="877" type="curve" smooth="yes"/>
      <point x="215" y="877"/>
      <point x="170" y="844"/>
      <point x="158" y="784" type="curve"/>
      <point x="160" y="771"/>
      <point x="171" y="764"/>
      <point x="181" y="764" type="curve" smooth="yes"/>
      <point x="197" y="764"/>
      <point x="206" y="774"/>
      <point x="209" y="795" type="curve"/>
      <point x="209" y="795"/>
      <point x="219" y="853"/>
      <point x="219" y="853" type="curve"/>
      <point x="219" y="853"/>
      <point x="198" y="826"/>
      <point x="198" y="826" type="curve"/>
      <point x="219" y="846"/>
      <point x="245" y="856"/>
      <point x="272" y="856" type="curve" smooth="yes"/>
      <point x="319" y="856"/>
      <point x="346" y="827"/>
      <point x="346" y="781" type="curve" smooth="yes"/>
      <point x="346" y="715"/>
      <point x="297" y="678"/>
      <point x="213" y="678" type="curve"/>
      <point x="213" y="678"/>
      <point x="209" y="655"/>
      <point x="209" y="655" type="curve"/>
      <point x="290" y="655"/>
      <point x="321" y="626"/>
      <point x="321" y="572" type="curve" smooth="yes"/>
      <point x="321" y="506"/>
      <point x="277" y="468"/>
      <point x="217" y="468" type="curve" smooth="yes"/>
      <point x="186" y="468"/>
      <point x="159" y="476"/>
      <point x="138" y="499" type="curve"/>
      <point x="138" y="499"/>
      <point x="156" y="475"/>
      <point x="156" y="475" type="curve"/>
      <point x="156" y="475"/>
      <point x="155" y="536"/>
      <point x="155" y="536" type="curve"/>
      <point x="154" y="560"/>
      <point x="146" y="570"/>
      <point x="130" y="570" type="curve" smooth="yes"/>
      <point x="120" y="570"/>
      <point x="111" y="564"/>
      <point x="106" y="552" type="curve"/>
      <point x="106" y="477"/>
      <point x="154" y="446"/>
    </contour>
  </outline>
</glyph>
<glyph name="cid41462" format="2">
  <advance height="1000" width="416"/>
  <unicode hex="00B4"/>
  <outline>
    <contour>
      <point x="232" y="580" type="curve"/>
      <point x="232" y="580"/>
      <point x="249" y="570"/>
      <point x="249" y="570" type="curve"/>
      <point x="286" y="616"/>
      <point x="328" y="670"/>
      <point x="361" y="712" type="curve" smooth="yes"/>
      <point x="378" y="734"/>
      <point x="385" y="747"/>
      <point x="385" y="760" type="curve" smooth="yes"/>
      <point x="385" y="776"/>
      <point x="372" y="785"/>
      <point x="358" y="785" type="curve" smooth="yes"/>
      <point x="341" y="785"/>
      <point x="329" y="771"/>
      <point x="315" y="744" type="curve" smooth="yes"/>
      <point x="290" y="695"/>
      <point x="259" y="633"/>
    </contour>
  </outline>
</glyph>
<glyph name="cid41001" format="2">
  <advance height="1000" width="616"/>
  <unicode hex="00B6"/>
  <outline>
    <contour>
      <point x="546" y="710" type="line"/>
      <point x="539" y="670" type="line"/>
      <point x="547" y="670" type="line"/>
      <point x="677" y="682" type="line"/>
      <point x="681" y="710" type="line"/>
    </contour>
    <contour>
      <point x="371" y="-125" type="line"/>
      <point x="423" y="-125" type="line"/>
      <point x="440" y="-22"/>
      <point x="461" y="91"/>
      <point x="480" y="199" type="curve" smooth="yes"/>
      <point x="575" y="710" type="line"/>
      <point x="525" y="710" type="line"/>
    </contour>
    <contour>
      <point x="448" y="677" type="line"/>
      <point x="542" y="677" type="line"/>
      <point x="547" y="710" type="line"/>
      <point x="476" y="710" type="line" smooth="yes"/>
      <point x="236" y="710"/>
      <point x="105" y="592"/>
      <point x="105" y="414" type="curve" smooth="yes"/>
      <point x="105" y="270"/>
      <point x="209" y="196"/>
      <point x="356" y="182" type="curve"/>
    </contour>
  </outline>
</glyph>
<glyph name="cid40945" format="2">
  <advance height="1000" width="300"/>
  <unicode hex="00B7"/>
  <outline>
    <contour>
      <point x="173" y="303" type="curve" smooth="yes"/>
      <point x="201" y="303"/>
      <point x="225" y="325"/>
      <point x="225" y="355" type="curve" smooth="yes"/>
      <point x="225" y="378"/>
      <point x="208" y="398"/>
      <point x="182" y="398" type="curve" smooth="yes"/>
      <point x="154" y="398"/>
      <point x="129" y="376"/>
      <point x="129" y="346" type="curve" smooth="yes"/>
      <point x="129" y="323"/>
      <point x="147" y="303"/>
    </contour>
  </outline>
</glyph>
<glyph name="cid41493" format="2">
  <advance height="1000" width="416"/>
  <unicode hex="00B8"/>
  <outline>
    <contour>
      <point x="101" y="-77" type="line"/>
      <point x="155" y="-90"/>
      <point x="181" y="-106"/>
      <point x="181" y="-143" type="curve" smooth="yes"/>
      <point x="181" y="-175"/>
      <point x="153" y="-198"/>
      <point x="111" y="-198" type="curve" smooth="yes"/>
      <point x="87" y="-198"/>
      <point x="67" y="-193"/>
      <point x="46" y="-184" type="curve"/>
      <point x="37" y="-203" type="line"/>
      <point x="57" y="-215"/>
      <point x="85" y="-222"/>
      <point x="118" y="-222" type="curve" smooth="yes"/>
      <point x="181" y="-222"/>
      <point x="223" y="-190"/>
      <point x="223" y="-145" type="curve" smooth="yes"/>
      <point x="223" y="-100"/>
      <point x="187" y="-76"/>
      <point x="123" y="-58" type="curve"/>
      <point x="126" y="-73" type="line"/>
      <point x="164" y="10" type="line"/>
      <point x="142" y="10" type="line"/>
    </contour>
  </outline>
</glyph>
<glyph name="cid41021" format="2">
  <advance height="1000" width="346"/>
  <unicode hex="00B9"/>
  <outline>
    <contour>
      <point x="107" y="455" type="line"/>
      <point x="339" y="455" type="line"/>
      <point x="342" y="474" type="line"/>
      <point x="240" y="483" type="line"/>
      <point x="212" y="483" type="line"/>
      <point x="111" y="474" type="line"/>
    </contour>
    <contour>
      <point x="197" y="455" type="line"/>
      <point x="243" y="455" type="line"/>
      <point x="308" y="767" type="line"/>
      <point x="331" y="870" type="line"/>
      <point x="324" y="876" type="line"/>
      <point x="188" y="842" type="line"/>
      <point x="184" y="822" type="line"/>
      <point x="289" y="835" type="line"/>
      <point x="277" y="849" type="line"/>
    </contour>
  </outline>
</glyph>
<glyph name="cid40931" format="2">
  <advance height="1000" width="551"/>
  <unicode hex="00BB"/>
  <outline>
    <contour>
      <point x="307" y="480" type="line"/>
      <point x="287" y="460" type="line"/>
      <point x="449" y="255" type="line"/>
      <point x="454" y="285" type="line"/>
      <point x="228" y="81" type="line"/>
      <point x="243" y="59" type="line"/>
      <point x="489" y="253" type="line"/>
      <point x="495" y="286" type="line"/>
    </contour>
    <contour>
      <point x="99" y="480" type="line"/>
      <point x="79" y="460" type="line"/>
      <point x="241" y="255" type="line"/>
      <point x="246" y="285" type="line"/>
      <point x="20" y="81" type="line"/>
      <point x="35" y="59" type="line"/>
      <point x="281" y="253" type="line"/>
      <point x="287" y="286" type="line"/>
    </contour>
  </outline>
</glyph>
<glyph name="cid41240" format="2">
  <advance height="1000" width="816"/>
  <unicode hex="00BC"/>
  <outline>
    <contour>
      <point x="74" y="298" type="line"/>
      <point x="306" y="298" type="line"/>
      <point x="309" y="317" type="line"/>
      <point x="207" y="326" type="line"/>
      <point x="179" y="326" type="line"/>
      <point x="78" y="317" type="line"/>
    </contour>
    <contour>
      <point x="163" y="298" type="line"/>
      <point x="210" y="298" type="line"/>
      <point x="275" y="610" type="line"/>
      <point x="297" y="713" type="line"/>
      <point x="291" y="719" type="line"/>
      <point x="155" y="685" type="line"/>
      <point x="151" y="665" type="line"/>
      <point x="256" y="678" type="line"/>
      <point x="243" y="692" type="line"/>
    </contour>
    <contour>
      <point x="190" y="-6" type="line"/>
      <point x="714" y="685" type="line"/>
      <point x="692" y="703" type="line"/>
      <point x="165" y="12" type="line"/>
    </contour>
    <contour>
      <point x="627" y="1" type="line"/>
      <point x="671" y="1" type="line"/>
      <point x="758" y="429" type="line"/>
      <point x="725" y="429" type="line"/>
      <point x="472" y="157" type="line"/>
      <point x="465" y="124" type="line"/>
      <point x="771" y="124" type="line"/>
      <point x="778" y="161" type="line"/>
      <point x="499" y="161" type="line"/>
      <point x="499" y="168" type="line"/>
      <point x="493" y="149" type="line"/>
      <point x="606" y="271" type="line"/>
      <point x="719" y="393" type="line"/>
      <point x="694" y="382" type="line"/>
      <point x="705" y="382" type="line"/>
      <point x="657" y="147" type="line"/>
      <point x="655" y="140" type="line"/>
    </contour>
  </outline>
</glyph>
<glyph name="cid41242" format="2">
  <advance height="1000" width="847"/>
  <unicode hex="00BD"/>
  <outline>
    <contour>
      <point x="74" y="298" type="line"/>
      <point x="306" y="298" type="line"/>
      <point x="309" y="317" type="line"/>
      <point x="207" y="326" type="line"/>
      <point x="179" y="326" type="line"/>
      <point x="78" y="317" type="line"/>
    </contour>
    <contour>
      <point x="163" y="298" type="line"/>
      <point x="210" y="298" type="line"/>
      <point x="275" y="610" type="line"/>
      <point x="297" y="713" type="line"/>
      <point x="291" y="719" type="line"/>
      <point x="155" y="685" type="line"/>
      <point x="151" y="665" type="line"/>
      <point x="256" y="678" type="line"/>
      <point x="243" y="692" type="line"/>
    </contour>
    <contour>
      <point x="190" y="-6" type="line"/>
      <point x="714" y="685" type="line"/>
      <point x="692" y="703" type="line"/>
      <point x="165" y="12" type="line"/>
    </contour>
    <contour>
      <point x="500" y="10" type="line"/>
      <point x="754" y="10" type="line"/>
      <point x="763" y="54" type="line"/>
      <point x="537" y="54" type="line"/>
      <point x="539" y="46" type="line"/>
      <point x="751" y="226"/>
      <point x="802" y="270"/>
      <point x="802" y="338" type="curve" smooth="yes"/>
      <point x="802" y="393"/>
      <point x="763" y="432"/>
      <point x="690" y="432" type="curve" smooth="yes"/>
      <point x="621" y="432"/>
      <point x="569" y="399"/>
      <point x="555" y="324" type="curve"/>
      <point x="558" y="311"/>
      <point x="568" y="302"/>
      <point x="579" y="302" type="curve" smooth="yes"/>
      <point x="597" y="302"/>
      <point x="607" y="312"/>
      <point x="609" y="343" type="curve" smooth="yes"/>
      <point x="615" y="404" type="line"/>
      <point x="594" y="369" type="line"/>
      <point x="613" y="397"/>
      <point x="644" y="409"/>
      <point x="675" y="409" type="curve" smooth="yes"/>
      <point x="724" y="409"/>
      <point x="753" y="382"/>
      <point x="753" y="334" type="curve" smooth="yes"/>
      <point x="753" y="279"/>
      <point x="720" y="237"/>
      <point x="505" y="43" type="curve"/>
    </contour>
  </outline>
</glyph>
<glyph name="cid41244" format="2">
  <advance height="1000" width="816"/>
  <unicode hex="00BE"/>
  <outline>
    <contour>
      <point x="187" y="289" type="curve" smooth="yes"/>
      <point x="274" y="289"/>
      <point x="338" y="336"/>
      <point x="338" y="411" type="curve" smooth="yes"/>
      <point x="338" y="469"/>
      <point x="300" y="507"/>
      <point x="225" y="512" type="curve"/>
      <point x="224" y="506" type="line"/>
      <point x="306" y="514"/>
      <point x="360" y="564"/>
      <point x="360" y="626" type="curve" smooth="yes"/>
      <point x="360" y="678"/>
      <point x="323" y="720"/>
      <point x="250" y="720" type="curve" smooth="yes"/>
      <point x="182" y="720"/>
      <point x="136" y="687"/>
      <point x="125" y="627" type="curve"/>
      <point x="127" y="614"/>
      <point x="137" y="607"/>
      <point x="148" y="607" type="curve" smooth="yes"/>
      <point x="163" y="607"/>
      <point x="173" y="617"/>
      <point x="176" y="638" type="curve" smooth="yes"/>
      <point x="186" y="696" type="line"/>
      <point x="164" y="669" type="line"/>
      <point x="186" y="689"/>
      <point x="212" y="698"/>
      <point x="239" y="698" type="curve" smooth="yes"/>
      <point x="286" y="698"/>
      <point x="313" y="670"/>
      <point x="313" y="624" type="curve" smooth="yes"/>
      <point x="313" y="558"/>
      <point x="264" y="521"/>
      <point x="180" y="521" type="curve"/>
      <point x="176" y="498" type="line"/>
      <point x="257" y="498"/>
      <point x="288" y="469"/>
      <point x="288" y="415" type="curve" smooth="yes"/>
      <point x="288" y="349"/>
      <point x="243" y="311"/>
      <point x="184" y="311" type="curve" smooth="yes"/>
      <point x="153" y="311"/>
      <point x="126" y="319"/>
      <point x="105" y="342" type="curve"/>
      <point x="123" y="318" type="line"/>
      <point x="122" y="379" type="line" smooth="yes"/>
      <point x="121" y="403"/>
      <point x="112" y="412"/>
      <point x="97" y="412" type="curve" smooth="yes"/>
      <point x="86" y="412"/>
      <point x="78" y="407"/>
      <point x="73" y="395" type="curve"/>
      <point x="73" y="320"/>
      <point x="121" y="289"/>
    </contour>
    <contour>
      <point x="190" y="-6" type="line"/>
      <point x="714" y="685" type="line"/>
      <point x="692" y="703" type="line"/>
      <point x="165" y="12" type="line"/>
    </contour>
    <contour>
      <point x="627" y="1" type="line"/>
      <point x="671" y="1" type="line"/>
      <point x="758" y="429" type="line"/>
      <point x="725" y="429" type="line"/>
      <point x="472" y="157" type="line"/>
      <point x="465" y="124" type="line"/>
      <point x="771" y="124" type="line"/>
      <point x="778" y="161" type="line"/>
      <point x="499" y="161" type="line"/>
      <point x="499" y="168" type="line"/>
      <point x="493" y="149" type="line"/>
      <point x="606" y="271" type="line"/>
      <point x="719" y="393" type="line"/>
      <point x="694" y="382" type="line"/>
      <point x="705" y="382" type="line"/>
      <point x="657" y="147" type="line"/>
      <point x="655" y="140" type="line"/>
    </contour>
  </outline>
</glyph>
<glyph name="cid40906" format="2">
  <advance height="1000" width="426"/>
  <unicode hex="00BF"/>
  <outline>
    <contour>
      <point x="313" y="319" type="curve"/>
      <point x="313" y="319"/>
      <point x="288" y="322"/>
      <point x="288" y="322" type="curve"/>
      <point x="279" y="232"/>
      <point x="268" y="208"/>
      <point x="240" y="180" type="curve" smooth="yes"/>
      <point x="223" y="162"/>
      <point x="196" y="141"/>
      <point x="122" y="96" type="curve" smooth="yes"/>
      <point x="5" y="25"/>
      <point x="-34" y="-15"/>
      <point x="-34" y="-93" type="curve" smooth="yes"/>
      <point x="-34" y="-171"/>
      <point x="28" y="-216"/>
      <point x="121" y="-216" type="curve" smooth="yes"/>
      <point x="214" y="-216"/>
      <point x="270" y="-168"/>
      <point x="285" y="-115" type="curve"/>
      <point x="285" y="-97"/>
      <point x="272" y="-85"/>
      <point x="256" y="-85" type="curve" smooth="yes"/>
      <point x="236" y="-85"/>
      <point x="227" y="-93"/>
      <point x="217" y="-115" type="curve"/>
      <point x="217" y="-115"/>
      <point x="181" y="-193"/>
      <point x="181" y="-193" type="curve"/>
      <point x="181" y="-193"/>
      <point x="226" y="-164"/>
      <point x="226" y="-164" type="curve"/>
      <point x="200" y="-180"/>
      <point x="167" y="-188"/>
      <point x="127" y="-188" type="curve" smooth="yes"/>
      <point x="56" y="-188"/>
      <point x="16" y="-151"/>
      <point x="16" y="-93" type="curve" smooth="yes"/>
      <point x="16" y="-42"/>
      <point x="45" y="-2"/>
      <point x="141" y="57" type="curve" smooth="yes"/>
      <point x="219" y="105"/>
      <point x="248" y="128"/>
      <point x="266" y="147" type="curve" smooth="yes"/>
      <point x="296" y="180"/>
      <point x="309" y="215"/>
    </contour>
    <contour>
      <point x="360" y="467" type="curve" smooth="yes"/>
      <point x="360" y="490"/>
      <point x="342" y="510"/>
      <point x="315" y="510" type="curve" smooth="yes"/>
      <point x="288" y="510"/>
      <point x="265" y="487"/>
      <point x="265" y="460" type="curve" smooth="yes"/>
      <point x="265" y="435"/>
      <point x="283" y="416"/>
      <point x="310" y="416" type="curve" smooth="yes"/>
      <point x="337" y="416"/>
      <point x="360" y="437"/>
    </contour>
  </outline>
</glyph>
<glyph name="cid40105" format="2">
  <advance height="1000" width="677"/>
  <unicode hex="00C0"/>
  <outline>
    <contour>
      <point x="-37" y="10" type="curve"/>
      <point x="-37" y="10"/>
      <point x="178" y="10"/>
      <point x="178" y="10" type="curve"/>
      <point x="178" y="10"/>
      <point x="183" y="38"/>
      <point x="183" y="38" type="curve"/>
      <point x="183" y="38"/>
      <point x="83" y="47"/>
      <point x="83" y="47" type="curve"/>
      <point x="83" y="47"/>
      <point x="67" y="47"/>
      <point x="67" y="47" type="curve"/>
      <point x="67" y="47"/>
      <point x="-31" y="38"/>
      <point x="-31" y="38" type="curve"/>
      <point x="-31" y="38"/>
      <point x="-37" y="10"/>
    </contour>
    <contour>
      <point x="33" y="10" type="curve"/>
      <point x="33" y="10"/>
      <point x="73" y="10"/>
      <point x="73" y="10" type="curve"/>
      <point x="73" y="10"/>
      <point x="399" y="649"/>
      <point x="399" y="649" type="curve"/>
      <point x="399" y="649"/>
      <point x="405" y="659"/>
      <point x="405" y="659" type="curve"/>
      <point x="405" y="659"/>
      <point x="391" y="659"/>
      <point x="391" y="659" type="curve"/>
      <point x="391" y="659"/>
      <point x="477" y="10"/>
      <point x="477" y="10" type="curve"/>
      <point x="477" y="10"/>
      <point x="539" y="10"/>
      <point x="539" y="10" type="curve"/>
      <point x="539" y="10"/>
      <point x="440" y="715"/>
      <point x="440" y="715" type="curve"/>
      <point x="440" y="715"/>
      <point x="405" y="715"/>
      <point x="405" y="715" type="curve"/>
      <point x="405" y="715"/>
      <point x="33" y="10"/>
    </contour>
    <contour>
      <point x="186" y="266" type="curve"/>
      <point x="186" y="266"/>
      <point x="476" y="266"/>
      <point x="476" y="266" type="curve"/>
      <point x="476" y="266"/>
      <point x="479" y="297"/>
      <point x="479" y="297" type="curve"/>
      <point x="479" y="297"/>
      <point x="198" y="297"/>
      <point x="198" y="297" type="curve"/>
      <point x="198" y="297"/>
      <point x="186" y="266"/>
    </contour>
    <contour>
      <point x="365" y="10" type="curve"/>
      <point x="365" y="10"/>
      <point x="622" y="10"/>
      <point x="622" y="10" type="curve"/>
      <point x="622" y="10"/>
      <point x="628" y="38"/>
      <point x="628" y="38" type="curve"/>
      <point x="628" y="38"/>
      <point x="514" y="48"/>
      <point x="514" y="48" type="curve"/>
      <point x="514" y="48"/>
      <point x="495" y="48"/>
      <point x="495" y="48" type="curve"/>
      <point x="495" y="48"/>
      <point x="370" y="38"/>
      <point x="370" y="38" type="curve"/>
      <point x="370" y="38"/>
      <point x="365" y="10"/>
    </contour>
    <contour>
      <point x="465" y="783" type="curve"/>
      <point x="432" y="813"/>
      <point x="397" y="844"/>
      <point x="365" y="873" type="curve" smooth="yes"/>
      <point x="337" y="900"/>
      <point x="323" y="909"/>
      <point x="310" y="909" type="curve" smooth="yes"/>
      <point x="294" y="909"/>
      <point x="283" y="898"/>
      <point x="283" y="883" type="curve" smooth="yes"/>
      <point x="283" y="868"/>
      <point x="295" y="856"/>
      <point x="331" y="835" type="curve" smooth="yes"/>
      <point x="370" y="812"/>
      <point x="412" y="788"/>
      <point x="452" y="765" type="curve"/>
      <point x="452" y="765"/>
      <point x="465" y="783"/>
    </contour>
  </outline>
</glyph>
<glyph name="cid40107" format="2">
  <advance height="1000" width="677"/>
  <unicode hex="00C1"/>
  <outline>
    <contour>
      <point x="-37" y="10" type="line"/>
      <point x="178" y="10" type="line"/>
      <point x="183" y="38" type="line"/>
      <point x="83" y="47" type="line"/>
      <point x="67" y="47" type="line"/>
      <point x="-31" y="38" type="line"/>
    </contour>
    <contour>
      <point x="33" y="10" type="line"/>
      <point x="73" y="10" type="line"/>
      <point x="399" y="649" type="line"/>
      <point x="405" y="659" type="line"/>
      <point x="391" y="659" type="line"/>
      <point x="477" y="10" type="line"/>
      <point x="539" y="10" type="line"/>
      <point x="440" y="715" type="line"/>
      <point x="405" y="715" type="line"/>
    </contour>
    <contour>
      <point x="186" y="266" type="line"/>
      <point x="476" y="266" type="line"/>
      <point x="479" y="297" type="line"/>
      <point x="198" y="297" type="line"/>
    </contour>
    <contour>
      <point x="365" y="10" type="line"/>
      <point x="622" y="10" type="line"/>
      <point x="628" y="38" type="line"/>
      <point x="514" y="48" type="line"/>
      <point x="495" y="48" type="line"/>
      <point x="370" y="38" type="line"/>
    </contour>
    <contour>
      <point x="370" y="778" type="curve"/>
      <point x="380" y="761" type="line"/>
      <point x="425" y="783"/>
      <point x="471" y="805"/>
      <point x="516" y="825" type="curve" smooth="yes"/>
      <point x="556" y="844"/>
      <point x="567" y="856"/>
      <point x="567" y="872" type="curve" smooth="yes"/>
      <point x="567" y="887"/>
      <point x="555" y="896"/>
      <point x="541" y="896" type="curve" smooth="yes"/>
      <point x="523" y="896"/>
      <point x="513" y="889"/>
      <point x="482" y="865" type="curve" smooth="yes"/>
      <point x="445" y="837"/>
      <point x="408" y="807"/>
    </contour>
  </outline>
</glyph>
<glyph name="cid40108" format="2">
  <advance height="1000" width="677"/>
  <unicode hex="00C2"/>
  <outline>
    <contour>
      <point x="-37" y="10" type="curve"/>
      <point x="-37" y="10"/>
      <point x="178" y="10"/>
      <point x="178" y="10" type="curve"/>
      <point x="178" y="10"/>
      <point x="183" y="38"/>
      <point x="183" y="38" type="curve"/>
      <point x="183" y="38"/>
      <point x="83" y="47"/>
      <point x="83" y="47" type="curve"/>
      <point x="83" y="47"/>
      <point x="67" y="47"/>
      <point x="67" y="47" type="curve"/>
      <point x="67" y="47"/>
      <point x="-31" y="38"/>
      <point x="-31" y="38" type="curve"/>
      <point x="-31" y="38"/>
      <point x="-37" y="10"/>
    </contour>
    <contour>
      <point x="33" y="10" type="curve"/>
      <point x="33" y="10"/>
      <point x="73" y="10"/>
      <point x="73" y="10" type="curve"/>
      <point x="73" y="10"/>
      <point x="399" y="649"/>
      <point x="399" y="649" type="curve"/>
      <point x="399" y="649"/>
      <point x="405" y="659"/>
      <point x="405" y="659" type="curve"/>
      <point x="405" y="659"/>
      <point x="391" y="659"/>
      <point x="391" y="659" type="curve"/>
      <point x="391" y="659"/>
      <point x="477" y="10"/>
      <point x="477" y="10" type="curve"/>
      <point x="477" y="10"/>
      <point x="539" y="10"/>
      <point x="539" y="10" type="curve"/>
      <point x="539" y="10"/>
      <point x="440" y="715"/>
      <point x="440" y="715" type="curve"/>
      <point x="440" y="715"/>
      <point x="405" y="715"/>
      <point x="405" y="715" type="curve"/>
      <point x="405" y="715"/>
      <point x="33" y="10"/>
    </contour>
    <contour>
      <point x="186" y="266" type="curve"/>
      <point x="186" y="266"/>
      <point x="476" y="266"/>
      <point x="476" y="266" type="curve"/>
      <point x="476" y="266"/>
      <point x="479" y="297"/>
      <point x="479" y="297" type="curve"/>
      <point x="479" y="297"/>
      <point x="198" y="297"/>
      <point x="198" y="297" type="curve"/>
      <point x="198" y="297"/>
      <point x="186" y="266"/>
    </contour>
    <contour>
      <point x="365" y="10" type="curve"/>
      <point x="365" y="10"/>
      <point x="622" y="10"/>
      <point x="622" y="10" type="curve"/>
      <point x="622" y="10"/>
      <point x="628" y="38"/>
      <point x="628" y="38" type="curve"/>
      <point x="628" y="38"/>
      <point x="514" y="48"/>
      <point x="514" y="48" type="curve"/>
      <point x="514" y="48"/>
      <point x="495" y="48"/>
      <point x="495" y="48" type="curve"/>
      <point x="495" y="48"/>
      <point x="370" y="38"/>
      <point x="370" y="38" type="curve"/>
      <point x="370" y="38"/>
      <point x="365" y="10"/>
    </contour>
    <contour>
      <point x="466" y="894" type="curve"/>
      <point x="466" y="894"/>
      <point x="443" y="894"/>
      <point x="443" y="894" type="curve"/>
      <point x="443" y="894"/>
      <point x="291" y="774"/>
      <point x="291" y="774" type="curve"/>
      <point x="291" y="774"/>
      <point x="301" y="758"/>
      <point x="301" y="758" type="curve"/>
      <point x="301" y="758"/>
      <point x="473" y="859"/>
      <point x="473" y="859" type="curve"/>
      <point x="473" y="859"/>
      <point x="426" y="859"/>
      <point x="426" y="859" type="curve"/>
      <point x="426" y="859"/>
      <point x="571" y="758"/>
      <point x="571" y="758" type="curve"/>
      <point x="571" y="758"/>
      <point x="588" y="774"/>
      <point x="588" y="774" type="curve"/>
      <point x="588" y="774"/>
      <point x="466" y="894"/>
    </contour>
  </outline>
</glyph>
<glyph name="cid40110" format="2">
  <advance height="1000" width="677"/>
  <unicode hex="00C3"/>
  <outline>
    <contour>
      <point x="-37" y="10" type="curve"/>
      <point x="-37" y="10"/>
      <point x="178" y="10"/>
      <point x="178" y="10" type="curve"/>
      <point x="178" y="10"/>
      <point x="183" y="38"/>
      <point x="183" y="38" type="curve"/>
      <point x="183" y="38"/>
      <point x="83" y="47"/>
      <point x="83" y="47" type="curve"/>
      <point x="83" y="47"/>
      <point x="67" y="47"/>
      <point x="67" y="47" type="curve"/>
      <point x="67" y="47"/>
      <point x="-31" y="38"/>
      <point x="-31" y="38" type="curve"/>
      <point x="-31" y="38"/>
      <point x="-37" y="10"/>
    </contour>
    <contour>
      <point x="33" y="10" type="curve"/>
      <point x="33" y="10"/>
      <point x="73" y="10"/>
      <point x="73" y="10" type="curve"/>
      <point x="73" y="10"/>
      <point x="399" y="649"/>
      <point x="399" y="649" type="curve"/>
      <point x="399" y="649"/>
      <point x="405" y="659"/>
      <point x="405" y="659" type="curve"/>
      <point x="405" y="659"/>
      <point x="391" y="659"/>
      <point x="391" y="659" type="curve"/>
      <point x="391" y="659"/>
      <point x="477" y="10"/>
      <point x="477" y="10" type="curve"/>
      <point x="477" y="10"/>
      <point x="539" y="10"/>
      <point x="539" y="10" type="curve"/>
      <point x="539" y="10"/>
      <point x="440" y="715"/>
      <point x="440" y="715" type="curve"/>
      <point x="440" y="715"/>
      <point x="405" y="715"/>
      <point x="405" y="715" type="curve"/>
      <point x="405" y="715"/>
      <point x="33" y="10"/>
    </contour>
    <contour>
      <point x="186" y="266" type="curve"/>
      <point x="186" y="266"/>
      <point x="476" y="266"/>
      <point x="476" y="266" type="curve"/>
      <point x="476" y="266"/>
      <point x="479" y="297"/>
      <point x="479" y="297" type="curve"/>
      <point x="479" y="297"/>
      <point x="198" y="297"/>
      <point x="198" y="297" type="curve"/>
      <point x="198" y="297"/>
      <point x="186" y="266"/>
    </contour>
    <contour>
      <point x="365" y="10" type="curve"/>
      <point x="365" y="10"/>
      <point x="622" y="10"/>
      <point x="622" y="10" type="curve"/>
      <point x="622" y="10"/>
      <point x="628" y="38"/>
      <point x="628" y="38" type="curve"/>
      <point x="628" y="38"/>
      <point x="514" y="48"/>
      <point x="514" y="48" type="curve"/>
      <point x="514" y="48"/>
      <point x="495" y="48"/>
      <point x="495" y="48" type="curve"/>
      <point x="495" y="48"/>
      <point x="370" y="38"/>
      <point x="370" y="38" type="curve"/>
      <point x="370" y="38"/>
      <point x="365" y="10"/>
    </contour>
    <contour>
      <point x="269" y="784" type="curve"/>
      <point x="269" y="784"/>
      <point x="289" y="778"/>
      <point x="289" y="778" type="curve"/>
      <point x="312" y="827"/>
      <point x="339" y="857"/>
      <point x="372" y="857" type="curve" smooth="yes"/>
      <point x="401" y="857"/>
      <point x="415" y="834"/>
      <point x="435" y="812" type="curve" smooth="yes"/>
      <point x="452" y="792"/>
      <point x="470" y="772"/>
      <point x="506" y="772" type="curve" smooth="yes"/>
      <point x="560" y="772"/>
      <point x="598" y="818"/>
      <point x="621" y="885" type="curve"/>
      <point x="621" y="885"/>
      <point x="601" y="891"/>
      <point x="601" y="891" type="curve"/>
      <point x="578" y="841"/>
      <point x="551" y="812"/>
      <point x="518" y="812" type="curve" smooth="yes"/>
      <point x="490" y="812"/>
      <point x="475" y="835"/>
      <point x="457" y="856" type="curve"/>
      <point x="438" y="876"/>
      <point x="419" y="896"/>
      <point x="384" y="896" type="curve" smooth="yes"/>
      <point x="332" y="896"/>
      <point x="291" y="851"/>
    </contour>
  </outline>
</glyph>
<glyph name="cid40112" format="2">
  <advance height="1000" width="677"/>
  <unicode hex="00C4"/>
  <outline>
    <contour>
      <point x="-37" y="10" type="line"/>
      <point x="178" y="10" type="line"/>
      <point x="183" y="38" type="line"/>
      <point x="83" y="47" type="line"/>
      <point x="67" y="47" type="line"/>
      <point x="-31" y="38" type="line"/>
    </contour>
    <contour>
      <point x="33" y="10" type="line"/>
      <point x="73" y="10" type="line"/>
      <point x="399" y="649" type="line"/>
      <point x="405" y="659" type="line"/>
      <point x="391" y="659" type="line"/>
      <point x="477" y="10" type="line"/>
      <point x="539" y="10" type="line"/>
      <point x="440" y="715" type="line"/>
      <point x="405" y="715" type="line"/>
    </contour>
    <contour>
      <point x="186" y="266" type="line"/>
      <point x="476" y="266" type="line"/>
      <point x="479" y="297" type="line"/>
      <point x="198" y="297" type="line"/>
    </contour>
    <contour>
      <point x="365" y="10" type="line"/>
      <point x="622" y="10" type="line"/>
      <point x="628" y="38" type="line"/>
      <point x="514" y="48" type="line"/>
      <point x="495" y="48" type="line"/>
      <point x="370" y="38" type="line"/>
    </contour>
    <contour>
      <point x="333" y="792" type="curve" smooth="yes"/>
      <point x="356" y="792"/>
      <point x="379" y="811"/>
      <point x="379" y="841" type="curve" smooth="yes"/>
      <point x="379" y="862"/>
      <point x="362" y="876"/>
      <point x="341" y="876" type="curve" smooth="yes"/>
      <point x="318" y="876"/>
      <point x="295" y="859"/>
      <point x="295" y="830" type="curve" smooth="yes"/>
      <point x="295" y="806"/>
      <point x="313" y="792"/>
    </contour>
    <contour>
      <point x="542" y="792" type="curve" smooth="yes"/>
      <point x="566" y="792"/>
      <point x="588" y="811"/>
      <point x="588" y="841" type="curve" smooth="yes"/>
      <point x="588" y="862"/>
      <point x="572" y="876"/>
      <point x="550" y="876" type="curve" smooth="yes"/>
      <point x="528" y="876"/>
      <point x="505" y="859"/>
      <point x="505" y="830" type="curve" smooth="yes"/>
      <point x="505" y="806"/>
      <point x="523" y="792"/>
    </contour>
  </outline>
</glyph>
<glyph name="cid40135" format="2">
  <advance height="1000" width="677"/>
  <unicode hex="00C5"/>
  <outline>
    <contour>
      <point x="-37" y="10" type="line"/>
      <point x="178" y="10" type="line"/>
      <point x="183" y="38" type="line"/>
      <point x="83" y="47" type="line"/>
      <point x="67" y="47" type="line"/>
      <point x="-31" y="38" type="line"/>
    </contour>
    <contour>
      <point x="33" y="10" type="line"/>
      <point x="73" y="10" type="line"/>
      <point x="399" y="649" type="line"/>
      <point x="405" y="659" type="line"/>
      <point x="391" y="659" type="line"/>
      <point x="477" y="10" type="line"/>
      <point x="539" y="10" type="line"/>
      <point x="440" y="715" type="line"/>
      <point x="405" y="715" type="line"/>
    </contour>
    <contour>
      <point x="186" y="266" type="line"/>
      <point x="476" y="266" type="line"/>
      <point x="479" y="297" type="line"/>
      <point x="198" y="297" type="line"/>
    </contour>
    <contour>
      <point x="365" y="10" type="line"/>
      <point x="622" y="10" type="line"/>
      <point x="628" y="38" type="line"/>
      <point x="514" y="48" type="line"/>
      <point x="495" y="48" type="line"/>
      <point x="370" y="38" type="line"/>
    </contour>
    <contour>
      <point x="439" y="758" type="curve" smooth="yes"/>
      <point x="489" y="758"/>
      <point x="539" y="797"/>
      <point x="539" y="860" type="curve" smooth="yes"/>
      <point x="539" y="908"/>
      <point x="504" y="939"/>
      <point x="457" y="939" type="curve" smooth="yes"/>
      <point x="409" y="939"/>
      <point x="356" y="899"/>
      <point x="356" y="838" type="curve" smooth="yes"/>
      <point x="356" y="790"/>
      <point x="391" y="758"/>
    </contour>
    <contour>
      <point x="441" y="783" type="curve" smooth="yes"/>
      <point x="406" y="783"/>
      <point x="387" y="810"/>
      <point x="387" y="840" type="curve" smooth="yes"/>
      <point x="387" y="878"/>
      <point x="417" y="913"/>
      <point x="456" y="913" type="curve" smooth="yes"/>
      <point x="491" y="913"/>
      <point x="509" y="887"/>
      <point x="509" y="857" type="curve" smooth="yes"/>
      <point x="509" y="819"/>
      <point x="480" y="783"/>
    </contour>
  </outline>
</glyph>
<glyph name="cid40138" format="2">
  <advance height="1000" width="915"/>
  <unicode hex="00C6"/>
  <outline>
    <contour>
      <point x="452" y="10" type="line"/>
      <point x="828" y="10" type="line"/>
      <point x="868" y="185" type="line"/>
      <point x="834" y="185" type="line"/>
      <point x="775" y="12" type="line"/>
      <point x="810" y="43" type="line"/>
      <point x="459" y="43" type="line"/>
    </contour>
    <contour>
      <point x="864" y="536" type="line"/>
      <point x="899" y="536" type="line"/>
      <point x="920" y="710" type="line"/>
      <point x="582" y="710" type="line"/>
      <point x="576" y="676" type="line"/>
      <point x="888" y="676" type="line"/>
      <point x="866" y="708" type="line"/>
    </contour>
    <contour>
      <point x="-41" y="10" type="line"/>
      <point x="175" y="10" type="line"/>
      <point x="180" y="38" type="line"/>
      <point x="79" y="47" type="line"/>
      <point x="62" y="47" type="line"/>
      <point x="-35" y="38" type="line"/>
    </contour>
    <contour>
      <point x="424" y="10" type="line"/>
      <point x="486" y="10" type="line"/>
      <point x="502" y="118"/>
      <point x="521" y="226"/>
      <point x="541" y="333" type="curve" smooth="yes"/>
      <point x="612" y="710" type="line"/>
      <point x="551" y="710" type="line"/>
      <point x="535" y="611"/>
      <point x="516" y="496"/>
      <point x="495" y="386" type="curve" smooth="yes"/>
    </contour>
    <contour>
      <point x="719" y="249" type="line"/>
      <point x="748" y="249" type="line"/>
      <point x="791" y="483" type="line"/>
      <point x="762" y="483" type="line"/>
      <point x="727" y="377" type="line"/>
      <point x="724" y="357" type="line"/>
    </contour>
    <contour>
      <point x="328" y="10" type="line"/>
      <point x="454" y="10" type="line"/>
      <point x="462" y="48" type="line"/>
      <point x="451" y="48" type="line"/>
      <point x="333" y="38" type="line"/>
    </contour>
    <contour>
      <point x="410" y="682" type="line"/>
      <point x="536" y="671" type="line"/>
      <point x="575" y="671" type="line"/>
      <point x="583" y="710" type="line"/>
      <point x="415" y="710" type="line"/>
    </contour>
    <contour>
      <point x="26" y="10" type="line"/>
      <point x="68" y="10" type="line"/>
      <point x="259" y="279" type="line"/>
      <point x="565" y="710" type="line"/>
      <point x="527" y="710" type="line"/>
    </contour>
    <contour>
      <point x="238" y="264" type="line"/>
      <point x="503" y="264" type="line"/>
      <point x="503" y="295" type="line"/>
      <point x="238" y="295" type="line"/>
    </contour>
    <contour>
      <point x="520" y="350" type="line"/>
      <point x="749" y="350" type="line"/>
      <point x="749" y="382" type="line"/>
      <point x="520" y="382" type="line"/>
    </contour>
  </outline>
</glyph>
<glyph name="cid40140" format="2">
  <advance height="1000" width="614"/>
  <unicode hex="00C7"/>
  <outline>
    <contour>
      <point x="340" y="-5" type="curve" smooth="yes"/>
      <point x="414" y="-5"/>
      <point x="471" y="11"/>
      <point x="535" y="44" type="curve"/>
      <point x="565" y="196" type="line"/>
      <point x="526" y="196" type="line"/>
      <point x="475" y="41" type="line"/>
      <point x="515" y="73" type="line"/>
      <point x="463" y="42"/>
      <point x="409" y="29"/>
      <point x="355" y="29" type="curve" smooth="yes"/>
      <point x="217" y="29"/>
      <point x="118" y="122"/>
      <point x="118" y="295" type="curve" smooth="yes"/>
      <point x="118" y="511"/>
      <point x="249" y="691"/>
      <point x="436" y="691" type="curve" smooth="yes"/>
      <point x="499" y="691"/>
      <point x="548" y="677"/>
      <point x="593" y="643" type="curve"/>
      <point x="566" y="676" type="line"/>
      <point x="564" y="523" type="line"/>
      <point x="600" y="523" type="line"/>
      <point x="623" y="670" type="line"/>
      <point x="565" y="709"/>
      <point x="509" y="724"/>
      <point x="442" y="724" type="curve" smooth="yes"/>
      <point x="225" y="724"/>
      <point x="57" y="536"/>
      <point x="57" y="295" type="curve" smooth="yes"/>
      <point x="57" y="112"/>
      <point x="165" y="-5"/>
    </contour>
    <contour>
      <point x="296" y="-77" type="line"/>
      <point x="350" y="-90"/>
      <point x="376" y="-106"/>
      <point x="376" y="-143" type="curve" smooth="yes"/>
      <point x="376" y="-175"/>
      <point x="348" y="-198"/>
      <point x="307" y="-198" type="curve" smooth="yes"/>
      <point x="283" y="-198"/>
      <point x="262" y="-193"/>
      <point x="241" y="-184" type="curve"/>
      <point x="233" y="-203" type="line"/>
      <point x="253" y="-215"/>
      <point x="281" y="-222"/>
      <point x="313" y="-222" type="curve" smooth="yes"/>
      <point x="376" y="-222"/>
      <point x="418" y="-190"/>
      <point x="418" y="-145" type="curve" smooth="yes"/>
      <point x="418" y="-100"/>
      <point x="383" y="-76"/>
      <point x="318" y="-58" type="curve"/>
      <point x="321" y="-73" type="line"/>
      <point x="360" y="10" type="line"/>
      <point x="338" y="10" type="line"/>
    </contour>
  </outline>
</glyph>
<glyph name="cid40164" format="2">
  <advance height="1000" width="593"/>
  <unicode hex="00CA"/>
  <outline>
    <contour>
      <point x="4" y="10" type="curve"/>
      <point x="4" y="10"/>
      <point x="132" y="10"/>
      <point x="132" y="10" type="curve"/>
      <point x="132" y="10"/>
      <point x="138" y="48"/>
      <point x="138" y="48" type="curve"/>
      <point x="138" y="48"/>
      <point x="128" y="48"/>
      <point x="128" y="48" type="curve"/>
      <point x="128" y="48"/>
      <point x="10" y="38"/>
      <point x="10" y="38" type="curve"/>
      <point x="10" y="38"/>
      <point x="4" y="10"/>
    </contour>
    <contour>
      <point x="101" y="10" type="curve"/>
      <point x="101" y="10"/>
      <point x="162" y="10"/>
      <point x="162" y="10" type="curve"/>
      <point x="179" y="118"/>
      <point x="199" y="226"/>
      <point x="218" y="333" type="curve"/>
      <point x="218" y="333"/>
      <point x="289" y="710"/>
      <point x="289" y="710" type="curve"/>
      <point x="289" y="710"/>
      <point x="228" y="710"/>
      <point x="228" y="710" type="curve"/>
      <point x="210" y="603"/>
      <point x="192" y="495"/>
      <point x="172" y="386" type="curve"/>
      <point x="172" y="386"/>
      <point x="101" y="10"/>
    </contour>
    <contour>
      <point x="121" y="682" type="curve"/>
      <point x="121" y="682"/>
      <point x="242" y="671"/>
      <point x="242" y="671" type="curve"/>
      <point x="242" y="671"/>
      <point x="255" y="671"/>
      <point x="255" y="671" type="curve"/>
      <point x="255" y="671"/>
      <point x="262" y="710"/>
      <point x="262" y="710" type="curve"/>
      <point x="262" y="710"/>
      <point x="126" y="710"/>
      <point x="126" y="710" type="curve"/>
      <point x="126" y="710"/>
      <point x="121" y="682"/>
    </contour>
    <contour>
      <point x="129" y="10" type="curve"/>
      <point x="129" y="10"/>
      <point x="504" y="10"/>
      <point x="504" y="10" type="curve"/>
      <point x="504" y="10"/>
      <point x="545" y="185"/>
      <point x="545" y="185" type="curve"/>
      <point x="545" y="185"/>
      <point x="511" y="185"/>
      <point x="511" y="185" type="curve"/>
      <point x="511" y="185"/>
      <point x="451" y="12"/>
      <point x="451" y="12" type="curve"/>
      <point x="451" y="12"/>
      <point x="487" y="43"/>
      <point x="487" y="43" type="curve"/>
      <point x="487" y="43"/>
      <point x="135" y="43"/>
      <point x="135" y="43" type="curve"/>
      <point x="135" y="43"/>
      <point x="129" y="10"/>
    </contour>
    <contour>
      <point x="193" y="350" type="curve"/>
      <point x="193" y="350"/>
      <point x="419" y="350"/>
      <point x="419" y="350" type="curve"/>
      <point x="419" y="350"/>
      <point x="424" y="382"/>
      <point x="424" y="382" type="curve"/>
      <point x="424" y="382"/>
      <point x="200" y="382"/>
      <point x="200" y="382" type="curve"/>
      <point x="200" y="382"/>
      <point x="193" y="350"/>
    </contour>
    <contour>
      <point x="253" y="676" type="curve"/>
      <point x="253" y="676"/>
      <point x="565" y="676"/>
      <point x="565" y="676" type="curve"/>
      <point x="565" y="676"/>
      <point x="543" y="708"/>
      <point x="543" y="708" type="curve"/>
      <point x="543" y="708"/>
      <point x="541" y="536"/>
      <point x="541" y="536" type="curve"/>
      <point x="541" y="536"/>
      <point x="575" y="536"/>
      <point x="575" y="536" type="curve"/>
      <point x="575" y="536"/>
      <point x="597" y="710"/>
      <point x="597" y="710" type="curve"/>
      <point x="597" y="710"/>
      <point x="259" y="710"/>
      <point x="259" y="710" type="curve"/>
      <point x="259" y="710"/>
      <point x="253" y="676"/>
    </contour>
    <contour>
      <point x="396" y="249" type="curve"/>
      <point x="396" y="249"/>
      <point x="424" y="249"/>
      <point x="424" y="249" type="curve"/>
      <point x="424" y="249"/>
      <point x="468" y="483"/>
      <point x="468" y="483" type="curve"/>
      <point x="468" y="483"/>
      <point x="440" y="483"/>
      <point x="440" y="483" type="curve"/>
      <point x="440" y="483"/>
      <point x="405" y="377"/>
      <point x="405" y="377" type="curve"/>
      <point x="405" y="377"/>
      <point x="401" y="357"/>
      <point x="401" y="357" type="curve"/>
      <point x="401" y="357"/>
      <point x="396" y="249"/>
    </contour>
    <contour>
      <point x="439" y="894" type="curve"/>
      <point x="439" y="894"/>
      <point x="416" y="894"/>
      <point x="416" y="894" type="curve"/>
      <point x="416" y="894"/>
      <point x="264" y="774"/>
      <point x="264" y="774" type="curve"/>
      <point x="264" y="774"/>
      <point x="274" y="758"/>
      <point x="274" y="758" type="curve"/>
      <point x="274" y="758"/>
      <point x="446" y="859"/>
      <point x="446" y="859" type="curve"/>
      <point x="446" y="859"/>
      <point x="399" y="859"/>
      <point x="399" y="859" type="curve"/>
      <point x="399" y="859"/>
      <point x="544" y="758"/>
      <point x="544" y="758" type="curve"/>
      <point x="544" y="758"/>
      <point x="561" y="774"/>
      <point x="561" y="774" type="curve"/>
      <point x="561" y="774"/>
      <point x="439" y="894"/>
    </contour>
  </outline>
</glyph>
<glyph name="cid40207" format="2">
  <advance height="1000" width="350"/>
  <unicode hex="00CC"/>
  <outline>
    <contour>
      <point x="4" y="10" type="line"/>
      <point x="264" y="10" type="line"/>
      <point x="270" y="38" type="line"/>
      <point x="148" y="48" type="line"/>
      <point x="130" y="48" type="line"/>
      <point x="10" y="38" type="line"/>
    </contour>
    <contour>
      <point x="101" y="10" type="line"/>
      <point x="162" y="10" type="line"/>
      <point x="179" y="118"/>
      <point x="199" y="226"/>
      <point x="218" y="333" type="curve" smooth="yes"/>
      <point x="289" y="710" type="line"/>
      <point x="228" y="710" type="line"/>
      <point x="210" y="603"/>
      <point x="192" y="494"/>
      <point x="172" y="386" type="curve" smooth="yes"/>
    </contour>
    <contour>
      <point x="121" y="682" type="line"/>
      <point x="242" y="671" type="line"/>
      <point x="261" y="671" type="line"/>
      <point x="381" y="682" type="line"/>
      <point x="386" y="710" type="line"/>
      <point x="126" y="710" type="line"/>
    </contour>
    <contour>
      <point x="302" y="783" type="line"/>
      <point x="268" y="813"/>
      <point x="234" y="844"/>
      <point x="202" y="873" type="curve" smooth="yes"/>
      <point x="174" y="900"/>
      <point x="160" y="909"/>
      <point x="147" y="909" type="curve" smooth="yes"/>
      <point x="131" y="909"/>
      <point x="120" y="898"/>
      <point x="120" y="883" type="curve" smooth="yes"/>
      <point x="120" y="868"/>
      <point x="132" y="856"/>
      <point x="167" y="835" type="curve" smooth="yes"/>
      <point x="207" y="812"/>
      <point x="249" y="788"/>
      <point x="289" y="765" type="curve"/>
    </contour>
  </outline>
</glyph>
<glyph name="cid40208" format="2">
  <advance height="1000" width="350"/>
  <unicode hex="00CD"/>
  <outline>
    <contour>
      <point x="4" y="10" type="curve"/>
      <point x="4" y="10"/>
      <point x="264" y="10"/>
      <point x="264" y="10" type="curve"/>
      <point x="264" y="10"/>
      <point x="270" y="38"/>
      <point x="270" y="38" type="curve"/>
      <point x="270" y="38"/>
      <point x="148" y="48"/>
      <point x="148" y="48" type="curve"/>
      <point x="148" y="48"/>
      <point x="130" y="48"/>
      <point x="130" y="48" type="curve"/>
      <point x="130" y="48"/>
      <point x="10" y="38"/>
      <point x="10" y="38" type="curve"/>
      <point x="10" y="38"/>
      <point x="4" y="10"/>
    </contour>
    <contour>
      <point x="101" y="10" type="curve"/>
      <point x="101" y="10"/>
      <point x="162" y="10"/>
      <point x="162" y="10" type="curve"/>
      <point x="179" y="118"/>
      <point x="199" y="226"/>
      <point x="218" y="333" type="curve"/>
      <point x="218" y="333"/>
      <point x="289" y="710"/>
      <point x="289" y="710" type="curve"/>
      <point x="289" y="710"/>
      <point x="228" y="710"/>
      <point x="228" y="710" type="curve"/>
      <point x="210" y="603"/>
      <point x="192" y="494"/>
      <point x="172" y="386" type="curve"/>
      <point x="172" y="386"/>
      <point x="101" y="10"/>
    </contour>
    <contour>
      <point x="121" y="682" type="curve"/>
      <point x="121" y="682"/>
      <point x="242" y="671"/>
      <point x="242" y="671" type="curve"/>
      <point x="242" y="671"/>
      <point x="261" y="671"/>
      <point x="261" y="671" type="curve"/>
      <point x="261" y="671"/>
      <point x="381" y="682"/>
      <point x="381" y="682" type="curve"/>
      <point x="381" y="682"/>
      <point x="386" y="710"/>
      <point x="386" y="710" type="curve"/>
      <point x="386" y="710"/>
      <point x="126" y="710"/>
      <point x="126" y="710" type="curve"/>
      <point x="126" y="710"/>
      <point x="121" y="682"/>
    </contour>
    <contour>
      <point x="207" y="778" type="curve"/>
      <point x="207" y="778"/>
      <point x="216" y="761"/>
      <point x="216" y="761" type="curve"/>
      <point x="262" y="783"/>
      <point x="308" y="805"/>
      <point x="353" y="825" type="curve" smooth="yes"/>
      <point x="393" y="844"/>
      <point x="404" y="856"/>
      <point x="404" y="872" type="curve" smooth="yes"/>
      <point x="404" y="887"/>
      <point x="392" y="896"/>
      <point x="378" y="896" type="curve" smooth="yes"/>
      <point x="360" y="896"/>
      <point x="349" y="889"/>
      <point x="318" y="865" type="curve" smooth="yes"/>
      <point x="282" y="837"/>
      <point x="244" y="807"/>
    </contour>
  </outline>
</glyph>
<glyph name="cid40210" format="2">
  <advance height="1000" width="350"/>
  <unicode hex="00CE"/>
  <outline>
    <contour>
      <point x="4" y="10" type="line"/>
      <point x="264" y="10" type="line"/>
      <point x="270" y="38" type="line"/>
      <point x="148" y="48" type="line"/>
      <point x="130" y="48" type="line"/>
      <point x="10" y="38" type="line"/>
    </contour>
    <contour>
      <point x="101" y="10" type="line"/>
      <point x="162" y="10" type="line"/>
      <point x="179" y="118"/>
      <point x="199" y="226"/>
      <point x="218" y="333" type="curve" smooth="yes"/>
      <point x="289" y="710" type="line"/>
      <point x="228" y="710" type="line"/>
      <point x="210" y="603"/>
      <point x="192" y="494"/>
      <point x="172" y="386" type="curve" smooth="yes"/>
    </contour>
    <contour>
      <point x="121" y="682" type="line"/>
      <point x="242" y="671" type="line"/>
      <point x="261" y="671" type="line"/>
      <point x="381" y="682" type="line"/>
      <point x="386" y="710" type="line"/>
      <point x="126" y="710" type="line"/>
    </contour>
    <contour>
      <point x="303" y="894" type="line"/>
      <point x="280" y="894" type="line"/>
      <point x="128" y="774" type="line"/>
      <point x="137" y="758" type="line"/>
      <point x="310" y="859" type="line"/>
      <point x="263" y="859" type="line"/>
      <point x="408" y="758" type="line"/>
      <point x="424" y="774" type="line"/>
    </contour>
  </outline>
</glyph>
